<svg width="1001" height="1001" viewBox="0 0 1001 1001" fill="none" xmlns="http://www.w3.org/2000/svg">
<g clip-path="url(#clip0_303_5487)">
<mask id="mask0_303_5487" style="mask-type:luminance" maskUnits="userSpaceOnUse" x="0" y="0" width="1001" height="1001">
<path d="M1000.07 0.12207H0.0666504V1000.12H1000.07V0.12207Z" fill="white"/>
</mask>
<g mask="url(#mask0_303_5487)">
<g opacity="0.15">
<path d="M540.453 470.596L269.022 314.157V304.928L540.453 461.367V470.596ZM540.453 470.596L269.022 314.157V304.928L540.453 461.367V470.596Z" fill="#60FFE4"/>
<path d="M336.577 291.542L252.692 243.098V233.869L336.577 282.313V291.542ZM336.577 291.542L252.692 243.098V233.869L336.577 282.313V291.542Z" fill="#60FFE4"/>
<path d="M830.86 510.223L559.429 353.784V344.555L830.86 500.994V510.223ZM830.86 510.223L559.429 353.784V344.555L830.86 500.994V510.223Z" fill="#60FFE4"/>
<path d="M495.869 297.174L392.342 237.466V228.237L495.869 287.945V297.174ZM495.869 297.174L392.342 237.466V228.237L495.869 287.945V297.174Z" fill="#60FFE4"/>
<path d="M778.252 422.986L438.908 227.066V217.836L778.252 413.756V422.986ZM778.252 422.986L438.908 227.066V217.836L778.252 413.756V422.986Z" fill="#60FFE4"/>
<path d="M738.409 279.658L634.884 219.949V210.72L738.409 270.427V279.658ZM738.409 279.658L634.884 219.949V210.72L738.409 270.427V279.658Z" fill="#60FFE4"/>
<path d="M925.774 368.535L634.884 200.723V191.494L925.774 359.306V368.535ZM925.774 368.535L634.884 200.723V191.494L925.774 359.306V368.535Z" fill="#60FFE4"/>
</g>
<path d="M619.449 685.867L629.476 886.811C629.553 888.36 630.374 889.773 631.682 890.606C634.851 892.626 639.004 890.37 639.036 886.614L640.75 687.134C640.769 684.705 638.968 682.648 636.558 682.347L624.818 680.883C621.869 680.514 619.302 682.898 619.449 685.867ZM619.449 685.867L629.476 886.811C629.553 888.36 630.374 889.773 631.682 890.606C634.851 892.626 639.004 890.37 639.036 886.614L640.75 687.134C640.769 684.705 638.968 682.648 636.558 682.347L624.818 680.883C621.869 680.514 619.302 682.898 619.449 685.867Z" fill="#36F6D3"/>
<path d="M638.962 682.361L634.691 888.688C634.691 892.798 643.623 891.857 646.948 889.44L647.615 888.953C648.845 888.061 649.602 886.658 649.68 885.141L659.834 685.165C659.957 682.74 658.329 680.574 655.965 680.018L645.144 677.467C641.987 676.723 638.962 679.117 638.962 682.361ZM638.962 682.361L634.691 888.688C634.691 892.798 643.623 891.857 646.948 889.44L647.615 888.953C648.845 888.061 649.602 886.658 649.68 885.141L659.834 685.165C659.957 682.74 658.329 680.574 655.965 680.018L645.144 677.467C641.987 676.723 638.962 679.117 638.962 682.361Z" fill="#89FFE9"/>
<path d="M742.166 628.304L749.52 631.096V639.917H742.166V628.304ZM742.166 628.304L749.52 631.096V639.917H742.166V628.304Z" fill="#0B6F5E"/>
<path d="M528.39 740.108L200.576 549.838L389.861 449.694C402.716 442.894 418.166 443.197 430.744 450.497L745.313 633.081C751.08 636.429 750.915 644.811 745.022 647.93L569.272 740.911C556.418 747.711 540.967 747.408 528.39 740.108ZM528.39 740.108L200.576 549.838L389.861 449.694C402.716 442.894 418.166 443.197 430.744 450.497L745.313 633.081C751.08 636.429 750.915 644.811 745.022 647.93L569.272 740.911C556.418 747.711 540.967 747.408 528.39 740.108Z" fill="#0B6F5E"/>
<path d="M528.37 730.253L200.556 539.983L389.841 439.839C402.696 433.04 418.146 433.342 430.724 440.642L745.293 623.224C751.06 626.572 750.897 634.954 745.002 638.073L569.252 731.056C556.398 737.856 540.947 737.553 528.37 730.253ZM528.37 730.253L200.556 539.983L389.841 439.839C402.696 433.04 418.146 433.342 430.724 440.642L745.293 623.224C751.06 626.572 750.897 634.954 745.002 638.073L569.252 731.056C556.398 737.856 540.947 737.553 528.37 730.253Z" fill="#89FFE9"/>
<path d="M526.885 604.832L526.871 609.049L470.701 641.69L470.715 637.473L526.885 604.832ZM526.885 604.832L526.871 609.049L470.701 641.69L470.715 637.473L526.885 604.832Z" fill="#F9E5D6"/>
<path d="M470.715 637.473L470.701 641.69L346.376 569.912L346.39 565.695L470.715 637.473ZM470.715 637.473L470.701 641.69L346.376 569.912L346.39 565.695L470.715 637.473Z" fill="#F9E5D6"/>
<path d="M526.885 604.832L470.715 637.473L346.39 565.695L402.56 533.053L526.885 604.832ZM526.885 604.832L470.715 637.473L346.39 565.695L402.56 533.053L526.885 604.832Z" fill="#FBF3ED"/>
<path d="M410.153 541.268L410.147 543.739L402.375 548.257L402.383 545.784L410.153 541.268ZM410.153 541.268L410.147 543.739L402.375 548.257L402.383 545.784L410.153 541.268Z" fill="#F9E5D6"/>
<path d="M402.383 545.784L402.375 548.257L394.708 543.829L394.714 541.358L402.383 545.784ZM402.383 545.784L402.375 548.257L394.708 543.829L394.714 541.358L402.383 545.784Z" fill="#F9E5D6"/>
<path d="M410.153 541.268L402.383 545.784L394.714 541.358L402.484 536.842L410.153 541.268ZM410.153 541.268L402.383 545.784L394.714 541.358L402.484 536.842L410.153 541.268Z" fill="white"/>
<path d="M419.99 546.948L419.982 549.419L412.21 553.935L412.218 551.464L419.99 546.948ZM419.99 546.948L419.982 549.419L412.21 553.935L412.218 551.464L419.99 546.948Z" fill="#F9E5D6"/>
<path d="M412.218 551.464L412.21 553.935L404.543 549.509L404.551 547.037L412.218 551.464ZM412.218 551.464L412.21 553.935L404.543 549.509L404.551 547.037L412.218 551.464Z" fill="#F9E5D6"/>
<path d="M419.99 546.948L412.218 551.464L404.551 547.037L412.321 542.52L419.99 546.948ZM419.99 546.948L412.218 551.464L404.551 547.037L412.321 542.52L419.99 546.948Z" fill="white"/>
<path d="M429.805 552.615L429.799 555.087L422.027 559.603L422.035 557.131L429.805 552.615ZM429.805 552.615L429.799 555.087L422.027 559.603L422.035 557.131L429.805 552.615Z" fill="#F9E5D6"/>
<path d="M422.035 557.131L422.027 559.603L414.36 555.176L414.366 552.705L422.035 557.131ZM422.035 557.131L422.027 559.603L414.36 555.176L414.366 552.705L422.035 557.131Z" fill="#F9E5D6"/>
<path d="M429.805 552.615L422.035 557.131L414.366 552.705L422.138 548.187L429.805 552.615ZM429.805 552.615L422.035 557.131L414.366 552.705L422.138 548.187L429.805 552.615Z" fill="white"/>
<path d="M439.622 558.281L439.616 560.755L431.844 565.271L431.85 562.799L439.622 558.281ZM439.622 558.281L439.616 560.755L431.844 565.271L431.85 562.799L439.622 558.281Z" fill="#F9E5D6"/>
<path d="M431.85 562.799L431.844 565.271L424.177 560.844L424.183 558.371L431.85 562.799ZM431.85 562.799L431.844 565.271L424.177 560.844L424.183 558.371L431.85 562.799Z" fill="#F9E5D6"/>
<path d="M439.622 558.281L431.85 562.799L424.183 558.371L431.955 553.855L439.622 558.281ZM439.622 558.281L431.85 562.799L424.183 558.371L431.955 553.855L439.622 558.281Z" fill="white"/>
<path d="M449.457 563.961L449.451 566.432L441.681 570.95L441.687 568.477L449.457 563.961ZM449.457 563.961L449.451 566.432L441.681 570.95L441.687 568.477L449.457 563.961Z" fill="#F9E5D6"/>
<path d="M441.687 568.477L441.681 570.95L434.012 566.522L434.02 564.051L441.687 568.477ZM441.687 568.477L441.681 570.95L434.012 566.522L434.02 564.051L441.687 568.477Z" fill="#F9E5D6"/>
<path d="M449.457 563.961L441.687 568.477L434.02 564.051L441.79 559.535L449.457 563.961ZM449.457 563.961L441.687 568.477L434.02 564.051L441.79 559.535L449.457 563.961Z" fill="white"/>
<path d="M459.276 569.629L459.268 572.1L451.496 576.616L451.504 574.145L459.276 569.629ZM459.276 569.629L459.268 572.1L451.496 576.616L451.504 574.145L459.276 569.629Z" fill="#F9E5D6"/>
<path d="M451.504 574.145L451.496 576.616L443.829 572.19L443.837 569.719L451.504 574.145ZM451.504 574.145L451.496 576.616L443.829 572.19L443.837 569.719L451.504 574.145Z" fill="#F9E5D6"/>
<path d="M459.276 569.629L451.504 574.145L443.837 569.719L451.607 565.201L459.276 569.629ZM459.276 569.629L451.504 574.145L443.837 569.719L451.607 565.201L459.276 569.629Z" fill="white"/>
<path d="M469.091 575.297L469.085 577.768L461.313 582.286L461.321 579.813L469.091 575.297ZM469.091 575.297L469.085 577.768L461.313 582.286L461.321 579.813L469.091 575.297Z" fill="#F9E5D6"/>
<path d="M461.321 579.813L461.313 582.286L453.646 577.858L453.652 575.386L461.321 579.813ZM461.321 579.813L461.313 582.286L453.646 577.858L453.652 575.386L461.321 579.813Z" fill="#F9E5D6"/>
<path d="M469.091 575.297L461.321 579.813L453.652 575.387L461.424 570.871L469.091 575.297ZM469.091 575.297L461.321 579.813L453.652 575.387L461.424 570.871L469.091 575.297Z" fill="white"/>
<path d="M478.928 580.975L478.92 583.448L471.15 587.964L471.156 585.491L478.928 580.975ZM478.928 580.975L478.92 583.448L471.15 587.964L471.156 585.491L478.928 580.975Z" fill="#F9E5D6"/>
<path d="M471.156 585.49L471.15 587.964L463.463 583.525L463.469 581.054L471.156 585.49ZM471.156 585.49L471.15 587.964L463.463 583.525L463.469 581.054L471.156 585.49Z" fill="#F9E5D6"/>
<path d="M478.928 580.975L471.156 585.49L463.469 581.054L471.241 576.536L478.928 580.975ZM478.928 580.975L471.156 585.49L463.469 581.054L471.241 576.536L478.928 580.975Z" fill="white"/>
<path d="M488.745 586.642L488.737 589.116L480.965 593.631L480.973 591.158L488.745 586.642ZM488.745 586.642L488.737 589.116L480.965 593.631L480.973 591.158L488.745 586.642Z" fill="#F9E5D6"/>
<path d="M480.973 591.158L480.965 593.631L473.298 589.205L473.306 586.732L480.973 591.158ZM480.973 591.158L480.965 593.631L473.298 589.205L473.306 586.732L480.973 591.158Z" fill="#F9E5D6"/>
<path d="M488.745 586.642L480.973 591.158L473.306 586.732L481.076 582.216L488.745 586.642ZM488.745 586.642L480.973 591.158L473.306 586.732L481.076 582.216L488.745 586.642Z" fill="white"/>
<path d="M498.56 592.31L498.554 594.783L490.782 599.299L490.79 596.826L498.56 592.31ZM498.56 592.31L498.554 594.783L490.782 599.299L490.79 596.826L498.56 592.31Z" fill="#F9E5D6"/>
<path d="M490.79 596.826L490.782 599.299L483.115 594.871L483.121 592.4L490.79 596.826ZM490.79 596.826L490.782 599.299L483.115 594.871L483.121 592.4L490.79 596.826Z" fill="#F9E5D6"/>
<path d="M498.56 592.31L490.79 596.826L483.121 592.4L490.893 587.884L498.56 592.31ZM498.56 592.31L490.79 596.826L483.121 592.4L490.893 587.884L498.56 592.31Z" fill="white"/>
<path d="M518.214 603.658L518.206 606.129L510.434 610.645L510.442 608.174L518.214 603.658ZM518.214 603.658L518.206 606.129L510.434 610.645L510.442 608.174L518.214 603.658Z" fill="#F9E5D6"/>
<path d="M510.442 608.174L510.434 610.645L492.932 600.541L492.938 598.068L510.442 608.174ZM510.442 608.174L510.434 610.645L492.932 600.541L492.938 598.068L510.442 608.174Z" fill="#F9E5D6"/>
<path d="M518.214 603.658L510.442 608.174L492.938 598.068L500.71 593.552L518.214 603.658ZM518.214 603.658L510.442 608.174L492.938 598.068L500.71 593.552L518.214 603.658Z" fill="white"/>
<path d="M410.083 552.705L410.075 555.177L402.305 559.692L402.311 557.221L410.083 552.705ZM410.083 552.705L410.075 555.177L402.305 559.692L402.311 557.221L410.083 552.705Z" fill="#F9E5D6"/>
<path d="M402.311 557.221L402.305 559.692L384.801 549.586L384.807 547.115L402.311 557.221ZM402.311 557.221L402.305 559.692L384.801 549.586L384.807 547.115L402.311 557.221Z" fill="#F9E5D6"/>
<path d="M410.083 552.705L402.311 557.221L384.807 547.115L392.579 542.599L410.083 552.705ZM410.083 552.705L402.311 557.221L384.807 547.115L392.579 542.599L410.083 552.705Z" fill="white"/>
<path d="M419.898 558.371L419.892 560.844L412.12 565.36L412.128 562.889L419.898 558.371ZM419.898 558.371L419.892 560.844L412.12 565.36L412.128 562.889L419.898 558.371Z" fill="#F9E5D6"/>
<path d="M412.128 562.889L412.12 565.36L404.453 560.934L404.461 558.461L412.128 562.889ZM412.128 562.889L412.12 565.36L404.453 560.934L404.461 558.461L412.128 562.889Z" fill="#F9E5D6"/>
<path d="M419.898 558.371L412.128 562.889L404.461 558.461L412.232 553.945L419.898 558.371ZM419.898 558.371L412.128 562.889L404.461 558.461L412.232 553.945L419.898 558.371Z" fill="white"/>
<path d="M429.715 564.039L429.709 566.512L421.937 571.028L421.945 568.555L429.715 564.039ZM429.715 564.039L429.709 566.512L421.937 571.028L421.945 568.555L429.715 564.039Z" fill="#F9E5D6"/>
<path d="M421.945 568.555L421.937 571.028L414.27 566.602L414.276 564.129L421.945 568.555ZM421.945 568.555L421.937 571.028L414.27 566.602L414.276 564.129L421.945 568.555Z" fill="#F9E5D6"/>
<path d="M429.715 564.039L421.945 568.555L414.276 564.129L422.049 559.613L429.715 564.039ZM429.715 564.039L421.945 568.555L414.276 564.129L422.049 559.613L429.715 564.039Z" fill="white"/>
<path d="M439.552 569.719L439.544 572.19L431.774 576.708L431.78 574.235L439.552 569.719ZM439.552 569.719L439.544 572.19L431.774 576.708L431.78 574.235L439.552 569.719Z" fill="#F9E5D6"/>
<path d="M431.78 574.235L431.774 576.708L424.105 572.28L424.113 569.808L431.78 574.235ZM431.78 574.235L431.774 576.708L424.105 572.28L424.113 569.808L431.78 574.235Z" fill="#F9E5D6"/>
<path d="M439.552 569.719L431.78 574.235L424.113 569.808L431.884 565.291L439.552 569.719ZM439.552 569.719L431.78 574.235L424.113 569.808L431.884 565.291L439.552 569.719Z" fill="white"/>
<path d="M449.367 575.386L449.361 577.858L441.589 582.374L441.597 579.902L449.367 575.386ZM449.367 575.386L449.361 577.858L441.589 582.374L441.597 579.902L449.367 575.386Z" fill="#F9E5D6"/>
<path d="M441.597 579.902L441.589 582.374L433.922 577.947L433.928 575.476L441.597 579.902ZM441.597 579.902L441.589 582.374L433.922 577.947L433.928 575.476L441.597 579.902Z" fill="#F9E5D6"/>
<path d="M449.367 575.386L441.597 579.902L433.928 575.476L441.701 570.96L449.367 575.386ZM449.367 575.386L441.597 579.902L433.928 575.476L441.701 570.96L449.367 575.386Z" fill="white"/>
<path d="M459.184 581.054L459.178 583.525L451.406 588.041L451.414 585.57L459.184 581.054ZM459.184 581.054L459.178 583.525L451.406 588.041L451.414 585.57L459.184 581.054Z" fill="#F9E5D6"/>
<path d="M451.414 585.57L451.406 588.041L443.739 583.615L443.745 581.144L451.414 585.57ZM451.414 585.57L451.406 588.041L443.739 583.615L443.745 581.144L451.414 585.57Z" fill="#F9E5D6"/>
<path d="M459.184 581.054L451.414 585.57L443.745 581.144L451.517 576.626L459.184 581.054ZM459.184 581.054L451.414 585.57L443.745 581.144L451.517 576.626L459.184 581.054Z" fill="white"/>
<path d="M469.021 586.732L469.013 589.205L461.243 593.721L461.249 591.248L469.021 586.732ZM469.021 586.732L469.013 589.205L461.243 593.721L461.249 591.248L469.021 586.732Z" fill="#F9E5D6"/>
<path d="M461.249 591.248L461.243 593.721L453.556 589.283L453.562 586.81L461.249 591.248ZM461.249 591.248L461.243 593.721L453.556 589.283L453.562 586.81L461.249 591.248Z" fill="#F9E5D6"/>
<path d="M469.021 586.732L461.249 591.248L453.562 586.81L461.335 582.294L469.021 586.732ZM469.021 586.732L461.249 591.248L453.562 586.81L461.335 582.294L469.021 586.732Z" fill="white"/>
<path d="M478.838 592.4L478.83 594.871L471.058 599.389L471.066 596.916L478.838 592.4ZM478.838 592.4L478.83 594.871L471.058 599.389L471.066 596.916L478.838 592.4Z" fill="#F9E5D6"/>
<path d="M471.066 596.916L471.058 599.389L463.391 594.961L463.399 592.49L471.066 596.916ZM471.066 596.916L471.058 599.389L463.391 594.961L463.399 592.49L471.066 596.916Z" fill="#F9E5D6"/>
<path d="M478.838 592.4L471.066 596.916L463.399 592.49L471.17 587.974L478.838 592.4ZM478.838 592.4L471.066 596.916L463.399 592.49L471.17 587.974L478.838 592.4Z" fill="white"/>
<path d="M488.654 598.068L488.648 600.541L480.875 605.057L480.883 602.584L488.654 598.068ZM488.654 598.068L488.648 600.541L480.875 605.057L480.883 602.584L488.654 598.068Z" fill="#F9E5D6"/>
<path d="M480.883 602.583L480.875 605.057L473.208 600.628L473.214 598.157L480.883 602.583ZM480.883 602.583L480.875 605.057L473.208 600.628L473.214 598.157L480.883 602.583Z" fill="#F9E5D6"/>
<path d="M488.653 598.068L480.883 602.583L473.214 598.157L480.987 593.641L488.653 598.068ZM488.653 598.068L480.883 602.583L473.214 598.157L480.987 593.641L488.653 598.068Z" fill="white"/>
<path d="M498.49 603.746L498.482 606.219L490.712 610.735L490.718 608.264L498.49 603.746ZM498.49 603.746L498.482 606.219L490.712 610.735L490.718 608.264L498.49 603.746Z" fill="#F9E5D6"/>
<path d="M490.718 608.263L490.712 610.735L483.025 606.296L483.031 603.825L490.718 608.263ZM490.718 608.263L490.712 610.735L483.025 606.296L483.031 603.825L490.718 608.263Z" fill="#F9E5D6"/>
<path d="M498.49 603.746L490.718 608.263L483.031 603.825L490.804 599.309L498.49 603.746ZM498.49 603.746L490.718 608.263L483.031 603.825L490.804 599.309L498.49 603.746Z" fill="white"/>
<path d="M508.307 609.413L508.299 611.887L500.529 616.402L500.535 613.931L508.307 609.413ZM508.307 609.413L508.299 611.887L500.529 616.402L500.535 613.931L508.307 609.413Z" fill="#F9E5D6"/>
<path d="M500.535 613.931L500.529 616.402L492.86 611.976L492.868 609.503L500.535 613.931ZM500.535 613.931L500.529 616.402L492.86 611.976L492.868 609.503L500.535 613.931Z" fill="#F9E5D6"/>
<path d="M508.307 609.413L500.535 613.931L492.868 609.503L500.639 604.987L508.307 609.413ZM508.307 609.413L500.535 613.931L492.868 609.503L500.639 604.987L508.307 609.413Z" fill="white"/>
<path d="M400.174 558.461L400.169 560.934L392.398 565.45L392.404 562.977L400.174 558.461ZM400.174 558.461L400.169 560.934L392.398 565.45L392.404 562.977L400.174 558.461Z" fill="#F9E5D6"/>
<path d="M392.404 562.977L392.398 565.45L374.895 555.344L374.901 552.873L392.404 562.977ZM392.404 562.977L392.398 565.45L374.895 555.344L374.901 552.873L392.404 562.977Z" fill="#F9E5D6"/>
<path d="M400.174 558.461L392.404 562.977L374.9 552.873L382.673 548.355L400.174 558.461ZM400.174 558.461L392.404 562.977L374.9 552.873L382.673 548.355L400.174 558.461Z" fill="white"/>
<path d="M409.992 564.129L409.986 566.602L402.213 571.118L402.221 568.645L409.992 564.129ZM409.992 564.129L409.986 566.602L402.213 571.118L402.221 568.645L409.992 564.129Z" fill="#F9E5D6"/>
<path d="M402.221 568.644L402.213 571.118L394.547 566.691L394.553 564.218L402.221 568.644ZM402.221 568.644L402.213 571.118L394.547 566.691L394.553 564.218L402.221 568.644Z" fill="#F9E5D6"/>
<path d="M409.991 564.129L402.221 568.645L394.552 564.218L402.325 559.702L409.991 564.129ZM409.991 564.129L402.221 568.645L394.552 564.218L402.325 559.702L409.991 564.129Z" fill="white"/>
<path d="M419.809 569.796L419.803 572.27L412.03 576.785L412.036 574.312L419.809 569.796ZM419.809 569.796L419.803 572.27L412.03 576.785L412.036 574.312L419.809 569.796Z" fill="#F9E5D6"/>
<path d="M412.036 574.312L412.03 576.785L404.364 572.357L404.37 569.886L412.036 574.312ZM412.036 574.312L412.03 576.785L404.364 572.357L404.37 569.886L412.036 574.312Z" fill="#F9E5D6"/>
<path d="M419.809 569.796L412.036 574.312L404.37 569.886L412.142 565.37L419.809 569.796ZM419.809 569.796L412.036 574.312L404.37 569.886L412.142 565.37L419.809 569.796Z" fill="white"/>
<path d="M429.646 575.476L429.638 577.947L421.867 582.463L421.873 579.992L429.646 575.476ZM429.646 575.476L429.638 577.947L421.867 582.463L421.873 579.992L429.646 575.476Z" fill="#F9E5D6"/>
<path d="M421.873 579.992L421.867 582.463L414.199 578.037L414.207 575.564L421.873 579.992ZM421.873 579.992L421.867 582.463L414.199 578.037L414.207 575.564L421.873 579.992Z" fill="#F9E5D6"/>
<path d="M429.646 575.476L421.873 579.992L414.207 575.564L421.977 571.048L429.646 575.476ZM429.646 575.476L421.873 579.992L414.207 575.564L421.977 571.048L429.646 575.476Z" fill="white"/>
<path d="M439.461 581.144L439.455 583.615L431.682 588.131L431.69 585.66L439.461 581.144ZM439.461 581.144L439.455 583.615L431.682 588.131L431.69 585.66L439.461 581.144Z" fill="#F9E5D6"/>
<path d="M431.69 585.66L431.682 588.131L424.016 583.705L424.024 581.232L431.69 585.66ZM431.69 585.66L431.682 588.131L424.016 583.705L424.024 581.232L431.69 585.66Z" fill="#F9E5D6"/>
<path d="M439.461 581.144L431.69 585.66L424.024 581.232L431.794 576.716L439.461 581.144ZM439.461 581.144L431.69 585.66L424.024 581.232L431.794 576.716L439.461 581.144Z" fill="white"/>
<path d="M449.278 586.81L449.272 589.283L441.5 593.799L441.507 591.328L449.278 586.81ZM449.278 586.81L449.272 589.283L441.5 593.799L441.507 591.328L449.278 586.81Z" fill="#F9E5D6"/>
<path d="M441.507 591.328L441.499 593.799L433.833 589.373L433.839 586.899L441.507 591.328ZM441.507 591.328L441.499 593.799L433.833 589.373L433.839 586.899L441.507 591.328Z" fill="#F9E5D6"/>
<path d="M449.278 586.81L441.507 591.328L433.839 586.899L441.611 582.384L449.278 586.81ZM449.278 586.81L441.507 591.328L433.839 586.899L441.611 582.384L449.278 586.81Z" fill="white"/>
<path d="M459.114 592.49L459.107 594.961L451.336 599.479L451.342 597.005L459.114 592.49ZM459.114 592.49L459.107 594.961L451.336 599.479L451.342 597.005L459.114 592.49Z" fill="#F9E5D6"/>
<path d="M451.342 597.005L451.336 599.479L443.65 595.04L443.656 592.567L451.342 597.005ZM451.342 597.005L451.336 599.479L443.65 595.04L443.656 592.567L451.342 597.005Z" fill="#F9E5D6"/>
<path d="M459.114 592.489L451.342 597.005L443.656 592.567L451.428 588.051L459.114 592.489ZM459.114 592.489L451.342 597.005L443.656 592.567L451.428 588.051L459.114 592.489Z" fill="white"/>
<path d="M468.932 598.157L468.924 600.631L461.153 605.145L461.159 602.673L468.932 598.157ZM468.932 598.157L468.924 600.631L461.153 605.145L461.159 602.673L468.932 598.157Z" fill="#F9E5D6"/>
<path d="M461.159 602.673L461.153 605.144L453.485 600.718L453.493 598.247L461.159 602.673ZM461.159 602.673L461.153 605.144L453.485 600.718L453.493 598.247L461.159 602.673Z" fill="#F9E5D6"/>
<path d="M468.932 598.157L461.159 602.673L453.493 598.247L461.263 593.731L468.932 598.157ZM468.932 598.157L461.159 602.673L453.493 598.247L461.263 593.731L468.932 598.157Z" fill="white"/>
<path d="M478.747 603.825L478.741 606.296L470.969 610.812L470.976 608.341L478.747 603.825ZM478.747 603.825L478.741 606.296L470.969 610.812L470.976 608.341L478.747 603.825Z" fill="#F9E5D6"/>
<path d="M470.976 608.341L470.968 610.812L463.302 606.386L463.308 603.915L470.976 608.341ZM470.976 608.341L470.968 610.812L463.302 606.386L463.308 603.915L470.976 608.341Z" fill="#F9E5D6"/>
<path d="M478.747 603.825L470.976 608.341L463.308 603.915L471.08 599.397L478.747 603.825ZM478.747 603.825L470.976 608.341L463.308 603.915L471.08 599.397L478.747 603.825Z" fill="white"/>
<path d="M498.401 615.171L498.393 617.644L490.622 622.16L490.628 619.687L498.401 615.171ZM498.401 615.171L498.393 617.644L490.622 622.16L490.628 619.687L498.401 615.171Z" fill="#F9E5D6"/>
<path d="M490.628 619.687L490.622 622.16L473.119 612.054L473.125 609.583L490.628 619.687ZM490.628 619.687L490.622 622.16L473.119 612.054L473.125 609.583L490.628 619.687Z" fill="#F9E5D6"/>
<path d="M498.4 615.171L490.628 619.687L473.125 609.583L480.897 605.065L498.4 615.171ZM498.4 615.171L490.628 619.687L473.125 609.583L480.897 605.065L498.4 615.171Z" fill="white"/>
<path d="M400.067 569.898L400.059 572.369L392.289 576.885L392.295 574.414L400.067 569.898ZM400.067 569.898L400.059 572.369L392.289 576.885L392.295 574.414L400.067 569.898Z" fill="#F9E5D6"/>
<path d="M392.295 574.414L392.289 576.885L364.968 561.111L364.974 558.64L392.295 574.414ZM392.295 574.414L392.289 576.885L364.968 561.111L364.974 558.64L392.295 574.414Z" fill="#F9E5D6"/>
<path d="M400.067 569.898L392.295 574.414L364.974 558.64L372.746 554.124L400.067 569.898ZM400.067 569.898L392.295 574.414L364.974 558.64L372.746 554.124L400.067 569.898Z" fill="white"/>
<path d="M409.882 575.564L409.876 578.037L402.104 582.553L402.112 580.082L409.882 575.564ZM409.882 575.564L409.876 578.037L402.104 582.553L402.112 580.082L409.882 575.564Z" fill="#F9E5D6"/>
<path d="M402.112 580.082L402.104 582.553L394.437 578.127L394.445 575.656L402.112 580.082ZM402.112 580.082L402.104 582.553L394.437 578.127L394.445 575.656L402.112 580.082Z" fill="#F9E5D6"/>
<path d="M409.882 575.564L402.112 580.082L394.445 575.656L402.215 571.138L409.882 575.564ZM409.882 575.564L402.112 580.082L394.445 575.656L402.215 571.138L409.882 575.564Z" fill="white"/>
<path d="M419.719 581.244L419.713 583.717L411.941 588.233L411.949 585.76L419.719 581.244ZM419.719 581.244L419.713 583.717L411.941 588.233L411.949 585.76L419.719 581.244Z" fill="#F9E5D6"/>
<path d="M411.949 585.759L411.941 588.233L404.274 583.804L404.28 581.333L411.949 585.759ZM411.949 585.759L411.941 588.233L404.274 583.804L404.28 581.333L411.949 585.759Z" fill="#F9E5D6"/>
<path d="M419.719 581.244L411.949 585.76L404.28 581.333L412.052 576.817L419.719 581.244ZM419.719 581.244L411.949 585.76L404.28 581.333L412.052 576.817L419.719 581.244Z" fill="white"/>
<path d="M429.536 586.911L429.528 589.383L421.758 593.9L421.764 591.427L429.536 586.911ZM429.536 586.911L429.528 589.383L421.758 593.9L421.764 591.427L429.536 586.911Z" fill="#F9E5D6"/>
<path d="M421.764 591.427L421.758 593.9L414.089 589.472L414.097 587.001L421.764 591.427ZM421.764 591.427L421.758 593.9L414.089 589.472L414.097 587.001L421.764 591.427Z" fill="#F9E5D6"/>
<path d="M429.536 586.911L421.764 591.427L414.097 587.001L421.869 582.485L429.536 586.911ZM429.536 586.911L421.764 591.427L414.097 587.001L421.869 582.485L429.536 586.911Z" fill="white"/>
<path d="M439.353 592.579L439.345 595.051L431.575 599.568L431.581 597.095L439.353 592.579ZM439.353 592.579L439.345 595.051L431.575 599.568L431.581 597.095L439.353 592.579Z" fill="#F9E5D6"/>
<path d="M431.581 597.095L431.575 599.568L423.906 595.14L423.914 592.669L431.581 597.095ZM431.581 597.095L431.575 599.568L423.906 595.14L423.914 592.669L431.581 597.095Z" fill="#F9E5D6"/>
<path d="M439.353 592.579L431.581 597.095L423.914 592.669L431.684 588.153L439.353 592.579ZM439.353 592.579L431.581 597.095L423.914 592.669L431.684 588.153L439.353 592.579Z" fill="white"/>
<path d="M449.188 598.259L449.182 600.73L441.41 605.246L441.416 602.775L449.188 598.259ZM449.188 598.259L449.182 600.73L441.41 605.246L441.416 602.775L449.188 598.259Z" fill="#F9E5D6"/>
<path d="M441.416 602.775L441.41 605.246L433.723 600.808L433.731 598.337L441.416 602.775ZM441.416 602.775L441.41 605.246L433.723 600.808L433.731 598.337L441.416 602.775Z" fill="#F9E5D6"/>
<path d="M449.188 598.259L441.416 602.775L433.731 598.337L441.502 593.819L449.188 598.259ZM449.188 598.259L441.416 602.775L433.731 598.337L441.502 593.819L449.188 598.259Z" fill="white"/>
<path d="M459.005 603.925L458.997 606.398L451.227 610.914L451.233 608.443L459.005 603.925ZM459.005 603.925L458.997 606.398L451.227 610.914L451.233 608.443L459.005 603.925Z" fill="#F9E5D6"/>
<path d="M451.233 608.443L451.227 610.914L443.558 606.488L443.566 604.014L451.233 608.443ZM451.233 608.443L451.227 610.914L443.558 606.488L443.566 604.014L451.233 608.443Z" fill="#F9E5D6"/>
<path d="M459.005 603.925L451.233 608.443L443.566 604.014L451.338 599.499L459.005 603.925ZM459.005 603.925L451.233 608.443L443.566 604.014L451.338 599.499L459.005 603.925Z" fill="white"/>
<path d="M468.822 609.593L468.814 612.066L461.044 616.582L461.05 614.109L468.822 609.593ZM468.822 609.593L468.814 612.066L461.044 616.582L461.05 614.109L468.822 609.593Z" fill="#F9E5D6"/>
<path d="M461.05 614.109L461.044 616.582L453.375 612.154L453.383 609.682L461.05 614.109ZM461.05 614.109L461.044 616.582L453.375 612.154L453.383 609.682L461.05 614.109Z" fill="#F9E5D6"/>
<path d="M468.822 609.593L461.05 614.109L453.383 609.682L461.153 605.167L468.822 609.593ZM468.822 609.593L461.05 614.109L453.383 609.682L461.153 605.167L468.822 609.593Z" fill="white"/>
<path d="M488.474 620.94L488.468 623.411L480.696 627.927L480.702 625.456L488.474 620.94ZM488.474 620.94L488.468 623.411L480.696 627.927L480.702 625.456L488.474 620.94Z" fill="#F9E5D6"/>
<path d="M480.702 625.456L480.696 627.927L463.192 617.823L463.2 615.35L480.702 625.456ZM480.702 625.456L480.696 627.927L463.192 617.823L463.2 615.35L480.702 625.456Z" fill="#F9E5D6"/>
<path d="M488.474 620.94L480.702 625.456L463.2 615.35L470.971 610.834L488.474 620.94ZM488.474 620.94L480.702 625.456L463.2 615.35L470.971 610.834L488.474 620.94Z" fill="white"/>
<path d="M370.506 564.308L370.5 566.781L362.728 571.297L362.736 568.824L370.506 564.308ZM370.506 564.308L370.5 566.781L362.728 571.297L362.736 568.824L370.506 564.308Z" fill="#F9E5D6"/>
<path d="M362.736 568.824L362.728 571.297L355.061 566.869L355.069 564.397L362.736 568.824ZM362.736 568.824L362.728 571.297L355.061 566.869L355.069 564.397L362.736 568.824Z" fill="#F9E5D6"/>
<path d="M370.506 564.308L362.736 568.824L355.069 564.398L362.84 559.882L370.506 564.308ZM370.506 564.308L362.736 568.824L355.069 564.398L362.84 559.882L370.506 564.308Z" fill="white"/>
<path d="M380.343 569.986L380.335 572.459L372.565 576.975L372.571 574.504L380.343 569.986ZM380.343 569.986L380.335 572.459L372.565 576.975L372.571 574.504L380.343 569.986Z" fill="#F9E5D6"/>
<path d="M372.571 574.504L372.565 576.975L364.896 572.549L364.904 570.075L372.571 574.504ZM372.571 574.504L372.565 576.975L364.896 572.549L364.904 570.075L372.571 574.504Z" fill="#F9E5D6"/>
<path d="M380.343 569.986L372.571 574.504L364.904 570.075L372.677 565.56L380.343 569.986ZM380.343 569.986L372.571 574.504L364.904 570.075L372.677 565.56L380.343 569.986Z" fill="white"/>
<path d="M390.16 575.656L390.152 578.127L382.382 582.643L382.388 580.171L390.16 575.656ZM390.16 575.656L390.152 578.127L382.382 582.643L382.388 580.171L390.16 575.656Z" fill="#F9E5D6"/>
<path d="M382.388 580.171L382.382 582.643L374.713 578.216L374.721 575.743L382.388 580.171ZM382.388 580.171L382.382 582.643L374.713 578.216L374.721 575.743L382.388 580.171Z" fill="#F9E5D6"/>
<path d="M390.16 575.656L382.388 580.171L374.721 575.743L382.492 571.227L390.16 575.656ZM390.16 575.656L382.388 580.171L374.721 575.743L382.492 571.227L390.16 575.656Z" fill="white"/>
<path d="M439.281 604.014L439.275 606.488L431.503 611.004L431.511 608.53L439.281 604.014ZM439.281 604.014L439.275 606.488L431.503 611.004L431.511 608.53L439.281 604.014Z" fill="#F9E5D6"/>
<path d="M431.511 608.53L431.503 611.003L384.53 583.884L384.536 581.411L431.511 608.53ZM431.511 608.53L431.503 611.003L384.53 583.884L384.536 581.411L431.511 608.53Z" fill="#F9E5D6"/>
<path d="M439.281 604.014L431.511 608.53L384.536 581.411L392.308 576.895L439.281 604.014ZM439.281 604.014L431.511 608.53L384.536 581.411L392.308 576.895L439.281 604.014Z" fill="white"/>
<path d="M449.098 609.682L449.092 612.154L441.32 616.671L441.326 614.198L449.098 609.682ZM449.098 609.682L449.092 612.154L441.32 616.671L441.326 614.198L449.098 609.682Z" fill="#F9E5D6"/>
<path d="M441.326 614.198L441.32 616.671L433.651 612.245L433.659 609.772L441.326 614.198ZM441.326 614.198L441.32 616.671L433.651 612.245L433.659 609.772L441.326 614.198Z" fill="#F9E5D6"/>
<path d="M449.098 609.682L441.326 614.198L433.659 609.772L441.432 605.256L449.098 609.682ZM449.098 609.682L441.326 614.198L433.659 609.772L441.432 605.256L449.098 609.682Z" fill="white"/>
<path d="M458.915 615.35L458.907 617.823L451.137 622.339L451.143 619.866L458.915 615.35ZM458.915 615.35L458.907 617.823L451.137 622.339L451.143 619.866L458.915 615.35Z" fill="#F9E5D6"/>
<path d="M451.143 619.866L451.137 622.339L443.468 617.913L443.476 615.44L451.143 619.866ZM451.143 619.866L451.137 622.339L443.468 617.913L443.476 615.44L451.143 619.866Z" fill="#F9E5D6"/>
<path d="M458.915 615.35L451.143 619.866L443.476 615.44L451.247 610.924L458.915 615.35ZM458.915 615.35L451.143 619.866L443.476 615.44L451.247 610.924L458.915 615.35Z" fill="white"/>
<path d="M478.567 626.698L478.559 629.169L470.789 633.685L470.795 631.214L478.567 626.698ZM478.567 626.698L478.559 629.169L470.789 633.685L470.795 631.214L478.567 626.698Z" fill="#F9E5D6"/>
<path d="M470.795 631.214L470.789 633.685L453.285 623.579L453.293 621.108L470.795 631.214ZM470.795 631.214L470.789 633.685L453.285 623.579L453.293 621.108L470.795 631.214Z" fill="#F9E5D6"/>
<path d="M478.567 626.698L470.795 631.214L453.293 621.108L461.064 616.592L478.567 626.698ZM478.567 626.698L470.795 631.214L453.293 621.108L461.064 616.592L478.567 626.698Z" fill="white"/>
<path d="M593.777 671.524C583.42 677.503 566.632 677.503 556.274 671.524C545.917 665.545 545.917 655.85 556.274 649.871C566.632 643.893 583.42 643.893 593.777 649.871C604.134 655.85 604.134 665.545 593.777 671.524ZM593.777 671.524C583.42 677.503 566.632 677.503 556.274 671.524C545.917 665.545 545.917 655.85 556.274 649.871C566.632 643.893 583.42 643.893 593.777 649.871C604.134 655.85 604.134 665.545 593.777 671.524Z" fill="#FF8E3A"/>
<path d="M601.545 660.697H548.508V616.359H601.545V660.697ZM601.545 660.697H548.508V616.359H601.545V660.697Z" fill="#FF8E3A"/>
<path d="M593.779 627.184C583.422 633.163 566.632 633.163 556.274 627.184C545.917 621.205 545.917 611.51 556.274 605.531C566.632 599.552 583.422 599.552 593.779 605.531C604.136 611.51 604.134 621.205 593.779 627.184ZM593.779 627.184C583.422 633.163 566.632 633.163 556.274 627.184C545.917 621.205 545.917 611.51 556.274 605.531C566.632 599.552 583.422 599.552 593.779 605.531C604.136 611.51 604.134 621.205 593.779 627.184Z" fill="white"/>
<path d="M595.196 619.653C594.159 621.088 592.525 622.443 590.273 623.599C582.023 627.824 568.67 627.824 560.42 623.599C558.168 622.443 556.533 621.088 555.517 619.653C552.787 615.826 554.421 611.362 560.42 608.293C568.67 604.068 582.023 604.068 590.273 608.293C596.272 611.362 597.906 615.826 595.196 619.653ZM595.196 619.653C594.159 621.088 592.525 622.443 590.273 623.599C582.023 627.824 568.67 627.824 560.42 623.599C558.168 622.443 556.533 621.088 555.517 619.653C552.787 615.826 554.421 611.362 560.42 608.293C568.67 604.068 582.023 604.068 590.273 608.293C596.272 611.362 597.906 615.826 595.196 619.653Z" fill="#EAEAEA"/>
<path d="M595.196 619.653C594.159 621.088 592.525 622.443 590.273 623.599C582.023 627.824 568.67 627.824 560.42 623.599C558.168 622.443 556.533 621.088 555.517 619.653C556.533 618.218 558.168 616.863 560.42 615.707C568.67 611.482 582.023 611.482 590.273 615.707C592.525 616.863 594.159 618.218 595.196 619.653ZM595.196 619.653C594.159 621.088 592.525 622.443 590.273 623.599C582.023 627.824 568.67 627.824 560.42 623.599C558.168 622.443 556.533 621.088 555.517 619.653C556.533 618.218 558.168 616.863 560.42 615.707C568.67 611.482 582.023 611.482 590.273 615.707C592.525 616.863 594.159 618.218 595.196 619.653Z" fill="#523C37"/>
<path d="M377.039 537.735L312.357 500.392L403.834 447.578L468.515 484.921L377.039 537.735ZM377.039 537.735L312.357 500.392L403.834 447.578L468.515 484.921L377.039 537.735Z" fill="white"/>
<path d="M378.338 525.086L319.932 491.366L402.534 443.676L460.94 477.396L378.338 525.086ZM378.338 525.086L319.932 491.366L402.534 443.676L460.94 477.396L378.338 525.086Z" fill="#4AAA9A"/>
<path d="M515.021 578.332L472.828 553.971C470.111 552.402 470.111 548.484 472.828 546.916L520.87 519.179L575.027 550.445L526.726 578.332C523.104 580.423 518.642 580.423 515.021 578.332ZM515.021 578.332L472.828 553.971C470.111 552.402 470.111 548.484 472.828 546.916L520.87 519.179L575.027 550.445L526.726 578.332C523.104 580.423 518.642 580.423 515.021 578.332Z" fill="#05231E"/>
<path d="M446.332 328.99L440.16 333.163L446.161 485.836L642.001 605.611L647.607 601.848C648.478 601.264 649 600.282 649 599.234V447.727C649 446.007 648.083 444.419 646.594 443.56L448.096 328.929C447.544 328.61 446.86 328.634 446.332 328.99ZM446.332 328.99L440.16 333.163L446.161 485.836L642.001 605.611L647.607 601.848C648.478 601.264 649 600.282 649 599.234V447.727C649 446.007 648.083 444.419 646.594 443.56L448.096 328.929C447.544 328.61 446.86 328.634 446.332 328.99Z" fill="#05231E"/>
<path d="M639.595 447.379C641.451 448.451 642.593 450.43 642.593 452.572V604.04C642.593 605.41 641.112 606.265 639.926 605.581L444.485 492.729C441.557 491.039 439.753 487.912 439.753 484.53V334.168C439.753 333.199 440.804 332.592 441.643 333.076M639.595 447.379C641.451 448.451 642.593 450.43 642.593 452.572V604.04C642.593 605.41 641.112 606.265 639.926 605.581L444.485 492.729C441.557 491.039 439.753 487.912 439.753 484.53V334.168C439.753 333.199 440.804 332.592 441.643 333.076" fill="#FF8E3A"/>
<path d="M439.753 461.066V339.626L642.334 456.628L642.593 578.193L439.753 461.066ZM439.753 461.066V339.626L642.334 456.628L642.593 578.193L439.753 461.066Z" fill="white"/>
<path d="M461.918 458.707L621.456 550.816" stroke="#FF8E3A" stroke-width="4.28302"/>
<path d="M461.918 448.743L621.456 540.852" stroke="#FF8E3A" stroke-width="4.28302"/>
<path d="M461.918 438.778L621.456 530.887" stroke="#FF8E3A" stroke-width="4.28302"/>
<path d="M461.918 428.814L621.456 520.923" stroke="#FF8E3A" stroke-width="4.28302"/>
<path d="M461.918 418.849L621.456 510.958" stroke="#FF8E3A" stroke-width="4.28302"/>
<path d="M573.66 473.399C600.439 488.86 621.456 500.994 621.456 500.994" stroke="#FF8E3A" stroke-width="4.28302"/>
<path d="M461.918 398.92C461.918 398.92 520.344 432.653 566.482 459.29" stroke="#FF8E3A" stroke-width="4.28302"/>
<path d="M461.918 388.956L621.456 481.065" stroke="#FF8E3A" stroke-width="4.28302"/>
<path d="M461.918 378.991L621.456 471.1" stroke="#FF8E3A" stroke-width="4.28302"/>
<path d="M461.918 369.027L621.456 461.136" stroke="#FF8E3A" stroke-width="4.28302"/>
<path d="M629.4 371.648L474.227 283.343V206.598L629.4 294.904V371.648ZM629.4 371.648L474.227 283.343V206.598L629.4 294.904V371.648Z" fill="#F29E5D"/>
<path d="M515.47 249.577V287.827L510.557 284.991V267.756L493.279 257.782V275.015L488.343 272.165V233.915L493.279 236.765V253.653L510.557 263.629V246.741L515.47 249.577ZM515.47 249.577V287.827L510.557 284.991V267.756L493.279 257.782V275.015L488.343 272.165V233.915L493.279 236.765V253.653L510.557 263.629V246.741L515.47 249.577Z" fill="#0B6F5E"/>
<path d="M546.244 272.087L535.726 266.013V299.521L530.833 296.697V263.189L520.269 257.091V252.347L546.244 267.346V272.087ZM546.244 272.087L535.726 266.013V299.521L530.833 296.697V263.189L520.269 257.091V252.347L546.244 267.346V272.087Z" fill="#0B6F5E"/>
<path d="M585.851 290.212V328.462L581.561 325.985V298.762C581.561 298.353 581.57 297.925 581.594 297.477C581.618 297.028 581.646 296.574 581.676 296.111L570.649 313.107C570.265 313.755 569.673 313.848 568.872 313.386L568.18 312.985C567.381 312.523 566.797 311.752 566.428 310.67L555.192 280.742C555.286 281.79 555.332 282.751 555.332 283.62V310.841L551.017 308.352V270.102L554.662 272.205C555.093 272.454 555.426 272.697 555.665 272.932C555.904 273.167 556.131 273.568 556.346 274.136L567.419 303.437C567.634 304.023 567.833 304.627 568.019 305.249C568.204 305.871 568.379 306.486 568.549 307.098C568.872 306.237 569.25 305.442 569.681 304.715L580.544 288.108C580.745 287.779 580.963 287.636 581.202 287.675C581.441 287.715 581.776 287.859 582.206 288.108L585.851 290.212ZM585.851 290.212V328.462L581.561 325.985V298.762C581.561 298.353 581.57 297.925 581.594 297.477C581.618 297.028 581.646 296.574 581.676 296.111L570.649 313.107C570.265 313.755 569.673 313.848 568.872 313.386L568.18 312.985C567.381 312.523 566.797 311.752 566.428 310.67L555.192 280.742C555.286 281.79 555.332 282.751 555.332 283.62V310.841L551.017 308.352V270.102L554.662 272.205C555.093 272.454 555.426 272.697 555.665 272.932C555.904 273.167 556.131 273.568 556.346 274.136L567.419 303.437C567.634 304.023 567.833 304.627 568.019 305.249C568.204 305.871 568.379 306.486 568.549 307.098C568.872 306.237 569.25 305.442 569.681 304.715L580.544 288.108C580.745 287.779 580.963 287.636 581.202 287.675C581.441 287.715 581.776 287.859 582.206 288.108L585.851 290.212Z" fill="#0B6F5E"/>
<path d="M613.002 339.371V344.138L594.042 333.191V294.94L598.954 297.778V331.26L613.002 339.371ZM613.002 339.371V344.138L594.042 333.191V294.94L598.954 297.778V331.26L613.002 339.371Z" fill="#0B6F5E"/>
<path d="M412.73 429.301L292.55 362.164V285.417L412.73 352.556V429.301ZM412.73 429.301L292.55 362.164V285.417L412.73 352.556V429.301Z" fill="#05231E"/>
<path d="M336.85 359.424C337.127 359.583 337.364 359.844 337.565 360.209L339.505 363.78C338.149 364.847 336.501 365.323 334.556 365.211C332.611 365.1 330.269 364.255 327.531 362.674C325.132 361.289 322.959 359.555 321.014 357.473C319.069 355.39 317.409 353.09 316.032 350.573C314.655 348.056 313.591 345.382 312.838 342.55C312.084 339.718 311.706 336.862 311.706 333.987C311.706 331.111 312.102 328.703 312.893 326.762C313.685 324.823 314.799 323.402 316.227 322.505C317.658 321.609 319.366 321.256 321.359 321.447C323.352 321.638 325.554 322.43 327.97 323.825C330.321 325.184 332.412 326.834 334.243 328.779C336.073 330.722 337.665 332.825 339.018 335.079L337.404 336.785C337.296 336.918 337.163 336.998 337.001 337.03C336.838 337.062 336.629 337 336.368 336.85C336.075 336.681 335.73 336.316 335.339 335.752C334.947 335.188 334.433 334.513 333.795 333.727C333.157 332.942 332.368 332.107 331.429 331.228C330.491 330.349 329.323 329.506 327.924 328.699C326.278 327.749 324.769 327.211 323.402 327.087C322.031 326.962 320.853 327.241 319.861 327.92C318.87 328.6 318.099 329.69 317.555 331.196C317.009 332.701 316.736 334.598 316.736 336.89C316.736 339.216 317.019 341.448 317.589 343.588C318.157 345.729 318.94 347.718 319.94 349.555C320.941 351.392 322.118 353.031 323.472 354.47C324.825 355.908 326.286 357.08 327.854 357.987C328.807 358.537 329.666 358.964 330.427 359.27C331.188 359.577 331.886 359.783 332.525 359.884C333.163 359.986 333.767 359.994 334.335 359.904C334.905 359.816 335.465 359.635 336.019 359.37C336.142 359.316 336.274 359.29 336.412 359.29C336.551 359.29 336.697 359.334 336.85 359.424ZM336.85 359.424C337.127 359.583 337.364 359.844 337.565 360.209L339.505 363.78C338.149 364.847 336.501 365.323 334.556 365.211C332.611 365.1 330.269 364.255 327.531 362.674C325.132 361.289 322.959 359.555 321.014 357.473C319.069 355.39 317.409 353.09 316.032 350.573C314.655 348.056 313.591 345.382 312.838 342.55C312.084 339.718 311.706 336.862 311.706 333.987C311.706 331.111 312.102 328.703 312.893 326.762C313.685 324.823 314.799 323.402 316.227 322.505C317.658 321.609 319.366 321.256 321.359 321.447C323.352 321.638 325.554 322.43 327.97 323.825C330.321 325.184 332.412 326.834 334.243 328.779C336.073 330.722 337.665 332.825 339.018 335.079L337.404 336.785C337.296 336.918 337.163 336.998 337.001 337.03C336.838 337.062 336.629 337 336.368 336.85C336.075 336.681 335.73 336.316 335.339 335.752C334.947 335.188 334.433 334.513 333.795 333.727C333.157 332.942 332.368 332.107 331.429 331.228C330.491 330.349 329.323 329.506 327.924 328.699C326.278 327.749 324.769 327.211 323.402 327.087C322.031 326.962 320.853 327.241 319.861 327.92C318.87 328.6 318.099 329.69 317.555 331.196C317.009 332.701 316.736 334.598 316.736 336.89C316.736 339.216 317.019 341.448 317.589 343.588C318.157 345.729 318.94 347.718 319.94 349.555C320.941 351.392 322.118 353.031 323.472 354.47C324.825 355.908 326.286 357.08 327.854 357.987C328.807 358.537 329.666 358.964 330.427 359.27C331.188 359.577 331.886 359.783 332.525 359.884C333.163 359.986 333.767 359.994 334.335 359.904C334.905 359.816 335.465 359.635 336.019 359.37C336.142 359.316 336.274 359.29 336.412 359.29C336.551 359.29 336.697 359.334 336.85 359.424Z" fill="#36F6D3"/>
<path d="M361.602 349.902C361.448 350.115 361.287 350.245 361.118 350.289C360.948 350.332 360.733 350.279 360.472 350.127C360.195 349.968 359.88 349.639 359.527 349.143C359.172 348.644 358.73 348.061 358.2 347.391C357.67 346.721 357.034 346.026 356.297 345.306C355.559 344.587 354.672 343.929 353.642 343.335C352.674 342.777 351.825 342.431 351.095 342.303C350.364 342.173 349.752 342.221 349.26 342.443C348.768 342.664 348.395 343.044 348.142 343.582C347.887 344.119 347.761 344.788 347.761 345.587C347.761 346.618 347.988 347.6 348.441 348.537C348.895 349.473 349.493 350.396 350.23 351.301C350.968 352.208 351.805 353.107 352.743 354.003C353.682 354.9 354.643 355.823 355.627 356.773C356.612 357.724 357.572 358.719 358.511 359.757C359.447 360.795 360.288 361.907 361.026 363.087C361.763 364.269 362.361 365.536 362.813 366.889C363.268 368.243 363.493 369.711 363.493 371.292C363.493 372.98 363.242 374.413 362.744 375.598C362.243 376.784 361.516 377.653 360.563 378.203C359.611 378.755 358.439 378.942 357.046 378.769C355.653 378.596 354.075 377.998 352.307 376.977C351.245 376.364 350.214 375.65 349.214 374.833C348.213 374.016 347.269 373.133 346.378 372.183C345.485 371.232 344.65 370.228 343.875 369.167C343.098 368.105 342.402 367.017 341.786 365.897L343.193 363.992C343.331 363.858 343.496 363.779 343.69 363.747C343.881 363.715 344.1 363.769 344.347 363.912C344.67 364.097 345.043 364.51 345.465 365.144C345.888 365.779 346.412 366.511 347.036 367.342C347.657 368.171 348.403 369.032 349.272 369.925C350.141 370.817 351.199 371.623 352.444 372.342C353.459 372.928 354.368 373.297 355.167 373.448C355.966 373.6 356.639 373.544 357.186 373.283C357.73 373.02 358.15 372.565 358.441 371.918C358.734 371.27 358.879 370.447 358.879 369.452C358.879 368.334 358.656 367.29 358.212 366.323C357.765 365.355 357.172 364.42 356.434 363.513C355.697 362.609 354.858 361.716 353.921 360.837C352.982 359.958 352.02 359.051 351.035 358.119C350.051 357.186 349.09 356.209 348.154 355.189C347.215 354.167 346.376 353.059 345.639 351.859C344.901 350.659 344.309 349.352 343.863 347.931C343.417 346.51 343.193 344.948 343.193 343.244C343.193 341.877 343.425 340.685 343.885 339.672C344.347 338.66 345.019 337.917 345.904 337.442C346.787 336.968 347.875 336.805 349.168 336.956C350.459 337.108 351.938 337.664 353.598 338.622C355.458 339.696 357.17 341.026 358.73 342.61C360.29 344.196 361.648 345.96 362.802 347.905L361.602 349.902ZM361.602 349.902C361.448 350.115 361.287 350.245 361.118 350.289C360.948 350.332 360.733 350.279 360.472 350.127C360.195 349.968 359.88 349.639 359.527 349.143C359.172 348.644 358.73 348.061 358.2 347.391C357.67 346.721 357.034 346.026 356.297 345.306C355.559 344.587 354.672 343.929 353.642 343.335C352.674 342.777 351.825 342.431 351.095 342.303C350.364 342.173 349.752 342.221 349.26 342.443C348.768 342.664 348.395 343.044 348.142 343.582C347.887 344.119 347.761 344.788 347.761 345.587C347.761 346.618 347.988 347.6 348.441 348.537C348.895 349.473 349.493 350.396 350.23 351.301C350.968 352.208 351.805 353.107 352.743 354.003C353.682 354.9 354.643 355.823 355.627 356.773C356.612 357.724 357.572 358.719 358.511 359.757C359.447 360.795 360.288 361.907 361.026 363.087C361.763 364.269 362.361 365.536 362.813 366.889C363.268 368.243 363.493 369.711 363.493 371.292C363.493 372.98 363.242 374.413 362.744 375.598C362.243 376.784 361.516 377.653 360.563 378.203C359.611 378.755 358.439 378.942 357.046 378.769C355.653 378.596 354.075 377.998 352.307 376.977C351.245 376.364 350.214 375.65 349.214 374.833C348.213 374.016 347.269 373.133 346.378 372.183C345.485 371.232 344.65 370.228 343.875 369.167C343.098 368.105 342.402 367.017 341.786 365.897L343.193 363.992C343.331 363.858 343.496 363.779 343.69 363.747C343.881 363.715 344.1 363.769 344.347 363.912C344.67 364.097 345.043 364.51 345.465 365.144C345.888 365.779 346.412 366.511 347.036 367.342C347.657 368.171 348.403 369.032 349.272 369.925C350.141 370.817 351.199 371.623 352.444 372.342C353.459 372.928 354.368 373.297 355.167 373.448C355.966 373.6 356.639 373.544 357.186 373.283C357.73 373.02 358.15 372.565 358.441 371.918C358.734 371.27 358.879 370.447 358.879 369.452C358.879 368.334 358.656 367.29 358.212 366.323C357.765 365.355 357.172 364.42 356.434 363.513C355.697 362.609 354.858 361.716 353.921 360.837C352.982 359.958 352.02 359.051 351.035 358.119C350.051 357.186 349.09 356.209 348.154 355.189C347.215 354.167 346.376 353.059 345.639 351.859C344.901 350.659 344.309 349.352 343.863 347.931C343.417 346.51 343.193 344.948 343.193 343.244C343.193 341.877 343.425 340.685 343.885 339.672C344.347 338.66 345.019 337.917 345.904 337.442C346.787 336.968 347.875 336.805 349.168 336.956C350.459 337.108 351.938 337.664 353.598 338.622C355.458 339.696 357.17 341.026 358.73 342.61C360.29 344.196 361.648 345.96 362.802 347.905L361.602 349.902Z" fill="#36F6D3"/>
<path d="M386.7 364.392C386.547 364.605 386.386 364.735 386.216 364.779C386.047 364.823 385.83 364.769 385.568 364.617C385.291 364.458 384.977 364.129 384.624 363.633C384.269 363.135 383.827 362.551 383.297 361.881C382.766 361.212 382.133 360.516 381.395 359.797C380.658 359.077 379.771 358.419 378.741 357.826C377.772 357.268 376.923 356.921 376.194 356.793C375.462 356.664 374.851 356.714 374.358 356.935C373.866 357.156 373.493 357.537 373.24 358.073C372.985 358.611 372.86 359.276 372.86 360.076C372.86 361.106 373.087 362.09 373.539 363.027C373.994 363.964 374.59 364.886 375.327 365.791C376.064 366.698 376.903 367.597 377.842 368.494C378.781 369.39 379.741 370.313 380.726 371.264C381.71 372.214 382.671 373.207 383.609 374.247C384.546 375.285 385.385 376.397 386.123 377.577C386.86 378.759 387.456 380.026 387.91 381.38C388.365 382.733 388.592 384.202 388.592 385.782C388.592 387.468 388.341 388.903 387.842 390.089C387.342 391.274 386.615 392.143 385.662 392.693C384.71 393.245 383.536 393.433 382.143 393.259C380.752 393.086 379.171 392.488 377.404 391.468C376.341 390.854 375.313 390.14 374.313 389.323C373.312 388.506 372.366 387.623 371.475 386.673C370.582 385.722 369.747 384.718 368.972 383.658C368.194 382.595 367.499 381.505 366.883 380.387L368.292 378.482C368.43 378.348 368.595 378.269 368.788 378.237C368.98 378.205 369.199 378.259 369.446 378.402C369.769 378.59 370.141 379 370.564 379.634C370.986 380.27 371.509 381.001 372.132 381.832C372.754 382.661 373.501 383.522 374.37 384.415C375.239 385.308 376.298 386.113 377.543 386.832C378.557 387.418 379.464 387.787 380.263 387.938C381.063 388.088 381.736 388.034 382.282 387.773C382.826 387.51 383.247 387.055 383.54 386.408C383.831 385.76 383.978 384.937 383.978 383.943C383.978 382.823 383.755 381.78 383.311 380.814C382.864 379.845 382.27 378.908 381.533 378.002C380.795 377.097 379.954 376.206 379.018 375.327C378.079 374.448 377.119 373.542 376.134 372.609C375.15 371.676 374.187 370.7 373.25 369.679C372.312 368.657 371.475 367.549 370.737 366.349C370 365.149 369.406 363.842 368.96 362.421C368.513 361 368.292 359.438 368.292 357.734C368.292 356.367 368.523 355.177 368.984 354.165C369.446 353.152 370.118 352.407 371.002 351.933C371.885 351.458 372.973 351.295 374.267 351.446C375.558 351.598 377.035 352.154 378.695 353.112C380.554 354.187 382.268 355.516 383.829 357.1C385.389 358.687 386.746 360.45 387.9 362.395L386.7 364.392ZM386.7 364.392C386.547 364.605 386.386 364.735 386.216 364.779C386.047 364.823 385.83 364.769 385.568 364.617C385.291 364.458 384.977 364.129 384.624 363.633C384.269 363.135 383.827 362.551 383.297 361.881C382.766 361.212 382.133 360.516 381.395 359.797C380.658 359.077 379.771 358.419 378.741 357.826C377.772 357.268 376.923 356.921 376.194 356.793C375.462 356.664 374.851 356.714 374.358 356.935C373.866 357.156 373.493 357.537 373.24 358.073C372.985 358.611 372.86 359.276 372.86 360.076C372.86 361.106 373.087 362.09 373.539 363.027C373.994 363.964 374.59 364.886 375.327 365.791C376.064 366.698 376.903 367.597 377.842 368.494C378.781 369.39 379.741 370.313 380.726 371.264C381.71 372.214 382.671 373.207 383.609 374.247C384.546 375.285 385.385 376.397 386.123 377.577C386.86 378.759 387.456 380.026 387.91 381.38C388.365 382.733 388.592 384.202 388.592 385.782C388.592 387.468 388.341 388.903 387.842 390.089C387.342 391.274 386.615 392.143 385.662 392.693C384.71 393.245 383.536 393.433 382.143 393.259C380.752 393.086 379.171 392.488 377.404 391.468C376.341 390.854 375.313 390.14 374.313 389.323C373.312 388.506 372.366 387.623 371.475 386.673C370.582 385.722 369.747 384.718 368.972 383.658C368.194 382.595 367.499 381.505 366.883 380.387L368.292 378.482C368.43 378.348 368.595 378.269 368.788 378.237C368.98 378.205 369.199 378.259 369.446 378.402C369.769 378.59 370.141 379 370.564 379.634C370.986 380.27 371.509 381.001 372.132 381.832C372.754 382.661 373.501 383.522 374.37 384.415C375.239 385.308 376.298 386.113 377.543 386.832C378.557 387.418 379.464 387.787 380.263 387.938C381.063 388.088 381.736 388.034 382.282 387.773C382.826 387.51 383.247 387.055 383.54 386.408C383.831 385.76 383.978 384.937 383.978 383.943C383.978 382.823 383.755 381.78 383.311 380.814C382.864 379.845 382.27 378.908 381.533 378.002C380.795 377.097 379.954 376.206 379.018 375.327C378.079 374.448 377.119 373.542 376.134 372.609C375.15 371.676 374.187 370.7 373.25 369.679C372.312 368.657 371.475 367.549 370.737 366.349C370 365.149 369.406 363.842 368.96 362.421C368.513 361 368.292 359.438 368.292 357.734C368.292 356.367 368.523 355.177 368.984 354.165C369.446 353.152 370.118 352.407 371.002 351.933C371.885 351.458 372.973 351.295 374.267 351.446C375.558 351.598 377.035 352.154 378.695 353.112C380.554 354.187 382.268 355.516 383.829 357.1C385.389 358.687 386.746 360.45 387.9 362.395L386.7 364.392Z" fill="#36F6D3"/>
<path d="M863.645 355.583L781.042 309.346V232.6L863.645 278.839V355.583ZM863.645 355.583L781.042 309.346V232.6L863.645 278.839V355.583Z" fill="#05231E"/>
<path d="M814.257 295.181C814.257 297.311 814.028 299.097 813.566 300.536C813.106 301.974 812.43 303.029 811.547 303.698C810.662 304.368 809.562 304.639 808.247 304.509C806.933 304.382 805.423 303.826 803.715 302.839C802.176 301.953 800.594 300.789 798.964 299.35L799.241 296.153C799.271 295.85 799.376 295.649 799.552 295.547C799.729 295.446 799.992 295.496 800.347 295.701C800.608 295.85 800.967 296.133 801.419 296.546C801.872 296.958 802.469 297.377 803.207 297.803C804.191 298.371 805.066 298.708 805.827 298.81C806.587 298.911 807.23 298.754 807.753 298.337C808.275 297.919 808.671 297.229 808.94 296.267C809.209 295.302 809.345 294.041 809.345 292.478V267.414L814.257 270.249V295.181ZM814.257 295.181C814.257 297.311 814.028 299.097 813.566 300.536C813.106 301.974 812.43 303.029 811.547 303.698C810.662 304.368 809.562 304.639 808.247 304.509C806.933 304.382 805.423 303.826 803.715 302.839C802.176 301.953 800.594 300.789 798.964 299.35L799.241 296.153C799.271 295.85 799.376 295.649 799.552 295.547C799.729 295.446 799.992 295.496 800.347 295.701C800.608 295.85 800.967 296.133 801.419 296.546C801.872 296.958 802.469 297.377 803.207 297.803C804.191 298.371 805.066 298.708 805.827 298.81C806.587 298.911 807.23 298.754 807.753 298.337C808.275 297.919 808.671 297.229 808.94 296.267C809.209 295.302 809.345 294.041 809.345 292.478V267.414L814.257 270.249V295.181Z" fill="white"/>
<path d="M839.24 290.906C839.087 291.119 838.926 291.249 838.756 291.292C838.587 291.336 838.372 291.285 838.11 291.133C837.833 290.974 837.519 290.645 837.166 290.149C836.811 289.65 836.369 289.066 835.839 288.397C835.308 287.727 834.673 287.032 833.935 286.312C833.198 285.593 832.311 284.933 831.281 284.339C830.312 283.781 829.463 283.436 828.734 283.309C828.002 283.179 827.391 283.227 826.898 283.448C826.406 283.67 826.034 284.048 825.78 284.586C825.525 285.122 825.4 285.792 825.4 286.591C825.4 287.622 825.625 288.604 826.079 289.541C826.534 290.477 827.132 291.4 827.869 292.305C828.606 293.212 829.443 294.11 830.382 295.007C831.321 295.904 832.281 296.829 833.266 297.779C834.25 298.73 835.211 299.724 836.149 300.763C837.086 301.801 837.925 302.911 838.663 304.091C839.4 305.273 840 306.54 840.452 307.893C840.905 309.249 841.132 310.715 841.132 312.296C841.132 313.982 840.881 315.419 840.382 316.604C839.882 317.79 839.155 318.657 838.202 319.207C837.25 319.759 836.078 319.946 834.685 319.773C833.292 319.6 831.713 319.002 829.946 317.981C828.883 317.368 827.853 316.654 826.853 315.837C825.852 315.02 824.908 314.139 824.017 313.188C823.124 312.238 822.289 311.231 821.514 310.171C820.736 309.109 820.041 308.019 819.425 306.901L820.832 304.998C820.97 304.864 821.135 304.782 821.328 304.751C821.52 304.719 821.739 304.772 821.986 304.916C822.309 305.103 822.681 305.516 823.104 306.15C823.526 306.785 824.051 307.517 824.674 308.348C825.296 309.177 826.041 310.038 826.91 310.931C827.779 311.823 828.838 312.628 830.083 313.348C831.097 313.934 832.006 314.303 832.805 314.454C833.605 314.603 834.278 314.548 834.824 314.287C835.368 314.024 835.787 313.569 836.08 312.921C836.371 312.274 836.518 311.453 836.518 310.458C836.518 309.34 836.295 308.294 835.851 307.327C835.404 306.359 834.81 305.424 834.073 304.517C833.336 303.613 832.496 302.72 831.56 301.841C830.621 300.962 829.659 300.055 828.674 299.123C827.69 298.19 826.729 297.213 825.792 296.193C824.854 295.171 824.015 294.065 823.277 292.865C822.54 291.665 821.948 290.356 821.502 288.935C821.055 287.514 820.832 285.952 820.832 284.248C820.832 282.88 821.063 281.691 821.524 280.678C821.986 279.666 822.658 278.921 823.542 278.446C824.425 277.972 825.513 277.811 826.807 277.962C828.098 278.113 829.577 278.667 831.237 279.626C833.096 280.7 834.808 282.029 836.369 283.614C837.929 285.2 839.286 286.964 840.44 288.909L839.24 290.906ZM839.24 290.906C839.087 291.119 838.926 291.249 838.756 291.292C838.587 291.336 838.372 291.285 838.11 291.133C837.833 290.974 837.519 290.645 837.166 290.149C836.811 289.65 836.369 289.066 835.839 288.397C835.308 287.727 834.673 287.032 833.935 286.312C833.198 285.593 832.311 284.933 831.281 284.339C830.312 283.781 829.463 283.436 828.734 283.309C828.002 283.179 827.391 283.227 826.898 283.448C826.406 283.67 826.034 284.048 825.78 284.586C825.525 285.122 825.4 285.792 825.4 286.591C825.4 287.622 825.625 288.604 826.079 289.541C826.534 290.477 827.132 291.4 827.869 292.305C828.606 293.212 829.443 294.11 830.382 295.007C831.321 295.904 832.281 296.829 833.266 297.779C834.25 298.73 835.211 299.724 836.149 300.763C837.086 301.801 837.925 302.911 838.663 304.091C839.4 305.273 840 306.54 840.452 307.893C840.905 309.249 841.132 310.715 841.132 312.296C841.132 313.982 840.881 315.419 840.382 316.604C839.882 317.79 839.155 318.657 838.202 319.207C837.25 319.759 836.078 319.946 834.685 319.773C833.292 319.6 831.713 319.002 829.946 317.981C828.883 317.368 827.853 316.654 826.853 315.837C825.852 315.02 824.908 314.139 824.017 313.188C823.124 312.238 822.289 311.231 821.514 310.171C820.736 309.109 820.041 308.019 819.425 306.901L820.832 304.998C820.97 304.864 821.135 304.782 821.328 304.751C821.52 304.719 821.739 304.772 821.986 304.916C822.309 305.103 822.681 305.516 823.104 306.15C823.526 306.785 824.051 307.517 824.674 308.348C825.296 309.177 826.041 310.038 826.91 310.931C827.779 311.823 828.838 312.628 830.083 313.348C831.097 313.934 832.006 314.303 832.805 314.454C833.605 314.603 834.278 314.548 834.824 314.287C835.368 314.024 835.787 313.569 836.08 312.921C836.371 312.274 836.518 311.453 836.518 310.458C836.518 309.34 836.295 308.294 835.851 307.327C835.404 306.359 834.81 305.424 834.073 304.517C833.336 303.613 832.496 302.72 831.56 301.841C830.621 300.962 829.659 300.055 828.674 299.123C827.69 298.19 826.729 297.213 825.792 296.193C824.854 295.171 824.015 294.065 823.277 292.865C822.54 291.665 821.948 290.356 821.502 288.935C821.055 287.514 820.832 285.952 820.832 284.248C820.832 282.88 821.063 281.691 821.524 280.678C821.986 279.666 822.658 278.921 823.542 278.446C824.425 277.972 825.513 277.811 826.807 277.962C828.098 278.113 829.577 278.667 831.237 279.626C833.096 280.7 834.808 282.029 836.369 283.614C837.929 285.2 839.286 286.964 840.44 288.909L839.24 290.906Z" fill="white"/>
<path d="M214.118 954.147C214.118 958.864 210.807 964.6 206.722 966.96C202.636 969.319 199.324 967.406 199.324 962.689C199.324 957.972 202.636 952.236 206.722 949.876C210.807 947.517 214.118 949.43 214.118 954.147Z" fill="#05231E"/>
<path d="M208.043 950.367C209.488 954.857 208.091 961.332 204.924 964.827C201.757 968.323 198.019 967.518 196.574 963.028C195.129 958.538 196.526 952.061 199.693 948.565C202.859 945.07 206.598 945.877 208.043 950.367Z" fill="#05231E"/>
<path d="M343.413 822.279C343.413 822.279 344.18 847.178 347.628 855.989C351.076 864.799 359.502 864.036 366.014 863.269C372.527 862.504 388.998 850.676 397.044 842.989C405.089 835.303 421.945 836.775 435.353 817.843C448.762 798.91 435.353 790.865 431.138 790.482C426.925 790.1 404.788 807.802 387.338 800.815L343.413 822.279Z" fill="#05231E"/>
<path d="M176.763 696.748C176.763 696.748 319.277 649.839 346.354 669.208C371.69 687.332 367.575 741.83 387.338 800.816C387.849 802.34 387.789 803.992 387.141 805.465C384.098 812.374 372.942 831.177 343.052 826.287C343.052 826.287 326.481 783.139 315.221 738.097C315.221 738.097 204.207 809.634 178.903 791.088C153.599 772.542 176.763 696.748 176.763 696.748Z" fill="#4A9A8D"/>
<path d="M118.576 900.556L212.246 884.057L203.731 953.779L212.246 955.907L228.745 884.057L316.028 919.983L320.819 914.839L237.793 875.543L300.595 846.802L293.676 843.609L224.078 867.366L187.231 843.609L177.819 845.738L211.182 873.413L120.704 893.639L118.576 900.556Z" fill="#05231E"/>
<path d="M130.44 890.984C130.44 895.701 127.127 901.437 123.042 903.797C118.956 906.156 115.644 904.243 115.644 899.526C115.644 894.809 118.956 889.075 123.042 886.715C127.127 884.356 130.44 886.267 130.44 890.984Z" fill="#05231E"/>
<path d="M133.774 892.909C133.774 897.627 130.462 903.362 126.376 905.722C122.291 908.081 118.98 906.168 118.98 901.451C118.98 896.734 122.291 891 126.376 888.641C130.462 886.281 133.774 888.192 133.774 892.909Z" fill="#05231E"/>
<path d="M324.074 912.436C324.074 917.153 320.764 922.887 316.678 925.246C312.593 927.606 309.281 925.692 309.281 920.975C309.281 916.258 312.593 910.525 316.678 908.165C320.764 905.805 324.074 907.719 324.074 912.436Z" fill="#05231E"/>
<path d="M319.952 909.715C319.952 914.433 316.642 920.168 312.557 922.528C308.471 924.887 305.159 922.974 305.159 918.257C305.159 913.54 308.471 907.806 312.557 905.447C316.642 903.087 319.952 904.998 319.952 909.715Z" fill="#05231E"/>
<path d="M231.159 835.669H214.349V876.789H231.159V835.669Z" fill="#05231E"/>
<path d="M412.766 843.589C412.766 843.589 413.531 868.49 416.979 877.301C420.427 886.112 428.855 885.344 435.367 884.579C441.88 883.812 458.351 871.988 466.397 864.301C474.442 856.615 491.296 858.087 504.704 839.155C518.113 820.222 504.704 812.177 500.491 811.794C496.278 811.412 475.247 827.301 457.797 820.314L412.766 843.589Z" fill="#05231E"/>
<path d="M246.476 714.051C246.476 714.051 388.988 667.142 416.066 686.511C441.715 704.857 437.181 760.489 457.797 820.314C457.797 820.314 449.198 849.55 412.766 843.589C412.766 843.589 396.195 800.441 384.935 755.399C384.935 755.399 273.92 826.936 248.617 808.39C223.313 789.845 246.476 714.051 246.476 714.051Z" fill="#4AAA9A"/>
<path d="M363.033 774.964C358.015 802.105 311.774 835.263 231.35 847.322C228.544 847.754 201.813 853.012 178.273 848.4C193.059 820.045 232.08 772.995 219.857 726.644C248.67 731.122 367.431 751.115 363.033 774.964Z" fill="#FF8E3A"/>
<path d="M219.698 732.724L236.787 750.3C240.813 774.545 255.454 798.195 277.809 799.979L392.291 760.854V721.052L219.698 732.724Z" fill="#4AAA9A"/>
<path d="M258.346 554.939L198.985 524.876C192.877 521.784 186.127 520.094 179.28 520.181C166.746 520.343 148.545 524.528 141.418 545.912C130.081 579.924 166.794 718.136 166.794 718.136C166.794 718.136 203.673 763.755 232.827 761.595C261.981 759.435 303.925 734.872 303.925 714.357C303.925 699.722 292.582 630.837 286.079 592.555C283.323 576.325 273.033 562.377 258.346 554.939Z" fill="#05231E"/>
<path d="M286.241 467.609C286.564 467.609 293.84 469.346 297.688 470.271C298.91 470.564 299.555 471.891 299.043 473.039L296.574 478.576C295.731 480.467 293.852 481.686 291.779 481.686H283.16" stroke="#0B6F5E" stroke-width="1.49468" stroke-miterlimit="10"/>
<path d="M208.956 519.902L215.072 480.144L292.144 435.491V465.612C292.144 467.334 291.825 469.039 291.203 470.644L289.718 474.482C288.903 476.585 288.676 478.87 289.057 481.094L289.631 484.443C290.073 487.027 289.768 489.686 288.75 492.103L281.813 508.581C279.6 513.836 274.176 516.989 268.514 516.313L257.585 515.01L252.997 539.476L208.956 519.902Z" fill="#FFBC89"/>
<path d="M213.221 501.687L226.747 504.431C233.634 505.828 240.779 503.911 246.04 499.252L264.329 483.06V487.484L267.262 486.926C269.895 486.426 272.031 484.504 272.809 481.942L279.871 458.635C279.871 458.635 299.575 456.968 305.404 432.822C305.404 432.822 283.756 411.453 252.67 413.673C221.585 415.893 210.208 441.705 210.208 441.705C210.208 441.705 203.545 440.872 200.492 449.198C198.025 455.926 205.072 485.485 207.868 496.587C208.522 499.18 210.6 501.155 213.221 501.687Z" fill="#0B6F5E"/>
<path d="M263.326 493.094L265.778 480.407C265.778 480.407 263.219 474.223 257.248 476.674C251.277 479.126 253.836 494.692 257.248 495.119C260.66 495.545 263.326 493.094 263.326 493.094Z" fill="#FFBC89"/>
<path d="M265.778 480.407L297.857 478.5L299.88 473.412L263.428 477.36L265.778 480.407Z" fill="#36F6D3"/>
<path d="M242.016 781.777C246.428 827.106 200.498 861.513 158.651 843.541C119.642 826.787 91.044 789.592 82.5622 725.331C73.0919 653.783 85.8804 608.513 95.2689 586.497C99.8546 575.813 111.105 569.581 122.598 571.174C212.438 583.691 234.884 731.293 234.884 731.293C234.884 731.293 239.389 754.782 242.016 781.777Z" fill="#FF8E3A"/>
<path d="M415.43 604.977C415.43 604.977 426.202 583.494 429.644 581.567C438.305 576.716 437.107 581.555 444.046 580.04C449.152 578.926 452.891 576.881 456.902 575.797C458.278 575.426 460.103 575.855 461.685 577.063C462.929 578.011 464.023 579.438 464.631 581.333C474.115 581.872 471.973 587.47 471.973 587.47C481.238 586.511 480.61 603.646 475.49 600.981C474.292 591.296 468.397 599.814 464.342 604.977C460.294 610.129 449.712 614.593 447.203 614.593C444.694 614.593 427.136 617.937 427.136 617.937L415.43 604.977Z" fill="#FFBC89"/>
<path d="M268.031 561.301C268.031 561.301 241.44 553.638 228.578 574.733C214.317 598.122 232.827 617.126 232.827 617.126L329.259 671.632C340.326 677.888 353.965 677.407 364.567 670.392L437.856 616.403C437.856 616.403 434.295 598.068 420.104 593.901C417.156 593.036 354.121 615.916 354.121 615.916C349.894 617.786 344.991 617.264 341.253 614.545L268.031 561.301Z" fill="#05231E"/>
<path d="M330.515 584.721C330.515 584.721 341.384 563.401 344.728 561.311C348.072 559.22 375.662 558.385 378.171 557.967C380.68 557.548 385.696 562.983 385.696 562.983C385.696 562.983 394.411 563.314 396.083 563.732C397.755 564.151 406.693 568.898 403.824 571.331C402.028 572.856 397.55 570.215 391.775 570.384C386.161 570.55 377.25 573.505 375.11 576.066C366.531 586.336 392.626 578.336 392.675 581.971C392.781 589.588 364.795 594.335 362.286 594.335C359.777 594.335 342.219 597.679 342.219 597.679L330.515 584.721Z" fill="#FFBC89"/>
<path d="M262.238 592.607L333.112 576.202C347.646 576.202 349.784 596.966 349.784 596.966L300.912 631.604L262.238 592.607Z" fill="#05231E"/>
<path d="M303.926 840.122C303.926 844.839 300.615 850.572 296.53 852.932C292.445 855.291 289.132 853.38 289.132 848.663C289.132 843.946 292.445 838.21 296.53 835.851C300.615 833.491 303.926 835.404 303.926 840.122Z" fill="#05231E"/>
<path d="M300.526 838.158C300.526 842.876 297.214 848.609 293.128 850.969C289.043 853.328 285.732 851.415 285.732 846.698C285.732 841.981 289.043 836.247 293.128 833.888C297.214 831.528 300.526 833.441 300.526 838.158Z" fill="#05231E"/>
<path d="M363.033 774.964C275.537 824.669 249.422 788.444 242.311 771.036C240.42 766.408 239.874 763.108 239.874 763.108C239.874 763.108 222.113 671.022 198.332 628.543C178.273 592.713 151.522 568.882 109.833 567.622" stroke="white" stroke-width="7.9716" stroke-miterlimit="10" stroke-linecap="round"/>
<path d="M209.643 513.483L198.985 524.877L258.346 554.939L254.201 533.053L209.643 513.483Z" fill="#4AAA9A"/>
<path d="M99.3157 120.649L103.602 158.758L127.359 179.53L151.495 174.144L156.158 138.942L127.359 119.872L99.3157 120.649Z" fill="#E15131"/>
<path d="M127.36 179.53L151.495 174.166L156.158 138.941L127.36 119.872V179.53Z" fill="#A94F3B"/>
<path d="M122.254 149.723L127.449 139.195L133.355 153.329L122.254 149.723ZM109.931 159.65L116.459 161.661L119.967 154.12L135.642 159.215L139.483 169.252L145.723 171.39L127.404 126.852L109.931 159.65Z" fill="white"/>
<path d="M776.595 601.522L816.256 542.474L785.716 532.551L776.595 546.268L767.275 526.559L736.934 516.701L776.595 601.522Z" fill="#00C1A2"/>
<path d="M776.595 601.522L816.256 542.474L800.391 537.32L776.595 572.748L752.601 521.792L736.934 516.701L776.595 601.522Z" fill="#00C1A2"/>
<path d="M776.596 572.957L800.391 537.32L785.717 532.551L776.596 546.268L767.276 526.559L764.984 525.815L752.601 521.792L776.596 572.957Z" fill="#355E57"/>
<path d="M357.83 159.961C360.938 160.971 363.457 159.14 363.457 155.872C363.457 152.604 360.938 149.137 357.83 148.127C354.722 147.117 352.203 148.948 352.203 152.215C352.203 155.483 354.722 158.951 357.83 159.961Z" fill="#00DDB3"/>
<path d="M357.83 167.612C351.066 165.586 344.32 162.434 337.843 158.276C334.85 156.306 332.058 153.829 329.61 150.968C328.675 149.959 327.898 148.796 327.33 147.56C326.761 146.324 326.415 145.043 326.317 143.806C326.317 139.894 330.404 137.387 337.252 137.103C343.903 137.041 350.852 138.222 357.83 140.599C364.715 142.735 371.571 146.021 378.138 150.332C381.02 152.234 383.716 154.605 386.102 157.336C387.021 158.307 387.787 159.433 388.347 160.633C388.907 161.834 389.248 163.081 389.345 164.284C389.345 168.351 384.775 170.986 377.414 171.155C371.062 171.077 364.457 169.883 357.83 167.612ZM357.83 143.429C351.154 141.166 344.506 140.031 338.136 140.065C331.834 140.33 329.009 142.573 329.009 144.672C329.009 146.869 332.045 151.31 338.713 155.873C344.91 159.842 351.362 162.847 357.83 164.78C364.17 166.959 370.489 168.111 376.569 168.194C383.491 168.031 386.643 165.599 386.643 163.407C386.53 162.618 386.269 161.814 385.878 161.046C385.487 160.278 384.972 159.563 384.369 158.945C382.234 156.517 379.827 154.408 377.255 152.718C370.972 148.602 364.414 145.467 357.83 143.429Z" fill="#00DDB3"/>
<path d="M345.044 179.401C343.994 179.086 342.956 178.48 342.037 177.648C338.813 174.646 337.697 168.645 339.05 161.594C340.541 154.909 343.126 148.881 346.703 143.743C350.059 138.511 354.354 134.191 359.428 130.945C361.663 129.529 364.242 128.657 367.045 128.371C368.059 128.201 369.165 128.302 370.284 128.665C371.404 129.029 372.51 129.647 373.523 130.476C376.875 133.596 377.985 140.177 376.42 147.652C374.883 153.932 372.365 159.606 368.956 164.476C365.719 169.67 361.558 173.985 356.63 177.258C354.313 178.732 351.624 179.615 348.7 179.862C347.529 179.939 346.293 179.783 345.044 179.401ZM349.035 145.906C345.623 150.831 343.146 156.593 341.697 162.974C340.452 169.469 341.647 174.007 343.385 175.627C345.186 177.308 349.557 177.689 354.865 174.538C359.57 171.397 363.541 167.263 366.631 162.29C369.897 157.637 372.312 152.215 373.791 146.213C375.263 139.176 373.991 134.162 372.186 132.482C371.51 131.99 370.786 131.633 370.063 131.434C369.339 131.235 368.63 131.198 367.981 131.327C365.487 131.598 363.193 132.39 361.206 133.665C356.359 136.778 352.255 140.917 349.051 145.925L349.035 145.906Z" fill="#00DDB3"/>
<path d="M370.609 187.739C367.559 186.748 363.685 183.55 359.652 178.592C354.489 171.975 350.121 164.772 346.715 157.26C343.183 149.898 340.619 142.296 339.121 134.743C338.471 131.423 338.35 128.177 338.765 125.159C338.861 124.021 339.199 122.998 339.757 122.163C340.315 121.327 341.078 120.698 341.993 120.322C345.34 119.372 351.019 123.311 356.815 130.605C361.634 136.957 365.726 143.821 368.948 150.959C372.478 158.175 375.069 165.638 376.624 173.067C377.302 176.511 377.406 179.872 376.932 182.98C376.819 184.147 376.46 185.194 375.88 186.049C375.3 186.904 374.511 187.548 373.569 187.935C372.665 188.168 371.643 188.1 370.609 187.739ZM349.045 156.592C352.312 163.775 356.485 170.667 361.407 177.008C366.47 183.233 370.485 185.521 372.212 185.015C374.013 184.499 375.341 180.439 373.972 172.726C372.473 165.628 369.988 158.501 366.609 151.609C363.534 144.781 359.628 138.212 355.028 132.131C349.572 125.265 345.146 122.689 343.343 123.202C342.781 123.499 342.32 123.946 341.989 124.515C341.658 125.085 341.464 125.765 341.419 126.51C341.061 129.206 341.177 132.1 341.763 135.06C343.205 142.285 345.663 149.556 349.047 156.597L349.045 156.592Z" fill="#00DDB3"/>
<path d="M747.438 392.122V422.122V452.122L804.254 471.408V411.408L747.438 392.122Z" fill="#21AA93"/>
<path d="M760.003 426.586L759.985 429.037L767.38 431.547V453.738L772.61 455.513V433.323L780.005 435.833V433.424C780.005 432.09 779.978 430.967 779.942 430.926C779.915 430.879 775.415 429.332 769.959 427.489L760.03 424.147L760.003 426.586Z" fill="white"/>
<path d="M793.283 435.366C794.726 436.237 795.826 437.286 796.836 438.734C797.359 439.502 798.135 440.842 798.198 441.12C798.216 441.202 795.745 442.116 794.248 442.589C794.194 442.609 793.977 442.287 793.734 441.824C793.003 440.452 792.237 439.706 791.064 439.223C789.342 438.514 788.233 439.09 788.242 440.683C788.242 441.15 788.305 441.447 788.485 441.89C788.864 442.847 789.567 443.581 791.777 445.34C795.844 448.569 797.585 450.379 798.667 452.479C799.875 454.823 800.146 458 799.325 460.017C798.424 462.206 796.187 463.142 793.039 462.636C792.065 462.486 789.757 461.674 788.711 461.119C786.429 459.916 784.265 457.991 782.93 455.976C782.407 455.188 781.388 453.252 781.451 453.159C781.478 453.13 781.712 453.057 781.974 452.984C782.226 452.918 783.182 452.661 784.084 452.415L785.717 451.969L786.059 452.619C786.537 453.552 787.583 454.965 788.215 455.531C790.027 457.156 792.516 457.858 793.743 457.112C794.266 456.785 794.482 456.335 794.482 455.563C794.482 454.868 794.401 454.536 794.058 453.896C793.617 453.079 792.715 452.211 790.153 450.171C787.223 447.842 785.96 446.585 784.806 444.879C784.138 443.891 783.507 442.457 783.245 441.349C783.029 440.428 782.975 438.286 783.146 437.487C783.751 434.701 785.888 433.342 788.972 433.769C789.973 433.909 792.3 434.775 793.283 435.366Z" fill="white"/>
<path d="M847.732 759.364C847.732 758.212 847.299 756.96 846.528 755.883C845.756 754.807 844.709 753.995 843.619 753.625C843.474 753.576 843.33 753.534 843.186 753.501L848.836 737.822L824.828 729.673L830.469 749.169C830.387 749.141 830.304 749.104 830.22 749.076C829.238 748.742 828.288 748.79 827.541 749.21C826.795 749.631 826.302 750.398 826.152 751.371C826 752.345 826.201 753.462 826.719 754.519C827.236 755.577 828.035 756.504 828.971 757.135C828.096 758.43 827.008 759.507 825.738 760.336C824.085 761.443 822.121 762.064 819.972 762.158C818.768 761.146 817.826 759.763 817.338 758.288C816.85 756.813 816.852 755.357 817.344 754.216C817.466 753.958 817.59 753.695 817.707 753.431C818.624 753.514 819.439 753.238 820.016 752.647C820.593 752.057 820.897 751.188 820.877 750.186C820.857 749.186 820.515 748.111 819.907 747.145C819.299 746.178 818.461 745.379 817.536 744.878C816.611 744.377 815.652 744.205 814.822 744.392C813.992 744.579 813.339 745.114 812.972 745.906C812.607 746.698 812.548 747.701 812.81 748.745C813.071 749.79 813.636 750.814 814.408 751.645C813.096 753.713 812.092 756.055 811.426 758.612C810.868 761.981 811.426 765.945 814.338 769.068C821.124 776.34 828.494 770.794 836.262 771.409C839.077 771.631 842.168 772.798 844.647 772.123C845.543 771.888 846.314 771.41 846.908 770.722C847.503 770.034 847.905 769.155 848.086 768.145C848.251 767.179 848.219 766.122 847.993 765.037C847.768 763.952 847.354 762.862 846.774 761.83C847.393 761.258 847.732 760.386 847.731 759.368L847.732 759.364ZM834.335 754.84V754.825C834.336 754.078 834.154 753.281 833.807 752.512C833.46 751.743 832.957 751.026 832.352 750.434L836.841 742.357L841.338 753.574C840.774 753.778 840.311 754.159 839.992 754.682C839.672 755.203 839.506 755.851 839.507 756.567V756.662L834.335 754.84Z" fill="#D92500"/>
<path d="M848.737 759.705C848.736 758.446 848.319 757.084 847.557 755.857C846.796 754.629 845.737 753.611 844.566 752.979L850.239 737.238L823.427 728.137L829.109 747.767C828.117 747.665 827.213 747.899 826.514 748.44C825.814 748.982 825.351 749.805 825.182 750.806C825.012 751.806 825.144 752.939 825.563 754.059C825.981 755.179 826.668 756.236 827.532 757.095C826.817 757.972 825.987 758.722 825.056 759.331C823.615 760.298 821.921 760.872 820.068 761.022C819.199 760.194 818.54 759.125 818.212 758.01C817.884 756.894 817.908 755.808 818.28 754.948L818.342 754.814L818.46 754.562C819.512 754.534 820.415 754.105 821.035 753.338C821.655 752.572 821.957 751.511 821.896 750.317C821.833 749.122 821.41 747.858 820.691 746.716C819.972 745.574 818.995 744.618 817.909 743.99C816.823 743.362 815.688 743.098 814.673 743.238C813.659 743.378 812.82 743.914 812.287 744.765C811.753 745.615 811.552 746.734 811.715 747.953C811.877 749.171 812.396 750.422 813.188 751.516C813.018 751.843 812.837 752.172 812.652 752.511C811.629 754.15 810.886 756.031 810.444 758.094C809.71 762.512 810.893 766.652 813.775 769.739C815.322 771.432 817.178 772.688 819.08 773.328C822.444 774.47 825.848 773.841 829.18 773.225C831.508 772.678 833.964 772.44 836.506 772.515C837.416 772.587 838.354 772.762 839.347 772.948C841.369 773.463 843.341 773.551 845.154 773.206C846.177 772.936 847.059 772.389 847.737 771.602C848.416 770.815 848.873 769.81 849.08 768.655C849.415 766.688 849.028 764.418 847.99 762.263C848.481 761.583 848.74 760.698 848.739 759.704L848.737 759.705ZM846.728 759.023C846.728 759.673 846.545 760.246 846.204 760.67C845.862 761.094 845.377 761.35 844.809 761.405C844.241 761.461 843.616 761.314 843.012 760.982C842.409 760.65 841.856 760.15 841.421 759.543C840.986 758.937 840.689 758.251 840.569 757.574C840.449 756.896 840.511 756.256 840.746 755.736C840.982 755.216 841.38 754.838 841.892 754.651C842.403 754.464 843.004 754.476 843.62 754.685C844.444 754.966 845.233 755.58 845.816 756.393C846.4 757.206 846.728 758.153 846.728 759.023ZM847.433 738.408L842.424 752.307C842.209 752.29 841.999 752.287 841.792 752.302L836.845 739.955L831.882 748.874C831.666 748.721 831.445 748.582 831.221 748.459L826.228 731.21L847.433 738.408ZM830.22 750.136C830.835 750.345 831.436 750.742 831.948 751.276C832.459 751.81 832.857 752.458 833.092 753.138C833.328 753.818 833.39 754.499 833.27 755.095C833.15 755.691 832.853 756.176 832.418 756.487C831.984 756.799 831.43 756.924 830.827 756.846C830.224 756.767 829.598 756.49 829.03 756.049C828.462 755.608 827.976 755.022 827.635 754.366C827.293 753.71 827.111 753.014 827.111 752.364C827.112 751.494 827.44 750.77 828.023 750.353C828.606 749.935 829.396 749.858 830.22 750.136ZM816.77 745.602C817.385 745.811 817.988 746.209 818.499 746.743C819.01 747.278 819.408 747.927 819.642 748.607C819.877 749.287 819.939 749.969 819.818 750.565C819.697 751.161 819.4 751.645 818.964 751.955C818.529 752.266 817.973 752.39 817.37 752.31C816.766 752.231 816.141 751.953 815.573 751.51C815.005 751.067 814.521 750.481 814.18 749.824C813.84 749.167 813.658 748.47 813.66 747.822C813.66 746.951 813.989 746.228 814.572 745.81C815.155 745.393 815.944 745.314 816.768 745.594L816.77 745.602ZM847.099 767.621C846.943 768.486 846.597 769.241 846.087 769.83C845.577 770.418 844.914 770.827 844.146 771.029C842.552 771.305 840.826 771.21 839.06 770.75C838.062 770.563 837.032 770.37 836.024 770.291C833.339 770.201 830.746 770.446 828.29 771.021C823.297 771.944 818.979 772.74 814.92 768.387C811.942 765.196 812.078 761.21 812.425 759.118C812.834 757.245 813.516 755.538 814.449 754.05L814.875 753.262C815.299 753.585 815.744 753.854 816.197 754.061C815.796 755.423 815.908 757.061 816.515 758.686C817.121 760.312 818.183 761.82 819.512 762.945L819.899 763.286L820.308 763.271C822.588 763.176 824.67 762.521 826.423 761.347C827.58 760.59 828.597 759.637 829.449 758.51C830.54 759.055 831.656 759.232 832.628 759.013C833.602 758.794 834.38 758.193 834.849 757.297C835.318 756.401 835.452 755.26 835.23 754.043C835.008 752.826 834.441 751.599 833.616 750.546L836.833 744.77L840.082 752.872C839.157 753.499 838.603 754.585 838.527 755.913C838.451 757.24 838.859 758.714 839.672 760.039C840.484 761.365 841.641 762.446 842.913 763.068C844.184 763.69 845.477 763.806 846.535 763.396C847.12 764.844 847.316 766.324 847.094 767.622L847.099 767.621Z" fill="white"/>
<path d="M572.568 116.465L581.352 128.556L618.518 101.553L600.95 95.8442L572.568 116.465Z" fill="#46FBDA"/>
<path d="M600.751 123.299L585.554 134.34L594.373 146.615L603.141 140.244L618.518 129.072L600.751 123.299Z" fill="#46FBDA"/>
<path d="M594.373 146.615L601.047 155.803L618.517 161.48L603.14 140.244L594.373 146.615Z" fill="#2B7266"/>
<path d="M585.456 134.412L594.241 128.031L603.14 140.246L594.372 146.615L585.456 134.412Z" fill="#06F3C8"/>
</g>
</g>
<defs>
<clipPath id="clip0_303_5487">
<rect width="1000" height="1000" fill="white" transform="translate(0.0666504 0.12207)"/>
</clipPath>
</defs>
</svg>
