<svg width="1080" height="1080" viewBox="0 0 1080 1080" fill="none" xmlns="http://www.w3.org/2000/svg">
<g clip-path="url(#clip0_278_6016)">
<mask id="mask0_278_6016" style="mask-type:luminance" maskUnits="userSpaceOnUse" x="0" y="0" width="1080" height="1080">
<path d="M1080 0H0V1080H1080V0Z" fill="white"/>
</mask>
<g mask="url(#mask0_278_6016)">
<mask id="mask1_278_6016" style="mask-type:luminance" maskUnits="userSpaceOnUse" x="0" y="0" width="1080" height="1080">
<path d="M0 0H1080V1080H0V0Z" fill="white"/>
</mask>
<g mask="url(#mask1_278_6016)">
<path d="M810.611 558.712C810.611 708.164 689.454 829.319 540.002 829.319C390.548 829.319 269.391 708.164 269.391 558.712C269.391 409.257 390.548 288.101 540.002 288.101C689.454 288.101 810.611 409.257 810.611 558.712Z" fill="#083921"/>
<path d="M830.834 558.712C830.834 719.333 700.622 849.544 540.002 849.544C379.378 849.544 249.172 719.333 249.172 558.712C249.172 398.088 379.378 267.879 540.002 267.879C700.622 267.879 830.834 398.088 830.834 558.712Z" stroke="#52CC99" stroke-width="3.76" stroke-miterlimit="10"/>
<path d="M755.437 414.972C734.649 414.972 717.736 398.059 717.736 377.271C717.736 356.481 734.649 339.57 755.437 339.57C776.225 339.57 793.134 356.481 793.134 377.271C793.134 398.059 776.225 414.972 755.437 414.972Z" fill="#52CC99"/>
<path d="M755.437 341.262C775.324 341.262 791.442 357.383 791.442 377.271C791.442 397.159 775.324 413.28 755.437 413.28C735.549 413.28 719.428 397.159 719.428 377.271C719.428 357.383 735.549 341.262 755.437 341.262ZM755.437 337.878C733.715 337.878 716.044 355.549 716.044 377.271C716.044 398.993 733.715 416.664 755.437 416.664C777.159 416.664 794.826 398.993 794.826 377.271C794.826 355.549 777.159 337.878 755.437 337.878Z" fill="white"/>
<path d="M740.275 384.013L742.454 381.393C743.574 382.924 744.928 383.748 746.547 383.748C748.669 383.748 749.757 382.484 749.757 379.951V369.29H742.425V366.077H753.584V379.743C753.584 384.602 751.169 386.99 746.635 386.99C744.044 386.99 741.689 385.927 740.275 384.013Z" fill="white"/>
<path d="M756.806 385.132L758.218 382.337C759.604 383.249 761.724 383.898 763.697 383.898C766.024 383.898 766.995 383.247 766.995 382.157C766.995 379.154 757.276 381.983 757.276 375.709C757.276 372.735 759.956 370.79 764.198 370.79C766.288 370.79 768.673 371.29 770.089 372.144L768.673 374.944C767.172 374.061 765.67 373.763 764.169 373.763C761.931 373.763 760.87 374.501 760.87 375.533C760.87 378.714 770.589 375.887 770.589 382.041C770.589 384.986 767.88 386.898 763.46 386.898C760.839 386.898 758.218 386.133 756.806 385.132Z" fill="white"/>
<path d="M666.697 351.38C641.811 351.38 621.564 331.132 621.564 306.246C621.564 281.361 641.811 261.113 666.697 261.113C691.583 261.113 711.83 281.361 711.83 306.246C711.83 331.132 691.583 351.38 666.697 351.38Z" fill="#083921"/>
<path d="M666.697 262.993C690.584 262.993 709.95 282.359 709.95 306.246C709.95 330.134 690.584 349.5 666.697 349.5C642.81 349.5 623.444 330.134 623.444 306.246C623.444 282.359 642.81 262.993 666.697 262.993ZM666.697 259.233C640.774 259.233 619.684 280.323 619.684 306.246C619.684 332.17 640.774 353.26 666.697 353.26C692.62 353.26 713.71 332.17 713.71 306.246C713.71 280.323 692.62 259.233 666.697 259.233Z" fill="white"/>
<path d="M697.369 312.408C700.932 312.408 702.62 310.627 702.62 308.549C702.62 303.781 694.92 305.58 694.92 302.816C694.92 301.832 695.737 301.053 697.741 301.053C698.873 301.053 700.152 301.388 701.321 302.074L702.082 300.199C700.95 299.457 699.318 299.049 697.759 299.049C694.197 299.049 692.527 300.83 692.527 302.927C692.527 307.751 700.245 305.915 700.245 308.716C700.245 309.68 699.392 310.404 697.369 310.404C695.774 310.404 694.122 309.81 693.083 308.976L692.249 310.85C693.324 311.778 695.347 312.408 697.369 312.408Z" fill="#EAEAEA"/>
<path d="M685.656 312.408C688.514 312.408 690.035 310.906 690.035 307.844V299.235H683.002V301.257H687.623V307.974C687.623 309.57 686.936 310.368 685.6 310.368C684.58 310.368 683.727 309.848 683.022 308.884L681.648 310.534C682.539 311.74 684.024 312.408 685.656 312.408Z" fill="#EAEAEA"/>
<path d="M676.256 304.059C677.777 304.059 678.873 305.042 679.058 306.471H673.436C673.659 305.024 674.753 304.059 676.256 304.059ZM681.266 307.325C681.266 304.226 679.15 302.204 676.256 302.204C673.305 302.204 671.135 304.318 671.135 307.269C671.135 310.219 673.287 312.353 676.608 312.353C678.315 312.353 679.707 311.796 680.598 310.739L679.354 309.31C678.65 310.034 677.777 310.386 676.665 310.386C674.939 310.386 673.732 309.458 673.454 308.011H681.228C681.247 307.788 681.266 307.51 681.266 307.325Z" fill="#EAEAEA"/>
<path d="M663.766 310.368C662.096 310.368 660.815 309.161 660.815 307.269C660.815 305.377 662.096 304.171 663.766 304.171C665.436 304.171 666.716 305.377 666.716 307.269C666.716 309.161 665.436 310.368 663.766 310.368ZM666.679 298.456V303.54C665.899 302.63 664.768 302.204 663.488 302.204C660.612 302.204 658.477 304.188 658.477 307.269C658.477 310.349 660.612 312.353 663.488 312.353C664.842 312.353 665.993 311.889 666.772 310.942V312.223H668.998V298.456H666.679Z" fill="#EAEAEA"/>
<path d="M651.864 310.368C650.194 310.368 648.932 309.161 648.932 307.269C648.932 305.377 650.194 304.171 651.864 304.171C653.553 304.171 654.814 305.377 654.814 307.269C654.814 309.161 653.553 310.368 651.864 310.368ZM651.864 312.353C654.945 312.353 657.152 310.238 657.152 307.269C657.152 304.3 654.945 302.204 651.864 302.204C648.821 302.204 646.594 304.3 646.594 307.269C646.594 310.238 648.821 312.353 651.864 312.353Z" fill="#EAEAEA"/>
<path d="M641.857 299.235V308.03L634.695 299.235H632.71V312.223H635.104V303.428L642.265 312.223H644.25V299.235H641.857Z" fill="#EAEAEA"/>
<path d="M537.879 343.732C500.947 343.732 470.901 313.687 470.901 276.755C470.901 239.82 500.947 209.774 537.879 209.774C574.814 209.774 604.858 239.82 604.858 276.755C604.858 313.687 574.814 343.732 537.879 343.732Z" fill="#52CC99"/>
<path d="M537.879 211.652C573.834 211.652 602.978 240.8 602.978 276.755C602.978 312.708 573.834 341.854 537.879 341.854C501.926 341.854 472.781 312.708 472.781 276.755C472.781 240.8 501.926 211.652 537.879 211.652ZM537.879 207.892C499.911 207.892 469.021 238.784 469.021 276.755C469.021 314.723 499.911 345.614 537.879 345.614C575.85 345.614 606.738 314.723 606.738 276.755C606.738 238.784 575.85 207.892 537.879 207.892Z" fill="white"/>
<path d="M515.246 267.879V288.101H511.49V279.434H501.031V288.101H497.277V267.879H501.031V276.227H511.49V267.879H515.246Z" fill="white"/>
<path d="M524.77 271.057H518.068V267.881H535.229V271.057H528.524V288.099H524.77V271.057Z" fill="white"/>
<path d="M556.627 288.101L556.595 274.698L549.953 285.79H548.28L541.634 274.869V288.101H538.052V267.879H541.141L549.174 281.284L557.059 267.879H560.152L560.18 288.101H556.627Z" fill="white"/>
<path d="M565.63 267.879H569.384V284.923H579.956V288.101H565.63V267.879Z" fill="white"/>
<path d="M403.959 351.38C379.074 351.38 358.826 331.132 358.826 306.246C358.826 281.361 379.074 261.113 403.959 261.113C428.845 261.113 449.093 281.361 449.093 306.246C449.093 331.132 428.845 351.38 403.959 351.38Z" fill="#083921"/>
<path d="M403.959 262.993C427.847 262.993 447.213 282.359 447.213 306.246C447.213 330.134 427.847 349.5 403.959 349.5C380.07 349.5 360.706 330.134 360.706 306.246C360.706 282.359 380.07 262.993 403.959 262.993ZM403.959 259.233C378.036 259.233 356.946 280.323 356.946 306.246C356.946 332.17 378.036 353.26 403.959 353.26C429.883 353.26 450.973 332.17 450.973 306.246C450.973 280.323 429.883 259.233 403.959 259.233Z" fill="white"/>
<path d="M378.004 306.04C378.004 300.338 382.368 296.219 388.235 296.219C391.347 296.219 394.018 297.337 395.793 299.411L393.499 301.565C392.11 300.065 390.391 299.328 388.399 299.328C384.445 299.328 381.578 302.11 381.578 306.04C381.578 309.967 384.445 312.749 388.399 312.749C390.391 312.749 392.11 312.014 393.499 310.488L395.793 312.669C394.018 314.742 391.347 315.861 388.209 315.861C382.368 315.861 378.004 311.742 378.004 306.04Z" fill="white"/>
<path d="M397.496 313.569L398.724 310.815C400.25 312.042 402.679 312.915 405.024 312.915C408 312.915 409.254 311.851 409.254 310.433C409.254 306.314 397.902 309.014 397.902 301.921C397.902 298.839 400.357 296.219 405.599 296.219C407.889 296.219 410.289 296.818 411.951 297.909L410.835 300.665C409.116 299.655 407.234 299.164 405.571 299.164C402.627 299.164 401.421 300.311 401.421 301.757C401.421 305.822 412.743 303.175 412.743 310.187C412.743 313.242 410.261 315.861 405.024 315.861C402.053 315.861 399.077 314.934 397.496 313.569Z" fill="white"/>
<path d="M414.662 313.569L415.888 310.815C417.418 312.042 419.845 312.915 422.192 312.915C425.166 312.915 426.422 311.851 426.422 310.433C426.422 306.314 415.072 309.014 415.072 301.921C415.072 298.839 417.526 296.219 422.765 296.219C425.057 296.219 427.459 296.818 429.121 297.909L428.003 300.665C426.286 299.655 424.403 299.164 422.739 299.164C419.793 299.164 418.591 300.311 418.591 301.757C418.591 305.822 429.913 303.175 429.913 310.187C429.913 313.242 427.429 315.861 422.192 315.861C419.219 315.861 416.245 314.934 414.662 313.569Z" fill="white"/>
<path d="M317.652 414.972C296.865 414.972 279.951 398.059 279.951 377.271C279.951 356.481 296.865 339.57 317.652 339.57C338.44 339.57 355.354 356.481 355.354 377.271C355.354 398.059 338.44 414.972 317.652 414.972Z" fill="#083921"/>
<path d="M317.652 341.262C337.54 341.262 353.662 357.383 353.662 377.271C353.662 397.159 337.54 413.28 317.652 413.28C297.765 413.28 281.643 397.159 281.643 377.271C281.643 357.383 297.765 341.262 317.652 341.262ZM317.652 337.878C295.931 337.878 278.259 355.549 278.259 377.271C278.259 398.993 295.931 416.664 317.652 416.664C339.374 416.664 357.046 398.993 357.046 377.271C357.046 355.549 339.374 337.878 317.652 337.878Z" fill="white"/>
<path d="M339.48 383.282H341.64V373.48H345.494V371.652H335.626V373.48H339.48V383.282Z" fill="#EAEAEA"/>
<path d="M330.642 383.448C332.553 383.448 334.181 382.767 335.261 381.504L333.865 380.175C333.018 381.106 331.971 381.554 330.758 381.554C328.349 381.554 326.605 379.859 326.605 377.467C326.605 375.075 328.349 373.38 330.758 373.38C331.971 373.38 333.018 373.829 333.865 374.742L335.261 373.43C334.181 372.168 332.553 371.486 330.659 371.486C327.087 371.486 324.429 373.995 324.429 377.467C324.429 380.939 327.087 383.448 330.642 383.448Z" fill="#EAEAEA"/>
<path d="M315.527 378.896L317.703 373.812L319.896 378.896H315.527ZM321.774 383.282H324.033L318.784 371.652H316.657L311.423 383.282H313.65L314.796 380.59H320.611L321.774 383.282Z" fill="#EAEAEA"/>
<path d="M304.175 381.471V378.265H309.79V376.487H304.175V373.463H310.505V371.652H302.015V383.282H310.738V381.471H304.175Z" fill="#EAEAEA"/>
<path d="M297.515 375.789C297.515 377.251 296.535 378.115 294.641 378.115H292.116V373.48H294.641C296.535 373.48 297.515 374.327 297.515 375.789ZM299.891 383.282L297.216 379.461C298.795 378.846 299.691 377.55 299.691 375.789C299.691 373.214 297.798 371.652 294.741 371.652H289.956V383.282H292.116V379.893H294.741C294.891 379.893 295.039 379.893 295.189 379.876L297.565 383.282H299.891Z" fill="#EAEAEA"/>
<path d="M249.704 392.64C249.704 395.89 247.07 398.524 243.819 398.524C240.569 398.524 237.931 395.89 237.931 392.64C237.931 389.389 240.569 386.755 243.819 386.755C247.07 386.755 249.704 389.389 249.704 392.64Z" fill="#52CC99"/>
<path d="M287.967 834.169C287.967 836.126 286.38 837.713 284.425 837.713C282.468 837.713 280.88 836.126 280.88 834.169C280.88 832.212 282.468 830.625 284.425 830.625C286.38 830.625 287.967 832.212 287.967 834.169Z" fill="#52CC99"/>
<path d="M155.98 779.001C155.98 780.958 154.393 782.546 152.436 782.546C150.479 782.546 148.892 780.958 148.892 779.001C148.892 777.045 150.479 775.459 152.436 775.459C154.393 775.459 155.98 777.045 155.98 779.001Z" fill="#083921"/>
<path d="M744.1 836.514C744.1 839.764 741.466 842.398 738.216 842.398C734.965 842.398 732.328 839.764 732.328 836.514C732.328 833.263 734.965 830.625 738.216 830.625C741.466 830.625 744.1 833.263 744.1 836.514Z" fill="#52CC99"/>
<path d="M753.643 295.393C753.643 299.623 750.216 303.05 745.986 303.05C741.758 303.05 738.329 299.623 738.329 295.393C738.329 291.163 741.758 287.736 745.986 287.736C750.216 287.736 753.643 291.163 753.643 295.393Z" stroke="#52CC99" stroke-width="3.76" stroke-miterlimit="10"/>
<path d="M335.838 305.288C335.838 307.711 333.873 309.674 331.452 309.674C329.028 309.674 327.062 307.711 327.062 305.288C327.062 302.864 329.028 300.902 331.452 300.902C333.873 300.902 335.838 302.864 335.838 305.288Z" fill="white"/>
<path d="M844.667 404.1C844.667 405.674 843.389 406.952 841.813 406.952C840.24 406.952 838.963 405.674 838.963 404.1C838.963 402.525 840.24 401.248 841.813 401.248C843.389 401.248 844.667 402.525 844.667 404.1Z" fill="white"/>
<path d="M338.69 833.477C338.69 835.053 337.411 836.329 335.836 836.329C334.262 836.329 332.986 835.053 332.986 833.477C332.986 831.904 334.262 830.625 335.836 830.625C337.411 830.625 338.69 831.904 338.69 833.477Z" fill="white"/>
<path d="M745.405 262.993C745.405 264.569 744.127 265.845 742.551 265.845C740.978 265.845 739.701 264.569 739.701 262.993C739.701 261.42 740.978 260.141 742.551 260.141C744.127 260.141 745.405 261.42 745.405 262.993Z" fill="white"/>
<path d="M715.618 849.542C715.618 851.115 714.34 852.396 712.765 852.396C711.191 852.396 709.914 851.115 709.914 849.542C709.914 847.966 711.191 846.688 712.765 846.688C714.34 846.688 715.618 847.966 715.618 849.542Z" fill="white"/>
<path d="M175.083 754.803C175.083 756.379 173.804 757.655 172.231 757.655C170.657 757.655 169.379 756.379 169.379 754.803C169.379 753.23 170.657 751.951 172.231 751.951C173.804 751.951 175.083 753.23 175.083 754.803Z" fill="white"/>
<path d="M368.364 841.885C368.364 846.113 364.934 849.542 360.706 849.542C356.476 849.542 353.049 846.113 353.049 841.885C353.049 837.655 356.476 834.228 360.706 834.228C364.934 834.228 368.364 837.655 368.364 841.885Z" stroke="#083921" stroke-width="3.76" stroke-miterlimit="10"/>
<path d="M827.131 392.64C827.131 395.215 825.042 397.304 822.466 397.304C819.889 397.304 817.802 395.215 817.802 392.64C817.802 390.064 819.889 387.976 822.466 387.976C825.042 387.976 827.131 390.064 827.131 392.64Z" stroke="#083921" stroke-width="3.76" stroke-miterlimit="10"/>
<path d="M248.482 341.853C248.482 344.429 246.395 346.518 243.819 346.518C241.242 346.518 239.153 344.429 239.153 341.853C239.153 339.278 241.242 337.189 243.819 337.189C246.395 337.189 248.482 339.278 248.482 341.853Z" stroke="#083921" stroke-width="3.76" stroke-miterlimit="10"/>
<path d="M927.564 818.176H152.436L234.868 739.829H845.132L927.564 818.176Z" fill="#083921"/>
<path d="M927.564 818.176V804.542L899.383 802.557L901.364 810.368L927.564 818.176Z" fill="#083921"/>
<path d="M152.438 818.176V804.542L180.619 802.557L178.638 810.368L152.438 818.176Z" fill="#083921"/>
<path d="M927.564 804.542H152.436L236.572 727.898H846.837L927.564 804.542Z" fill="#083921"/>
<path d="M681.032 793.74H401.416L427.181 765.235H655.267L681.032 793.74Z" fill="#BFD3DD"/>
<path d="M681.032 793.74V789.775L673.452 788.528V791.542L681.032 793.74Z" fill="#BFD3DD"/>
<path d="M401.416 793.742V789.775L409.725 787.286V790.512L404.794 792.275L401.416 793.742Z" fill="#BFD3DD"/>
<path d="M681.032 789.775H401.416L427.181 761.27H655.267L681.032 789.775Z" fill="white"/>
<path d="M445.291 765.993H426.583L429.55 762.601H447.775L445.291 765.993Z" fill="#DBE5EA"/>
<path d="M468.586 765.993H449.877L452.242 762.601H470.466L468.586 765.993Z" fill="#DBE5EA"/>
<path d="M491.881 765.993H473.172L474.933 762.601H493.16L491.881 765.993Z" fill="#DBE5EA"/>
<path d="M515.178 765.993H496.469L497.627 762.601H515.851L515.178 765.993Z" fill="#DBE5EA"/>
<path d="M538.472 765.993H519.762L520.318 762.601H538.543L538.472 765.993Z" fill="#DBE5EA"/>
<path d="M561.768 765.993H543.059L543.01 762.601H561.236L561.768 765.993Z" fill="#DBE5EA"/>
<path d="M585.064 765.993H566.354L565.703 762.601H583.928L585.064 765.993Z" fill="#DBE5EA"/>
<path d="M608.361 765.993H589.649L588.395 762.601H606.62L608.361 765.993Z" fill="#DBE5EA"/>
<path d="M631.654 765.993H612.942L611.087 762.601H629.311L631.654 765.993Z" fill="#DBE5EA"/>
<path d="M654.951 765.993H636.239L633.778 762.601H652.005L654.951 765.993Z" fill="#DBE5EA"/>
<path d="M441.815 770.736H422.425L425.61 767.1H444.481L441.815 770.736Z" fill="#DBE5EA"/>
<path d="M465.954 770.736H446.566L449.102 767.1H467.972L465.954 770.736Z" fill="#DBE5EA"/>
<path d="M490.093 770.736H470.705L472.594 767.1H491.464L490.093 770.736Z" fill="#DBE5EA"/>
<path d="M514.233 770.736H494.842L496.087 767.1H514.958L514.233 770.736Z" fill="#DBE5EA"/>
<path d="M538.374 770.736H518.985L519.581 767.1H538.447L538.374 770.736Z" fill="#DBE5EA"/>
<path d="M562.513 770.736H543.125L543.074 767.1H561.941L562.513 770.736Z" fill="#DBE5EA"/>
<path d="M586.654 770.736H567.264L566.564 767.1H585.436L586.654 770.736Z" fill="#DBE5EA"/>
<path d="M610.791 770.736H591.403L590.059 767.1H608.926L610.791 770.736Z" fill="#DBE5EA"/>
<path d="M634.932 770.736H615.542L613.549 767.1H632.419L634.932 770.736Z" fill="#DBE5EA"/>
<path d="M659.072 770.736H639.681L637.042 767.1H655.909L659.072 770.736Z" fill="#DBE5EA"/>
<path d="M438.074 775.838H417.956L421.383 771.928H440.941L438.074 775.838Z" fill="#DBE5EA"/>
<path d="M463.121 775.838H443.005L445.735 771.928H465.291L463.121 775.838Z" fill="#DBE5EA"/>
<path d="M488.168 775.838H468.052L470.085 771.928H489.642L488.168 775.838Z" fill="#DBE5EA"/>
<path d="M513.218 775.838H493.102L494.438 771.928H513.996L513.218 775.838Z" fill="#DBE5EA"/>
<path d="M538.265 775.838H518.149L518.79 771.928H538.347L538.265 775.838Z" fill="#DBE5EA"/>
<path d="M563.312 775.838H543.196L543.14 771.928H562.699L563.312 775.838Z" fill="#DBE5EA"/>
<path d="M588.363 775.838H568.243L567.491 771.928H587.051L588.363 775.838Z" fill="#DBE5EA"/>
<path d="M613.41 775.838H593.29L591.843 771.928H611.402L613.41 775.838Z" fill="#DBE5EA"/>
<path d="M638.457 775.838H618.338L616.195 771.928H635.754L638.457 775.838Z" fill="#DBE5EA"/>
<path d="M663.507 775.838H643.387L640.548 771.928H660.108L663.507 775.838Z" fill="#DBE5EA"/>
<path d="M434.043 781.339H413.139L416.836 777.121H437.136L434.043 781.339Z" fill="#DBE5EA"/>
<path d="M460.07 781.339H439.166L442.108 777.121H462.411L460.07 781.339Z" fill="#DBE5EA"/>
<path d="M486.097 781.339H465.193L467.385 777.121H487.685L486.097 781.339Z" fill="#DBE5EA"/>
<path d="M512.123 781.339H491.221L492.662 777.121H512.962L512.123 781.339Z" fill="#DBE5EA"/>
<path d="M538.148 781.339H517.246L517.938 777.121H538.238L538.148 781.339Z" fill="#DBE5EA"/>
<path d="M564.177 781.339H543.273L543.215 777.121H563.513L564.177 781.339Z" fill="#DBE5EA"/>
<path d="M590.204 781.339H569.3L568.49 777.121H588.792L590.204 781.339Z" fill="#DBE5EA"/>
<path d="M616.23 781.339H595.328L593.768 777.121H614.068L616.23 781.339Z" fill="#DBE5EA"/>
<path d="M642.255 781.339H621.353L619.041 777.121H639.341L642.255 781.339Z" fill="#DBE5EA"/>
<path d="M668.284 781.339H647.38L644.317 777.121H664.62L668.284 781.339Z" fill="#DBE5EA"/>
<path d="M429.685 787.288H407.93L411.927 782.723H433.028L429.685 787.288Z" fill="#DBE5EA"/>
<path d="M456.769 787.288H435.015L438.198 782.723H459.301L456.769 787.288Z" fill="#DBE5EA"/>
<path d="M619.281 787.288H462.102L464.473 782.723H616.941L619.281 787.288Z" fill="#DBE5EA"/>
<path d="M646.367 787.288H624.611L622.111 782.723H643.212L646.367 787.288Z" fill="#DBE5EA"/>
<path d="M673.454 787.288H651.698L648.386 782.723H669.487L673.454 787.288Z" fill="#DBE5EA"/>
<path d="M653.439 743.961C653.439 749.951 599.761 754.803 533.55 754.803C467.334 754.803 413.66 749.951 413.66 743.961C413.66 737.973 467.334 733.119 533.55 733.119C599.761 733.119 653.439 737.973 653.439 743.961Z" fill="#083921"/>
<path d="M375.28 752.149C375.28 758.136 335.65 769.29 286.766 777.062C237.884 784.834 198.255 786.28 198.255 780.294C198.255 774.306 237.884 763.152 286.766 755.38C335.65 747.608 375.28 746.161 375.28 752.149Z" fill="#083921"/>
<path d="M704.724 752.149C704.724 758.136 744.348 769.29 793.232 777.062C842.116 784.834 881.745 786.28 881.745 780.294C881.745 774.306 842.116 763.152 793.232 755.38C744.348 747.608 704.724 746.161 704.724 752.149Z" fill="#083921"/>
<path d="M556.493 742.722H523.507V670.117H556.493V742.722Z" fill="#E5F6FF"/>
<path d="M556.493 723.71H523.507V670.119H556.493V723.71Z" fill="#CCEDFF"/>
<path d="M604.097 743.961H475.903V739.002H604.097V743.961Z" fill="#66CCFF"/>
<path d="M595.477 732.867H484.523L475.903 739.004H604.097L595.477 732.867Z" fill="#E5F6FF"/>
<path d="M688.496 715.447H391.504V439.407H688.496V715.447Z" fill="#535E5A"/>
<path d="M684.136 710.478H395.864V444.379H684.136V710.478Z" fill="#52CC99"/>
<path d="M346.119 761.287L240.608 779.491L230.353 773.003L335.862 754.803L346.119 761.287Z" fill="#66CCFF"/>
<path d="M346.121 761.289V757.147L338.438 756.482L337.447 761.31L346.121 761.289Z" fill="#66CCFF"/>
<path d="M230.355 768.865V773.007L234.931 773.344L238.277 772.971L237.348 770.492L230.355 768.865Z" fill="#66CCFF"/>
<path d="M346.121 757.146L240.612 775.348L230.355 768.862L335.866 750.663L346.121 757.146Z" fill="#E5F6FF"/>
<path d="M300.321 757.691L267.334 763.502V646.867H300.321V757.691Z" fill="#66CCFF"/>
<path d="M267.334 763.502L273.095 766.578L276.828 761.806L274.969 756.038L269.017 760.637L267.334 763.502Z" fill="#66CCFF"/>
<path d="M306.083 761.009L273.096 766.578V648.728H306.083V761.009Z" fill="#E5F6FF"/>
<path d="M306.083 730.41L273.096 734.354V645.073H306.083V730.41Z" fill="#CCEDFF"/>
<path d="M139.035 738.569L385.291 715.447V439.407L139.035 416.287C134.068 415.818 129.776 419.727 129.776 424.717V730.139C129.776 735.129 134.068 739.036 139.035 738.569Z" fill="#535E5A"/>
<path d="M145.251 738.569L391.506 715.447V439.407L145.251 416.287C140.282 415.818 135.992 419.727 135.992 424.717V730.139C135.992 735.129 140.282 739.036 145.251 738.569Z" fill="#535E5A"/>
<path d="M150.958 732.597L387.758 710.475V444.378L150.958 422.257C145.991 421.793 141.703 425.702 141.703 430.689V724.167C141.703 729.152 145.991 733.061 150.958 732.597Z" fill="#52CC99"/>
<path d="M733.881 761.287L839.392 779.491L849.647 773.003L744.136 754.803L733.881 761.287Z" fill="#66CCFF"/>
<path d="M733.881 761.289V757.147L741.56 756.482L742.551 761.31L733.881 761.289Z" fill="#66CCFF"/>
<path d="M849.644 768.865V773.007L845.071 773.344L841.725 772.971L842.654 770.492L849.644 768.865Z" fill="#66CCFF"/>
<path d="M733.877 757.146L839.388 775.348L849.643 768.862L744.134 750.663L733.877 757.146Z" fill="#E5F6FF"/>
<path d="M779.681 757.691L812.668 763.502V646.867H779.681V757.691Z" fill="#66CCFF"/>
<path d="M812.668 763.502L806.904 766.578L803.17 761.806L805.031 756.038L810.981 760.637L812.668 763.502Z" fill="#66CCFF"/>
<path d="M773.915 761.009L806.902 766.578V648.728H773.915V761.009Z" fill="#E5F6FF"/>
<path d="M773.915 730.41L806.902 734.354V645.073H773.915V730.41Z" fill="#CCEDFF"/>
<path d="M940.964 738.569L694.709 715.447V439.407L940.964 416.287C945.933 415.818 950.223 419.727 950.223 424.717V730.139C950.223 735.129 945.933 739.036 940.964 738.569Z" fill="#535E5A"/>
<path d="M934.751 738.569L688.496 715.447V439.407L934.751 416.287C939.718 415.818 944.01 419.727 944.01 424.717V730.139C944.01 735.129 939.718 739.036 934.751 738.569Z" fill="#535E5A"/>
<path d="M929.042 732.597L692.244 710.475V444.378L929.042 422.257C934.009 421.793 938.295 425.702 938.295 430.689V724.167C938.295 729.152 934.009 733.061 929.042 732.597Z" fill="#52CC99"/>
</g>
</g>
</g>
<defs>
<clipPath id="clip0_278_6016">
<rect width="1080" height="1080" fill="white"/>
</clipPath>
</defs>
</svg>
