<svg width="501" height="501" viewBox="0 0 501 501" fill="none" xmlns="http://www.w3.org/2000/svg">
<g clip-path="url(#clip0_330_5458)">
<mask id="mask0_330_5458" style="mask-type:luminance" maskUnits="userSpaceOnUse" x="0" y="0" width="501" height="501">
<path d="M500.213 0.434937H0.212646V500.435H500.213V0.434937Z" fill="white"/>
</mask>
<g mask="url(#mask0_330_5458)">
<g opacity="0.08">
<path d="M221.666 135.28H260.396C261.671 135.28 262.705 134.246 262.705 132.971V116.36C262.705 115.084 261.671 114.051 260.396 114.051H221.666C220.391 114.051 219.357 115.084 219.357 116.36V132.971C219.357 134.246 220.391 135.28 221.666 135.28Z" fill="#2E7A55"/>
<path d="M176.637 135.279H215.366C216.642 135.279 217.676 134.245 217.676 132.969V116.36C217.676 115.084 216.642 114.051 215.366 114.051H176.637C175.362 114.051 174.327 115.084 174.327 116.36V132.97C174.327 134.245 175.362 135.279 176.637 135.279Z" fill="#2E7A55"/>
<path d="M131.608 135.28H170.338C171.613 135.28 172.647 134.246 172.647 132.971V116.36C172.647 115.084 171.613 114.051 170.338 114.051H131.608C130.333 114.051 129.299 115.084 129.299 116.36V132.971C129.299 134.246 130.333 135.28 131.608 135.28Z" fill="#2E7A55"/>
<path d="M156.662 112.186H195.392C196.667 112.186 197.701 111.152 197.701 109.877V93.2669C197.701 91.9919 196.667 90.9579 195.392 90.9579H156.662C155.387 90.9579 154.353 91.9919 154.353 93.2669V109.877C154.353 111.152 155.387 112.186 156.662 112.186Z" fill="#2E7A55"/>
<path d="M246.193 158.372H284.923C286.198 158.372 287.232 157.338 287.232 156.063V139.453C287.232 138.177 286.198 137.144 284.923 137.144H246.193C244.918 137.144 243.884 138.177 243.884 139.453V156.063C243.884 157.338 244.918 158.372 246.193 158.372Z" fill="#2E7A55"/>
<path d="M201.69 158.372H240.419C241.695 158.372 242.729 157.338 242.729 156.063V139.453C242.729 138.177 241.695 137.144 240.419 137.144H201.69C200.415 137.144 199.38 138.177 199.38 139.453V156.063C199.38 157.338 200.415 158.372 201.69 158.372Z" fill="#2E7A55"/>
<path d="M156.661 158.372H195.391C196.666 158.372 197.7 157.338 197.7 156.063V139.453C197.7 138.177 196.666 137.144 195.391 137.144H156.661C155.386 137.144 154.352 138.177 154.352 139.453V156.063C154.352 157.338 155.386 158.372 156.661 158.372Z" fill="#2E7A55"/>
<path d="M111.633 158.372H150.363C151.638 158.372 152.672 157.338 152.672 156.063V139.453C152.672 138.177 151.638 137.144 150.363 137.144H111.633C110.358 137.144 109.324 138.177 109.324 139.453V156.063C109.324 157.338 110.358 158.372 111.633 158.372Z" fill="#2E7A55"/>
<path d="M244.877 204.557H283.607C284.881 204.557 285.916 203.523 285.916 202.248V185.638C285.916 184.362 284.881 183.329 283.606 183.329H244.877C243.602 183.329 242.567 184.362 242.567 185.638V202.248C242.567 203.523 243.602 204.557 244.877 204.557Z" fill="#2E7A55"/>
<path d="M200.375 204.557H239.104C240.38 204.557 241.414 203.523 241.414 202.248V185.638C241.414 184.362 240.38 183.329 239.104 183.329H200.375C199.1 183.329 198.066 184.362 198.066 185.638V202.248C198.066 203.523 199.1 204.557 200.375 204.557Z" fill="#2E7A55"/>
<path d="M155.346 204.557H194.075C195.351 204.557 196.385 203.523 196.385 202.248V185.638C196.385 184.362 195.351 183.329 194.075 183.329H155.346C154.071 183.329 153.036 184.362 153.036 185.638V202.248C153.036 203.523 154.071 204.557 155.346 204.557Z" fill="#2E7A55"/>
<path d="M110.317 204.557H149.046C150.322 204.557 151.356 203.523 151.356 202.248V185.638C151.356 184.362 150.322 183.329 149.046 183.329H110.317C109.042 183.329 108.007 184.362 108.007 185.638V202.248C108.007 203.523 109.042 204.557 110.317 204.557Z" fill="#2E7A55"/>
<path d="M224.902 181.465H263.631C264.907 181.465 265.94 180.431 265.94 179.155V162.546C265.94 161.27 264.907 160.237 263.631 160.237H224.902C223.626 160.237 222.592 161.27 222.592 162.546V179.155C222.592 180.431 223.627 181.465 224.902 181.465Z" fill="#2E7A55"/>
<path d="M180.399 181.466H219.128C220.404 181.466 221.438 180.432 221.438 179.156V162.546C221.438 161.27 220.404 160.237 219.128 160.237H180.399C179.124 160.237 178.089 161.27 178.089 162.546V179.156C178.089 180.432 179.124 181.466 180.399 181.466Z" fill="#2E7A55"/>
<path d="M135.372 181.465H174.101C175.377 181.465 176.411 180.431 176.411 179.155V162.546C176.411 161.27 175.377 160.237 174.101 160.237H135.372C134.097 160.237 133.062 161.27 133.062 162.546V179.155C133.062 180.431 134.097 181.465 135.372 181.465Z" fill="#2E7A55"/>
<path d="M90.3417 181.466H129.072C130.347 181.466 131.381 180.432 131.381 179.156V162.546C131.381 161.27 130.347 160.237 129.072 160.237H90.3417C89.0667 160.237 88.0327 161.27 88.0327 162.546V179.156C88.0327 180.432 89.0667 181.466 90.3417 181.466Z" fill="#2E7A55"/>
<path d="M224.901 227.65H263.631C264.906 227.65 265.94 226.616 265.94 225.341V208.731C265.94 207.456 264.906 206.422 263.631 206.422H224.901C223.626 206.422 222.592 207.456 222.592 208.731V225.341C222.592 226.616 223.626 227.65 224.901 227.65Z" fill="#2E7A55"/>
<path d="M180.399 227.65H219.128C220.404 227.65 221.438 226.616 221.438 225.341V208.731C221.438 207.456 220.404 206.422 219.128 206.422H180.399C179.124 206.422 178.089 207.456 178.089 208.731V225.341C178.089 226.616 179.124 227.65 180.399 227.65Z" fill="#2E7A55"/>
<path d="M135.371 227.65H174.101C175.376 227.65 176.41 226.616 176.41 225.341V208.731C176.41 207.456 175.376 206.422 174.101 206.422H135.371C134.096 206.422 133.062 207.456 133.062 208.731V225.341C133.062 226.616 134.096 227.65 135.371 227.65Z" fill="#2E7A55"/>
<path d="M90.3417 227.65H129.072C130.347 227.65 131.381 226.616 131.381 225.341V208.731C131.381 207.456 130.347 206.422 129.072 206.422H90.3417C89.0667 206.422 88.0327 207.456 88.0327 208.731V225.341C88.0327 226.616 89.0667 227.65 90.3417 227.65Z" fill="#2E7A55"/>
<path d="M223.964 274.736H262.693C263.969 274.736 265.003 273.702 265.003 272.426V255.816C265.003 254.541 263.969 253.507 262.693 253.507H223.964C222.689 253.507 221.655 254.541 221.655 255.815V272.426C221.655 273.702 222.689 274.736 223.964 274.736Z" fill="#2E7A55"/>
<path d="M178.935 274.736H217.664C218.94 274.736 219.974 273.702 219.974 272.426V255.816C219.974 254.541 218.94 253.507 217.664 253.507H178.935C177.66 253.507 176.625 254.541 176.625 255.816V272.426C176.625 273.702 177.66 274.736 178.935 274.736Z" fill="#2E7A55"/>
<path d="M133.906 274.736H172.635C173.911 274.736 174.945 273.702 174.945 272.426V255.816C174.945 254.541 173.911 253.507 172.635 253.507H133.906C132.631 253.507 131.596 254.541 131.596 255.815V272.426C131.596 273.702 132.631 274.736 133.906 274.736Z" fill="#2E7A55"/>
<path d="M248.491 251.644H287.22C288.496 251.644 289.53 250.61 289.53 249.334V232.724C289.53 231.448 288.496 230.414 287.22 230.414H248.491C247.216 230.414 246.182 231.448 246.182 232.723V249.334C246.182 250.61 247.216 251.644 248.491 251.644Z" fill="#2E7A55"/>
<path d="M203.989 251.644H242.718C243.994 251.644 245.028 250.61 245.028 249.334V232.724C245.028 231.448 243.994 230.414 242.718 230.414H203.989C202.714 230.414 201.679 231.448 201.679 232.723V249.334C201.679 250.61 202.714 251.644 203.989 251.644Z" fill="#2E7A55"/>
<path d="M158.96 251.644H197.69C198.965 251.644 199.999 250.61 199.999 249.334V232.724C199.999 231.448 198.965 230.414 197.69 230.414H158.96C157.685 230.414 156.651 231.448 156.651 232.724V249.334C156.651 250.61 157.685 251.644 158.96 251.644Z" fill="#2E7A55"/>
<path d="M113.931 251.644H152.661C153.936 251.644 154.97 250.61 154.97 249.334V232.724C154.97 231.448 153.936 230.414 152.661 230.414H113.931C112.656 230.414 111.622 231.448 111.622 232.723V249.334C111.622 250.61 112.656 251.644 113.931 251.644Z" fill="#2E7A55"/>
<path d="M68.2846 251.644H107.015C108.29 251.644 109.324 250.61 109.324 249.334V232.724C109.324 231.448 108.29 230.414 107.015 230.414H68.2846C67.0096 230.414 65.9756 231.448 65.9756 232.724V249.334C65.9756 250.61 67.0096 251.644 68.2846 251.644Z" fill="#2E7A55"/>
<path d="M51.8786 321.341H90.6086C91.8836 321.341 92.9176 320.308 92.9176 319.032V302.421C92.9176 301.146 91.8836 300.112 90.6086 300.112H51.8786C50.6036 300.112 49.5696 301.146 49.5696 302.421V319.032C49.5696 320.308 50.6036 321.341 51.8786 321.341Z" fill="#2E7A55"/>
<path d="M73.4687 344.916H112.198C113.474 344.916 114.508 343.882 114.508 342.606V325.995C114.508 324.72 113.474 323.687 112.198 323.687H73.4687C72.1937 323.687 71.1597 324.72 71.1597 325.995V342.606C71.1597 343.882 72.1937 344.916 73.4687 344.916Z" fill="#2E7A55"/>
<path d="M68.2846 297.767H107.015C108.29 297.767 109.324 296.733 109.324 295.457V278.846C109.324 277.571 108.29 276.538 107.015 276.538H68.2846C67.0096 276.538 65.9756 277.571 65.9756 278.846V295.457C65.9756 296.733 67.0096 297.767 68.2846 297.767Z" fill="#2E7A55"/>
<path d="M86.5788 135.28H125.309C126.584 135.28 127.618 134.246 127.618 132.971V116.36C127.618 115.084 126.584 114.051 125.309 114.051H86.5788C85.3038 114.051 84.2698 115.084 84.2698 116.36V132.971C84.2698 134.246 85.3038 135.28 86.5788 135.28Z" fill="#2E7A55"/>
<path d="M41.5497 135.279H80.2797C81.5547 135.279 82.5887 134.245 82.5887 132.97V116.36C82.5887 115.084 81.5547 114.051 80.2797 114.051H41.5497C40.2747 114.051 39.2407 115.084 39.2407 116.36V132.97C39.2407 134.245 40.2747 135.279 41.5497 135.279Z" fill="#2E7A55"/>
<path d="M66.0077 158.204H104.738C106.013 158.204 107.047 157.17 107.047 155.895V139.284C107.047 138.008 106.013 136.975 104.738 136.975H66.0077C64.7327 136.975 63.6987 138.009 63.6987 139.284V155.895C63.6987 157.17 64.7327 158.204 66.0077 158.204Z" fill="#2E7A55"/>
<path d="M20.9787 178.433H59.7077C60.9837 178.433 62.0177 177.399 62.0177 176.123V159.513C62.0177 158.237 60.9837 157.203 59.7077 157.203H20.9787C19.7037 157.203 18.6697 158.237 18.6697 159.513V176.123C18.6697 177.399 19.7037 178.433 20.9787 178.433Z" fill="#2E7A55"/>
<path d="M64.1996 204.557H102.93C104.205 204.557 105.239 203.523 105.239 202.248V185.638C105.239 184.362 104.205 183.329 102.929 183.329H64.1996C62.9246 183.329 61.8906 184.362 61.8906 185.638V202.248C61.8906 203.523 62.9246 204.557 64.1996 204.557Z" fill="#2E7A55"/>
<path d="M248.491 297.83H287.22C288.496 297.83 289.53 296.796 289.53 295.521V278.91C289.53 277.635 288.496 276.601 287.22 276.601H248.491C247.216 276.601 246.182 277.635 246.182 278.91V295.521C246.182 296.796 247.216 297.83 248.491 297.83Z" fill="#2E7A55"/>
<path d="M203.989 297.83H242.718C243.994 297.83 245.028 296.796 245.028 295.521V278.91C245.028 277.635 243.994 276.601 242.718 276.601H203.989C202.714 276.601 201.679 277.635 201.679 278.91V295.521C201.679 296.796 202.714 297.83 203.989 297.83Z" fill="#2E7A55"/>
<path d="M158.96 297.83H197.69C198.965 297.83 199.999 296.796 199.999 295.521V278.91C199.999 277.635 198.965 276.601 197.69 276.601H158.96C157.685 276.601 156.651 277.635 156.651 278.91V295.521C156.651 296.796 157.685 297.83 158.96 297.83Z" fill="#2E7A55"/>
<path d="M113.931 297.83H152.661C153.936 297.83 154.97 296.796 154.97 295.521V278.91C154.97 277.635 153.936 276.601 152.661 276.601H113.931C112.656 276.601 111.622 277.635 111.622 278.91V295.521C111.622 296.796 112.656 297.83 113.931 297.83Z" fill="#2E7A55"/>
<path d="M298.293 344.916H337.022C338.298 344.916 339.332 343.882 339.332 342.606V325.995C339.332 324.72 338.298 323.687 337.022 323.687H298.293C297.018 323.687 295.983 324.72 295.983 325.995V342.606C295.983 343.882 297.018 344.916 298.293 344.916Z" fill="#2E7A55"/>
<path d="M278.318 321.823H317.047C318.323 321.823 319.357 320.789 319.357 319.513V302.902C319.357 301.627 318.323 300.594 317.047 300.594H278.318C277.043 300.594 276.009 301.627 276.009 302.902V319.513C276.009 320.789 277.043 321.823 278.318 321.823Z" fill="#2E7A55"/>
<path d="M253.058 344.916H291.787C293.063 344.916 294.096 343.882 294.096 342.606V325.995C294.096 324.72 293.063 323.687 291.787 323.687H253.058C251.783 323.687 250.748 324.72 250.748 325.995V342.606C250.748 343.882 251.783 344.916 253.058 344.916Z" fill="#2E7A55"/>
<path d="M208.556 344.916H247.285C248.561 344.916 249.595 343.882 249.595 342.606V325.995C249.595 324.72 248.561 323.687 247.285 323.687H208.556C207.281 323.687 206.246 324.72 206.246 325.995V342.606C206.246 343.882 207.281 344.916 208.556 344.916Z" fill="#2E7A55"/>
<path d="M163.527 344.916H202.257C203.532 344.916 204.566 343.882 204.566 342.606V325.995C204.566 324.72 203.532 323.687 202.257 323.687H163.527C162.252 323.687 161.218 324.72 161.218 325.995V342.606C161.218 343.882 162.252 344.916 163.527 344.916Z" fill="#2E7A55"/>
<path d="M118.498 344.916H157.228C158.503 344.916 159.537 343.882 159.537 342.606V325.995C159.537 324.72 158.503 323.687 157.228 323.687H118.498C117.223 323.687 116.189 324.72 116.189 325.995V342.606C116.189 343.882 117.223 344.916 118.498 344.916Z" fill="#2E7A55"/>
<path d="M233.082 321.823H271.811C273.087 321.823 274.121 320.789 274.121 319.513V302.902C274.121 301.627 273.087 300.594 271.811 300.594H233.082C231.807 300.594 230.773 301.627 230.773 302.902V319.513C230.773 320.789 231.807 321.823 233.082 321.823Z" fill="#2E7A55"/>
<path d="M188.58 321.823H227.31C228.585 321.823 229.619 320.789 229.619 319.513V302.902C229.619 301.627 228.585 300.594 227.31 300.594H188.58C187.305 300.594 186.271 301.627 186.271 302.902V319.513C186.271 320.789 187.305 321.823 188.58 321.823Z" fill="#2E7A55"/>
<path d="M143.552 321.823H182.282C183.557 321.823 184.591 320.789 184.591 319.513V302.902C184.591 301.627 183.557 300.594 182.281 300.594H143.552C142.277 300.594 141.243 301.627 141.243 302.902V319.513C141.243 320.789 142.277 321.823 143.552 321.823Z" fill="#2E7A55"/>
<path d="M98.5226 321.823H137.252C138.528 321.823 139.562 320.789 139.562 319.513V302.902C139.562 301.627 138.528 300.594 137.252 300.594H98.5226C97.2476 300.594 96.2136 301.627 96.2136 302.902V319.513C96.2136 320.789 97.2476 321.823 98.5226 321.823Z" fill="#2E7A55"/>
<path d="M188.58 368.009H227.31C228.585 368.009 229.619 366.975 229.619 365.699V349.089C229.619 347.814 228.585 346.78 227.31 346.78H188.58C187.305 346.78 186.271 347.814 186.271 349.089V365.699C186.271 366.975 187.305 368.009 188.58 368.009Z" fill="#2E7A55"/>
<path d="M143.552 368.009H182.281C183.557 368.009 184.591 366.975 184.591 365.699V349.088C184.591 347.813 183.557 346.779 182.282 346.779H143.552C142.277 346.779 141.243 347.813 141.243 349.088V365.699C141.243 366.975 142.277 368.009 143.552 368.009Z" fill="#2E7A55"/>
<path d="M98.5226 368.009H137.252C138.528 368.009 139.562 366.975 139.562 365.699V349.089C139.562 347.814 138.528 346.78 137.252 346.78H98.5226C97.2476 346.78 96.2136 347.814 96.2136 349.089V365.699C96.2136 366.975 97.2476 368.009 98.5226 368.009Z" fill="#2E7A55"/>
<path d="M73.4687 389.707H112.198C113.474 389.707 114.508 388.672 114.508 387.397V370.786C114.508 369.511 113.474 368.477 112.198 368.477H73.4687C72.1937 368.477 71.1597 369.511 71.1597 370.786V387.397C71.1597 388.672 72.1937 389.707 73.4687 389.707Z" fill="#2E7A55"/>
<path d="M208.556 389.707H247.285C248.561 389.707 249.595 388.673 249.595 387.397V370.786C249.595 369.511 248.561 368.477 247.285 368.477H208.556C207.281 368.477 206.246 369.511 206.246 370.786V387.397C206.246 388.672 207.281 389.707 208.556 389.707Z" fill="#2E7A55"/>
<path d="M163.527 389.707H202.257C203.532 389.707 204.566 388.672 204.566 387.397V370.786C204.566 369.511 203.532 368.477 202.257 368.477H163.527C162.252 368.477 161.218 369.511 161.218 370.786V387.397C161.218 388.672 162.252 389.707 163.527 389.707Z" fill="#2E7A55"/>
<path d="M118.498 389.707H157.228C158.503 389.707 159.537 388.672 159.537 387.397V370.786C159.537 369.511 158.503 368.477 157.228 368.477H118.498C117.223 368.477 116.189 369.511 116.189 370.786V387.397C116.189 388.672 117.223 389.707 118.498 389.707Z" fill="#2E7A55"/>
<path d="M188.58 412.8H227.31C228.585 412.8 229.619 411.767 229.619 410.491V393.88C229.619 392.605 228.585 391.571 227.31 391.571H188.58C187.305 391.571 186.271 392.605 186.271 393.88V410.491C186.271 411.767 187.305 412.8 188.58 412.8Z" fill="#2E7A55"/>
<path d="M143.552 412.8H182.282C183.557 412.8 184.591 411.767 184.591 410.491V393.88C184.591 392.605 183.557 391.571 182.281 391.571H143.552C142.277 391.571 141.243 392.605 141.243 393.88V410.491C141.243 411.767 142.277 412.8 143.552 412.8Z" fill="#2E7A55"/>
<path d="M98.5226 412.8H137.252C138.528 412.8 139.562 411.767 139.562 410.491V393.88C139.562 392.605 138.528 391.571 137.252 391.571H98.5226C97.2476 391.571 96.2136 392.605 96.2136 393.88V410.491C96.2136 411.767 97.2476 412.8 98.5226 412.8Z" fill="#2E7A55"/>
</g>
<path d="M269.71 406.109C269.71 409.377 218.71 412.025 155.798 412.025C92.8857 412.025 41.8857 409.377 41.8857 406.109C41.8857 402.842 92.8857 400.195 155.798 400.195C218.71 400.195 269.71 402.842 269.71 406.109Z" fill="#ABE7CA"/>
<path d="M376.171 407.109C376.171 408.992 356.304 410.517 331.798 410.517C307.291 410.517 287.424 408.992 287.424 407.109C287.424 405.228 307.291 403.703 331.798 403.703C356.304 403.703 376.171 405.228 376.171 407.109Z" fill="#ABE7CA"/>
<path d="M143.229 206.235C153.958 196.397 159.271 177.263 170.219 167.82C173.535 164.961 173.582 155.024 179.979 157.071C179.197 158.328 178.414 159.585 177.631 160.841C182.88 159.81 182.329 153.297 185.644 150.438C187.578 152.264 188.544 153.175 190.295 152.83C188.729 155.345 185.413 158.204 184.813 161.634L187.71 164.368C190.246 162.766 190.661 157.17 193.192 155.565C194.161 156.479 196.094 158.304 197.061 159.216C198.026 160.128 198.809 158.87 199.592 157.613C198.809 158.87 197.242 161.386 196.46 162.643C197.426 163.554 199.359 165.38 200.324 166.29C201.293 167.204 202.075 165.948 202.859 164.69C204.792 166.513 207.508 167.079 207.69 169.248C206.906 170.507 206.124 171.764 205.341 173.022C209.441 168.905 215.838 170.949 218.738 173.687C216.986 174.032 219.888 176.77 218.138 177.113C223.386 176.079 229.601 175.954 227.434 181.894C202.93 228.642 170.875 270.258 141.536 312.445C139.002 314.047 137.854 310.964 135.921 309.138C139.052 304.112 143.152 299.995 143.567 294.399C144.351 293.141 138.92 292.005 137.766 288.922C138.549 287.664 140.115 285.149 140.899 283.889C138.785 279.899 134.32 279.678 132.203 275.681C130.086 271.689 135.152 268.487 134.001 265.403C134.421 259.805 129.537 265.183 127.188 268.955C126.037 265.874 125.622 271.47 123.689 269.645C119.824 265.997 115.956 262.345 116.19 254.582C116.005 252.411 112.324 250.932 110.391 249.108C119.788 234.02 129.967 217.673 143.229 206.235Z" fill="#ABE7CA"/>
<path d="M47.0166 289.29C59.7356 269.495 73.8876 250.207 88.2306 231.168C89.2836 229.389 90.4056 227.641 90.3836 226.646C92.1086 221.908 87.2326 228.524 84.5866 232.668C84.5436 230.698 82.8226 235.432 81.8976 234.841C80.9186 234.216 79.9446 233.582 79.5586 232.18C79.3196 232.252 79.0726 232.307 78.8106 232.322C79.0136 232.035 79.2166 231.746 79.4196 231.458C79.3906 231.192 79.3786 230.903 79.3866 230.588C77.2716 232.476 76.5656 235.357 74.5956 237.346C73.6976 236.713 73.2496 236.399 72.1726 236.974C73.4286 235.193 75.7606 232.839 76.5686 230.741L75.2256 229.793C73.5196 231.258 72.5326 234.561 70.8286 236.026C70.3796 235.709 69.4836 235.077 69.0356 234.76C68.5876 234.444 67.9586 235.335 67.3316 236.224C67.9586 235.335 69.2156 233.553 69.8436 232.664C69.3956 232.348 68.4986 231.714 68.0516 231.398C67.6016 231.082 66.9746 231.972 66.3456 232.863C65.4496 232.231 63.9246 232.489 64.1056 231.283C64.7336 230.392 65.3616 229.502 65.9896 228.612C63.0286 231.857 59.5316 232.057 58.1866 231.109C59.2646 230.534 57.9186 229.585 58.9956 229.012C55.7666 230.733 52.0906 232.14 54.1546 228.264C74.7856 196.158 99.1836 165.374 122.058 134.848C123.763 133.384 124.03 134.908 124.926 135.54C122.416 139.099 119.455 142.344 118.468 145.647C117.84 146.538 120.888 146.022 121.159 147.544C120.531 148.435 119.275 150.216 118.646 151.107C119.362 152.945 121.963 152.112 122.679 153.953C123.396 155.79 119.988 158.718 120.257 160.241C119.733 161.991 120.496 161.645 121.607 160.544C128.058 150.327 134.272 139.334 141.208 130.746C144.317 126.896 146.877 118.808 150.952 117.522C150.071 118.902 149.188 120.284 148.307 121.665C152.34 118.408 153.599 113.377 156.707 109.529C157.633 110.12 158.094 110.415 159.44 109.327C157.676 112.091 154.567 115.939 153.265 118.999L154.65 119.884C156.879 117.415 158.6 112.681 160.826 110.212C161.289 110.508 162.214 111.098 162.677 111.393C163.139 111.687 164.021 110.307 164.902 108.927C164.021 110.307 162.255 113.072 161.374 114.452C161.836 114.747 162.761 115.338 163.222 115.632C163.686 115.928 164.567 114.547 165.451 113.164C166.374 113.754 168.182 112.963 167.761 114.639C166.878 116.022 165.996 117.403 165.114 118.785C167.463 115.707 169.836 114.002 171.678 113.294C174.209 109.159 176.814 105.166 179.787 101.875C182.008 99.4159 183.089 93.6449 186.573 93.285C185.987 94.202 185.401 95.1199 184.815 96.0379C187.96 94.1709 188.332 90.5289 190.553 88.0699C191.478 88.6609 191.94 88.9569 192.99 88.3329C191.817 90.1689 189.596 92.6269 188.885 94.7599L190.271 95.646C191.908 94.104 192.741 90.7589 194.375 89.2169C194.839 89.5129 195.764 90.1029 196.226 90.3979C196.687 90.6929 197.274 89.7759 197.86 88.8579C197.274 89.7759 196.101 91.6129 195.515 92.5309C195.977 92.8259 196.902 93.4159 197.363 93.7109C197.827 94.007 198.413 93.0889 198.999 92.1689C199.924 92.7599 201.435 92.4329 201.31 93.646C200.724 94.5649 200.138 95.4819 199.551 96.4009C202.36 93.0229 205.843 92.6619 207.23 93.5479C206.181 94.1709 207.568 95.0569 206.519 95.6779C209.665 93.8099 213.273 92.2359 211.39 96.2029C192.258 129.225 169.302 161.099 147.857 192.645C146.222 194.187 145.885 192.676 144.96 192.086C147.304 188.416 150.113 185.038 150.947 181.693C151.533 180.774 148.512 181.429 148.171 179.921C148.758 179.002 149.931 177.166 150.517 176.247C149.718 174.444 147.158 175.395 146.358 173.59C145.557 171.788 148.827 168.706 148.488 167.197C149.325 163.85 145.929 168.148 144.171 170.902C144.167 170.886 144.163 170.878 144.159 170.863C134.639 185.472 124.947 200.015 115.245 214.491C115.359 214.632 115.466 214.784 115.541 214.978C116.258 216.816 112.85 219.744 113.119 221.267C112.129 224.572 115.719 220.435 117.602 217.764C117.871 219.286 118.858 215.983 119.755 216.616C121.548 217.88 123.341 219.145 122.174 223.654C121.995 224.861 123.967 224.919 124.863 225.551C117.328 236.233 109.165 247.806 99.8376 257.223C92.2136 265.176 86.5466 277.306 78.8466 285.079C76.5146 287.435 75.1696 293.149 71.6726 293.349C72.3006 292.459 72.9286 291.568 73.5556 290.68C70.3276 292.399 69.7886 296.02 67.4566 298.374C66.5596 297.741 66.1126 297.424 65.0346 297.999C66.2906 296.218 68.6226 293.865 69.4306 291.768L68.0876 290.819C66.3816 292.284 65.3946 295.586 63.6916 297.051C63.2426 296.734 62.3456 296.102 61.8966 295.786C61.4496 295.47 60.8216 296.361 60.1936 297.251C60.8216 296.361 62.0786 294.578 62.7046 293.689C62.2576 293.373 61.3606 292.741 60.9126 292.426C60.4636 292.109 59.8366 292.998 59.2076 293.89C58.3116 293.258 56.7876 293.516 56.9676 292.31C57.5966 291.418 58.2236 290.528 58.8516 289.639C55.8906 292.883 52.3936 293.084 51.0486 292.135C52.1266 291.561 50.7816 290.611 51.8576 290.038C48.6286 291.76 44.9526 293.166 47.0166 289.29Z" fill="#ABE7CA"/>
<path d="M193.457 408.319C192.322 408.319 191.251 407.635 190.811 406.516L120.359 227.225C119.785 225.764 120.503 224.114 121.964 223.54C123.423 222.965 125.075 223.685 125.649 225.146L196.101 404.437C196.675 405.898 195.957 407.548 194.495 408.122C194.155 408.256 193.802 408.319 193.457 408.319Z" fill="#2E7A55"/>
<path d="M256.244 408.319C255.109 408.319 254.037 407.635 253.597 406.516L183.145 227.225C182.571 225.764 183.29 224.114 184.751 223.54C186.21 222.965 187.862 223.685 188.436 225.146L258.888 404.437C259.462 405.898 258.743 407.548 257.281 408.122C256.94 408.256 256.59 408.319 256.244 408.319Z" fill="#2E7A55"/>
<path d="M199.649 260.121H135.222C133.652 260.121 132.38 258.849 132.38 257.279C132.38 255.71 133.652 254.437 135.222 254.437H199.649C201.218 254.437 202.49 255.71 202.49 257.279C202.49 258.849 201.218 260.121 199.649 260.121Z" fill="#2E7A55"/>
<path d="M211.425 290.069H146.998C145.428 290.069 144.156 288.797 144.156 287.227C144.156 285.658 145.428 284.385 146.998 284.385H211.425C212.994 284.385 214.266 285.658 214.266 287.227C214.266 288.797 212.994 290.069 211.425 290.069Z" fill="#2E7A55"/>
<path d="M223.423 318.673H158.997C157.427 318.673 156.155 317.401 156.155 315.831C156.155 314.262 157.427 312.989 158.997 312.989H223.423C224.993 312.989 226.265 314.262 226.265 315.831C226.265 317.401 224.993 318.673 223.423 318.673Z" fill="#2E7A55"/>
<path d="M232.493 345.164H168.066C166.496 345.164 165.224 343.893 165.224 342.323C165.224 340.754 166.496 339.48 168.066 339.48H232.493C234.062 339.48 235.334 340.754 235.334 342.323C235.334 343.893 234.062 345.164 232.493 345.164Z" fill="#2E7A55"/>
<path d="M242.826 371.656H178.399C176.829 371.656 175.557 370.384 175.557 368.814C175.557 367.245 176.829 365.972 178.399 365.972H242.826C244.395 365.972 245.667 367.245 245.667 368.814C245.667 370.384 244.395 371.656 242.826 371.656Z" fill="#2E7A55"/>
<path d="M193.457 408.319C192.322 408.319 191.251 407.635 190.811 406.516L120.359 227.225C119.785 225.764 120.503 224.114 121.964 223.54C123.423 222.965 125.075 223.685 125.649 225.146L196.101 404.437C196.675 405.898 195.957 407.548 194.495 408.122C194.155 408.256 193.802 408.319 193.457 408.319Z" fill="#2E7A55"/>
<path d="M256.243 408.319C255.108 408.319 254.037 407.635 253.597 406.516L183.145 227.225C182.571 225.764 183.289 224.114 184.75 223.54C186.209 222.965 187.861 223.685 188.435 225.146L258.888 404.437C259.462 405.898 258.743 407.548 257.281 408.122C256.94 408.256 256.589 408.319 256.243 408.319Z" fill="#2E7A55"/>
<path d="M199.649 260.121H135.222C133.652 260.121 132.38 258.849 132.38 257.279C132.38 255.71 133.652 254.437 135.222 254.437H199.649C201.218 254.437 202.49 255.71 202.49 257.279C202.49 258.849 201.218 260.121 199.649 260.121Z" fill="#2E7A55"/>
<path d="M211.425 290.069H146.998C145.428 290.069 144.156 288.797 144.156 287.227C144.156 285.658 145.428 284.385 146.998 284.385H211.425C212.994 284.385 214.266 285.658 214.266 287.227C214.266 288.797 212.994 290.069 211.425 290.069Z" fill="#2E7A55"/>
<path d="M223.423 318.673H158.997C157.427 318.673 156.155 317.401 156.155 315.831C156.155 314.262 157.427 312.989 158.997 312.989H223.423C224.993 312.989 226.265 314.262 226.265 315.831C226.265 317.401 224.993 318.673 223.423 318.673Z" fill="#2E7A55"/>
<path d="M232.493 345.164H168.066C166.496 345.164 165.224 343.893 165.224 342.323C165.224 340.754 166.496 339.48 168.066 339.48H232.493C234.062 339.48 235.334 340.754 235.334 342.323C235.334 343.893 234.062 345.164 232.493 345.164Z" fill="#2E7A55"/>
<path d="M242.826 371.656H178.399C176.829 371.656 175.557 370.384 175.557 368.814C175.557 367.245 176.829 365.972 178.399 365.972H242.826C244.395 365.972 245.667 367.245 245.667 368.814C245.667 370.384 244.395 371.656 242.826 371.656Z" fill="#2E7A55"/>
<path d="M114.536 408.319C114.191 408.319 113.839 408.256 113.498 408.122C112.036 407.548 111.318 405.898 111.892 404.437L182.343 225.146C182.917 223.686 184.566 222.967 186.028 223.54C187.489 224.114 188.208 225.764 187.634 227.225L117.182 406.516C116.742 407.635 115.67 408.319 114.536 408.319Z" fill="#2E7A55"/>
<path d="M51.7487 408.319C51.4037 408.319 51.0517 408.256 50.7107 408.122C49.2487 407.548 48.5307 405.898 49.1047 404.437L119.556 225.146C120.13 223.686 121.778 222.967 123.241 223.54C124.702 224.114 125.421 225.764 124.847 227.225L54.3947 406.516C53.9547 407.635 52.8827 408.319 51.7487 408.319Z" fill="#2E7A55"/>
<path d="M172.77 260.121H108.344C106.774 260.121 105.502 258.849 105.502 257.279C105.502 255.71 106.774 254.437 108.344 254.437H172.77C174.339 254.437 175.612 255.71 175.612 257.279C175.612 258.849 174.339 260.121 172.77 260.121Z" fill="#2E7A55"/>
<path d="M160.994 290.069H96.5678C94.9978 290.069 93.7258 288.797 93.7258 287.227C93.7258 285.658 94.9978 284.385 96.5678 284.385H160.994C162.563 284.385 163.836 285.658 163.836 287.227C163.836 288.797 162.563 290.069 160.994 290.069Z" fill="#2E7A55"/>
<path d="M148.995 318.673H84.5678C82.9978 318.673 81.7258 317.401 81.7258 315.831C81.7258 314.262 82.9978 312.989 84.5678 312.989H148.995C150.564 312.989 151.836 314.262 151.836 315.831C151.836 317.401 150.564 318.673 148.995 318.673Z" fill="#2E7A55"/>
<path d="M139.925 345.164H75.4987C73.9287 345.164 72.6567 343.893 72.6567 342.323C72.6567 340.754 73.9287 339.48 75.4987 339.48H139.925C141.495 339.48 142.767 340.754 142.767 342.323C142.767 343.893 141.495 345.164 139.925 345.164Z" fill="#2E7A55"/>
<path d="M129.593 371.656H65.1657C63.5957 371.656 62.3237 370.384 62.3237 368.814C62.3237 367.245 63.5957 365.972 65.1657 365.972H129.593C131.162 365.972 132.434 367.245 132.434 368.814C132.434 370.384 131.162 371.656 129.593 371.656Z" fill="#2E7A55"/>
<path d="M319.015 359.21C318.026 356.897 316.565 354.804 314.8 352.961C314.794 354.1 314.59 355.231 313.977 356.19C313.828 356.42 312.263 352.025 311.463 350.051C310.999 349.716 310.531 349.398 310.047 349.097C308.943 348.401 307.767 347.785 306.538 347.259C306.968 349.284 307.149 351.327 307.092 353.406C307.08 353.824 306.376 353.834 306.386 353.409C306.451 351.213 306.241 349.067 305.754 346.928C304.771 346.534 303.755 346.184 302.719 345.885C303.626 348.07 304.129 350.341 304.241 352.71C304.258 353.134 303.561 353.135 303.536 352.718C303.421 350.263 302.88 347.913 301.886 345.656C300.93 345.404 299.95 345.193 298.96 345.026C299.076 346.637 299.033 348.23 298.661 349.84C298.585 350.173 297.239 346.408 296.751 344.718C295.83 344.607 294.904 344.553 293.968 344.515C293.973 345.569 293.897 346.617 293.635 347.654C293.572 347.901 291.75 345.558 291.04 344.505C288.122 344.603 285.244 345.017 282.549 345.756C283.707 347.377 284.681 349.04 284.947 351.027C284.998 351.442 284.302 351.449 284.241 351.03C283.993 349.12 282.973 347.503 281.851 345.954C281.116 346.169 280.398 346.414 279.7 346.68C277.117 347.67 271.204 350.67 271.946 354.091C271.949 354.124 271.957 354.155 271.967 354.187C272.82 357.326 280.991 357.113 283.68 357.417C289.631 358.091 295.458 358.812 300.554 362.027C306.559 365.82 312.098 370.507 317.577 374.942C317.923 375.225 318.316 375.243 318.648 375.115C318.709 375.099 318.944 374.09 319.195 372.56C319.779 368.973 320.423 362.502 319.015 359.21Z" fill="#51A87E"/>
<path d="M314.24 371.409C316.902 373.21 318.61 375.265 319.86 378.198C321.368 381.739 322.873 385.438 323.718 389.157C323.996 390.381 324.247 391.608 324.486 392.839" stroke="#1B3B2B" stroke-width="0.5" stroke-linecap="round" stroke-linejoin="round"/>
<path d="M271.967 354.186C272.82 357.326 280.991 357.114 283.681 357.417C289.632 358.091 295.458 358.812 300.554 362.028C306.559 365.821 312.098 370.507 317.577 374.943C317.925 375.225 318.316 375.244 318.648 375.116C318.708 375.099 313.602 361.213 304.017 355.78C294.615 350.448 282.625 353.002 271.967 354.186Z" fill="#275740"/>
<path d="M330.31 342.631C330.264 342.274 330.217 341.922 330.163 341.565C328.892 343.499 327.48 345.325 325.643 346.864C325.388 347.078 327.902 340.08 329.177 336.831C328.66 335.088 327.926 333.402 326.813 331.852C324.501 328.631 321.239 325.861 318.116 323.34C317.99 323.235 317.85 323.139 317.723 323.034C317.49 324.752 317.017 326.424 316.25 328.011C316.118 328.29 315.544 323.463 315.379 321.236C314.617 320.683 313.853 320.13 313.072 319.607C312.04 318.899 310.665 317.616 309.275 318.14C307.921 318.638 306.099 324.717 306.086 326.343C306.078 327.037 306.093 327.741 306.122 328.444C307.788 329.911 309.715 331.058 311.862 331.882C312.277 332.039 312.004 332.638 311.581 332.482C309.583 331.713 307.766 330.667 306.163 329.359C306.32 332.173 306.712 335.007 307.172 337.767C307.308 337.89 307.444 338.014 307.593 338.128C309.144 339.358 312.749 341.75 312.461 341.818C310.9 342.167 309.343 341.977 307.893 341.456C308.468 343.911 309.255 346.319 310.379 348.599C312.683 350.738 318.478 354.327 318.16 354.371C316.844 354.561 315.546 354.512 314.247 354.39C315.424 355.735 316.737 356.977 318.172 358.081C321.124 360.377 324.886 361.901 326.969 365.043C327.014 365.117 327.082 365.155 327.147 365.161C327.22 365.344 327.487 365.446 327.63 365.244C332.291 358.543 331.295 350.164 330.31 342.631Z" fill="#51A87E"/>
<path d="M320.134 343.088C317.997 337.75 314.818 330.297 312.278 325.108" stroke="#1B3B2B" stroke-width="0.5" stroke-linecap="round" stroke-linejoin="round"/>
<path d="M321.485 346.648C321.042 345.473 320.045 342.833 319.582 341.665C319.671 341.643 319.751 341.588 319.797 341.484C321.031 338.673 321.778 335.751 322.026 332.72" stroke="#1B3B2B" stroke-width="0.5" stroke-linecap="round" stroke-linejoin="round"/>
<path d="M329.874 392.706C330.107 392.706 330.339 392.703 330.572 392.704C330.351 383.464 329.515 374.263 327.401 365.243C327.447 365.185 327.467 365.109 327.44 365.014C327.175 364.059 326.902 363.105 326.625 362.154C326.237 360.713 325.815 359.276 325.355 357.846C325.338 357.793 322.696 349.88 321.25 346.01C321.295 345.98 321.335 345.942 321.365 345.887C322.398 343.981 323.055 341.963 323.333 339.842" stroke="#1B3B2B" stroke-width="0.5" stroke-linecap="round" stroke-linejoin="round"/>
<path d="M320.633 356.3C321.756 357.3 324.039 358.588 325.589 358.588" stroke="#1B3B2B" stroke-width="0.5" stroke-linecap="round" stroke-linejoin="round"/>
<path d="M308.819 335.554C311.465 336.881 314.93 338.162 318.01 337.918C318.021 337.917 317.283 337.882 317.293 337.881" stroke="#1B3B2B" stroke-width="0.5" stroke-linecap="round" stroke-linejoin="round"/>
<path d="M344.218 355.172C341.643 360.076 339.053 365.012 337.386 370.265C335.667 375.68 335.236 381.311 334.846 386.918C334.72 388.749 334.596 390.58 334.478 392.412" stroke="#1B3B2B" stroke-width="0.5" stroke-linecap="round" stroke-linejoin="round"/>
<path d="M372.571 331.459C372.567 331.427 372.562 331.395 372.55 331.362C371.841 327.937 365.153 327.276 362.363 327.285C361.609 327.288 360.843 327.32 360.076 327.384C359.671 329.217 359.389 331.076 359.938 332.929C360.052 333.339 359.407 333.581 359.286 333.179C358.72 331.248 358.942 329.363 359.351 327.45C356.559 327.73 353.729 328.377 350.993 329.33C350.765 330.556 350.04 333.374 349.881 333.167C349.216 332.303 348.716 331.361 348.291 330.385C347.442 330.755 346.609 331.137 345.803 331.568C346.042 333.304 346.332 337.264 346.127 336.983C345.126 335.628 344.436 334.173 343.885 332.643C343.04 333.15 342.219 333.696 341.438 334.271C341.44 336.712 341.899 339.077 342.794 341.388C342.942 341.781 342.296 342.03 342.14 341.631C341.277 339.402 340.815 337.123 340.762 334.779C339.925 335.427 339.131 336.113 338.382 336.829C338.805 338.98 339.486 341.037 340.442 343.044C340.624 343.435 339.972 343.676 339.79 343.294C338.889 341.393 338.221 339.439 337.792 337.416C336.872 338.34 336.037 339.329 335.299 340.368C334.975 340.818 334.674 341.281 334.381 341.755C334.447 343.866 334.793 348.487 334.561 348.328C333.604 347.661 332.954 346.689 332.484 345.639C331.605 347.972 331.108 350.429 331.137 352.92C331.179 356.466 334.416 362.216 336.419 365.322C337.275 366.647 337.903 367.496 337.966 367.489C338.325 367.489 338.678 367.332 338.884 366.946C342.138 360.888 345.344 354.577 349.347 348.925C352.745 344.132 357.838 341.383 363.062 338.631C365.425 337.39 373.064 334.666 372.571 331.459Z" fill="#51A87E"/>
<path d="M343.6 344.388C336.958 352.837 337.903 367.496 337.965 367.49C338.325 367.49 338.679 367.332 338.884 366.947C342.138 360.888 345.346 354.577 349.348 348.925C352.746 344.132 357.838 341.383 363.063 338.632C365.424 337.39 373.064 334.666 372.571 331.459C362.238 334.176 350.115 336.101 343.6 344.388Z" fill="#275740"/>
<path d="M389.92 352.136C389.317 350.913 387.413 351.021 386.17 350.915C385.235 350.827 384.293 350.77 383.351 350.712C381.612 352.24 377.69 355.418 377.8 355.134C378.414 353.513 379.299 352.005 380.385 350.609C380.22 350.609 380.051 350.594 379.885 350.594C375.842 350.55 371.521 350.604 367.54 351.561C365.625 352.022 363.877 352.807 362.241 353.768C360.774 356.913 357.454 363.542 357.43 363.233C357.252 360.999 357.584 358.813 358.097 356.631C357.798 356.86 357.511 357.089 357.217 357.324C351.033 362.231 344.225 367.749 342.637 375.461C342.591 375.695 342.854 375.782 343.04 375.693C343.089 375.727 343.165 375.741 343.251 375.713C347.012 374.677 350.778 375.834 354.537 375.941C356.355 376.001 358.188 375.887 359.998 375.616C358.992 374.919 358.039 374.173 357.248 373.24C357.055 373.014 363.763 373.894 366.95 373.724C369.405 372.736 371.715 371.453 373.911 370.006C372.508 369.509 371.268 368.71 370.42 367.51C370.265 367.287 374.556 367.718 376.546 367.757C376.735 367.763 376.921 367.755 377.106 367.747C379.442 366.008 381.783 364.174 383.945 362.212C381.858 362.199 379.814 361.868 377.843 361.223C377.43 361.081 377.673 360.478 378.08 360.615C380.197 361.309 382.395 361.635 384.64 361.57C385.172 361.074 385.695 360.569 386.195 360.057C387.371 358.861 390.513 353.318 389.92 352.136Z" fill="#51A87E"/>
<path d="M364.178 359.497C362.83 361.215 361.823 363.087 361.164 365.102C361.145 365.161 361.146 365.214 361.156 365.263C354.952 368.417 339.347 372.646 336.894 386.811" stroke="#1B3B2B" stroke-width="0.5" stroke-linecap="round" stroke-linejoin="round"/>
<path d="M370.289 355.086C368.257 357.45 365.391 360.416 365.391 363.424" stroke="#1B3B2B" stroke-width="0.5" stroke-linecap="round" stroke-linejoin="round"/>
<path d="M360.389 365.638C364.497 363.735 378.791 357.689 382.997 355.986" stroke="#1B3B2B" stroke-width="0.5" stroke-linecap="round" stroke-linejoin="round"/>
<path d="M369.873 361.713C369.879 361.722 369.88 361.73 369.888 361.737C371.887 363.776 374.719 364.505 377.555 365.135" stroke="#1B3B2B" stroke-width="0.5" stroke-linecap="round" stroke-linejoin="round"/>
<path d="M348.626 371.212C350.026 371.707 351.509 371.934 353.03 371.882" stroke="#1B3B2B" stroke-width="0.5" stroke-linecap="round" stroke-linejoin="round"/>
<path d="M312.753 393.46C312.753 394.683 312.891 395.879 313.154 397.029C314.107 401.208 316.699 404.819 320.273 407.247H341.605C345.175 404.819 347.767 401.208 348.721 397.029C348.983 395.879 349.121 394.683 349.121 393.46C349.121 392.185 348.971 390.941 348.685 389.749C348.447 388.731 348.107 387.75 347.684 386.813H314.194C313.767 387.75 313.43 388.731 313.19 389.749C312.903 390.941 312.753 392.185 312.753 393.46Z" fill="#4D7E66"/>
<path d="M341.044 386.813H347.685C348.108 387.75 348.448 388.731 348.686 389.75C348.972 390.942 349.121 392.185 349.121 393.46C349.121 394.683 348.984 395.879 348.722 397.03C347.768 401.209 345.176 404.819 341.606 407.247H338.653C342.224 404.819 343.888 393.735 341.044 386.813Z" fill="#243C30" fill-opacity="0.31"/>
<path d="M315.48 388.499C315.786 387.302 317.755 387.81 317.45 389.008C316.626 392.238 316.152 395.699 317.904 398.743C318.528 399.828 316.764 400.794 316.14 399.709C314.114 396.188 314.522 392.255 315.48 388.499Z" fill="white"/>
<path d="M106.279 246.673L110.847 240.822C110.847 240.822 110.533 224.638 97.121 225.094C97.121 225.094 86.8925 225.151 86.6004 241.887C86.3082 258.623 106.279 246.673 106.279 246.673Z" stroke="#3A6E55" stroke-miterlimit="10"/>
<path d="M111.338 240.937L110.833 269.847C110.818 270.702 105.154 271.854 98.1943 271.732C91.2344 271.611 85.612 270.262 85.627 269.407L86.1316 240.497L111.338 240.937Z" fill="#1EFF92"/>
<path d="M86.1314 240.497C86.1165 241.352 91.7476 242.143 98.7065 242.265C105.667 242.386 111.323 241.792 111.338 240.937C111.353 240.082 105.721 239.291 98.7605 239.169C91.8016 239.048 86.1464 239.642 86.1314 240.497Z" fill="#0FFF8B"/>
<path d="M108.564 241.61C106.673 242.066 102.63 242.334 97.9366 242.252C93.2443 242.17 89.2118 241.761 87.3376 241.239C89.2289 240.784 93.2731 240.517 97.9654 240.598C102.659 240.68 106.69 241.089 108.564 241.61Z" fill="#73C89F"/>
<path d="M110.892 266.39L110.832 269.846C110.817 270.701 105.153 271.853 98.1932 271.731C91.2332 271.61 85.6119 270.261 85.6268 269.407L86.0835 243.245C87.8885 256.039 94.9845 265.671 110.892 266.39Z" fill="#19FF90"/>
<path d="M109.191 241.321C110.299 241.15 111.277 242.049 111.179 243.165C110.935 245.919 110.404 248.865 109.359 247.877C107.833 246.435 108.005 241.988 106.515 243.66C105.16 245.181 103.182 250.387 102.487 245.998C101.791 241.61 100.027 242.204 99.5134 243.479C98.8411 245.147 99.7767 250.451 97.793 250.416C95.4094 250.374 96.4768 243.826 94.6011 243.393C92.9067 243.001 93.6001 245.336 92.1114 247.309C90.3176 249.686 90.0318 243.313 89.006 243.295C86.7963 243.257 86.7888 246.61 86.0536 245.007C85.6461 244.119 85.6957 242.825 85.8207 241.85C85.9145 241.117 86.6084 240.616 87.3351 240.753C90.6208 241.369 99.8187 242.775 109.191 241.321Z" fill="#ABE7CA"/>
<path d="M128.201 174.346L126.169 169.568C126.169 169.568 123.188 170.465 120.427 176.213C117.666 181.961 111.122 209.563 100.705 218.296C100.705 218.296 98.2416 221.601 96.1055 223.176C95.2506 223.805 94.8384 224.896 94.8579 225.972C94.896 227.96 102.017 222.527 104.068 221.147C104.068 221.147 119.304 212.799 124.937 202.205C130.571 191.611 128.201 174.346 128.201 174.346Z" fill="#00BE62"/>
<path d="M128.2 174.347L126.169 169.568C126.169 169.568 123.188 170.465 120.427 176.213C117.666 181.961 111.121 209.564 100.704 218.297C100.704 218.297 98.2407 221.601 96.1046 223.176C95.455 223.653 103.317 222.762 103.661 220.742C103.661 220.742 119.303 212.8 124.937 202.206C130.57 191.612 128.2 174.347 128.2 174.347Z" fill="#51A87E"/>
<path d="M96.1035 223.175C98.2407 221.601 100.703 218.298 100.703 218.298C103.11 216.279 105.309 213.245 107.305 209.714C109.511 210.594 112.225 212.122 113.718 214.619C108.65 218.634 103.167 221.87 103.167 221.87C101.819 225.348 100.785 224.669 100.785 224.669C99.6984 224.507 99 225.324 98.5577 226.301C97.6498 228.302 94.5432 227.396 94.9128 225.23C95.0505 224.417 95.4465 223.659 96.1035 223.175Z" fill="#ABFBD5"/>
<path d="M137.781 223.989L130.534 256.596C130.534 256.596 119.507 300.93 119.39 304.296C119.272 307.662 113.326 310.623 111.673 309.722C110.019 308.822 112.243 305.69 112.331 303.165C112.419 300.641 109.312 279.237 110.461 270.43C111.312 263.916 114.005 257.467 115.348 254.55C115.854 253.453 116.065 252.251 115.973 251.048C115.407 243.665 113.735 216.737 118.73 208.579C124.538 199.092 137.781 223.989 137.781 223.989Z" fill="#65FAB2"/>
<path d="M137.781 223.989L130.534 256.596C130.534 256.596 119.507 300.93 119.39 304.296C119.272 307.662 117.624 312.15 111.673 309.722C109.929 309.012 112.243 305.69 112.331 303.165C112.419 300.641 109.312 279.237 110.461 270.43C111.312 263.916 114.005 257.467 115.348 254.55C115.854 253.453 116.065 252.251 115.973 251.048C115.407 243.666 113.735 216.737 118.73 208.579C124.538 199.092 137.781 223.989 137.781 223.989Z" fill="#3A6E55"/>
<path d="M119.47 303.605C120.106 298.106 125.584 262.69 126.42 258.191C127.323 253.325 124.921 222.589 124.921 222.589L127.995 219.225L135.144 219.475C136.753 222.056 137.781 223.989 137.781 223.989L130.534 256.597C130.534 256.597 120.471 297.056 119.47 303.605Z" fill="#2D2D2D" fill-opacity="0.3"/>
<path d="M112.032 304.654C118.535 306.734 119.387 304.296 119.387 304.296C119.27 307.663 129.427 312.379 128.941 314.258C128.453 316.136 112.148 312.618 110.493 311.717C109.122 310.971 111.224 307.319 112.032 304.654Z" fill="#0B120F"/>
<path d="M113.871 305.155C113.603 306.444 113.587 308.723 115.936 310.797C118.515 313.077 124.985 314.234 128.244 314.688C125.054 315.395 111.967 312.52 110.494 311.718C109.122 310.972 111.224 307.321 112.032 304.655C112.709 304.872 113.311 305.03 113.871 305.155Z" fill="#0B120F"/>
<path d="M168.888 232.808C168.683 231.012 168.87 232.807 168.87 232.807C169.018 230.255 168.78 227.596 165.805 224.027C160.829 218.058 146.269 204.068 126.734 204.798L116.258 213.716C116.258 213.716 118.582 216.872 122.801 220.663C126.494 223.982 140.058 231.686 148.078 234.941C156.1 238.195 169.491 238.094 168.888 232.808Z" fill="#3A6E55"/>
<path d="M168.874 232.971L168.892 232.972C168.892 232.972 169.674 236.791 159.748 254.139C159.748 254.139 146.506 275.951 147.494 279.303C147.494 279.303 147.542 282.464 152.705 283.909C157.868 285.352 158.258 287.736 156.838 287.687C155.418 287.637 139.476 287.238 138.732 285.948C137.987 284.658 140.407 280.479 140.489 278.112C140.753 270.563 141.215 262.981 142.696 255.559C143.071 253.68 145.935 241.568 148.799 237.293C149.404 236.391 149.047 235.172 148.049 234.742C153.608 221.933 168.859 229.024 168.874 232.971Z" fill="#3A6E55"/>
<path d="M147.494 279.303C148.223 281.066 151.141 283.471 152.705 283.909C157.868 285.353 158.258 287.736 156.838 287.686C155.418 287.637 139.475 287.238 138.731 285.947C138.237 285.092 139.678 281.081 140.365 279.054C144.167 280.209 145.636 280.502 147.494 279.303Z" fill="#0B120F"/>
<path d="M138.732 285.948C138.238 285.092 139.679 281.081 140.365 279.054C140.44 279.076 140.508 279.097 140.581 279.119C140.842 281.019 141.85 284.996 145.728 285.59C150.853 286.376 156.839 287.686 156.839 287.686C155.419 287.636 139.476 287.238 138.732 285.948Z" fill="#0B120F"/>
<path d="M148.049 234.742C148.049 234.742 153.296 236.443 151.501 238.088C144.92 244.117 141.371 260.664 140.931 269.387C140.931 269.387 141.98 253.487 145.907 243.906C145.907 243.906 147.382 239.365 148.8 237.292C148.8 237.292 149.748 235.503 148.049 234.742Z" fill="#2D2D2D" fill-opacity="0.3"/>
<path d="M125.551 163.246C128.213 166.352 126.61 171.271 126.61 171.271C126.61 171.271 133.631 171.032 136.728 170.438L137.585 168.352C136.321 167.269 135.307 166.152 135.608 163.475C136.635 162.978 123.173 162.283 125.551 163.246Z" fill="#ABFBD5"/>
<path d="M125.552 163.246C128.214 166.352 126.61 171.271 126.61 171.271C126.61 171.271 133.631 171.032 136.728 170.438L137.585 168.352C136.321 167.269 135.307 166.152 135.608 163.475C136.635 162.978 123.174 162.283 125.552 163.246Z" fill="#3FFDA1"/>
<path d="M138.363 161.413C128.165 162.258 123.635 150.261 123.635 150.261L119.113 154.99L119.858 158.739C121.479 160.948 123.174 162.283 125.552 163.247C128.214 166.352 134.517 163.92 135.608 163.476C136.635 162.978 137.57 162.291 138.363 161.413Z" fill="#ABFBD5"/>
<path d="M125.65 142.729C125.65 142.729 129.143 142.374 131.912 144.582C134.682 146.791 136.064 149.671 137.309 150.319C138.593 150.988 139.301 151.072 139.301 151.072C139.301 151.072 139.652 152.051 138.672 153.147C138.672 153.147 141.166 157.433 139.146 160.416C136.68 164.058 132.13 165.2 127.946 164.045C123.748 162.888 121.437 161.28 119.067 157.59C116.697 153.899 117.24 143.332 125.65 142.729Z" fill="#ABFBD5"/>
<path d="M138.363 161.414C128.165 162.259 123.635 150.262 123.635 150.262L119.113 154.99L119.858 158.739C121.479 160.948 123.174 162.283 125.552 163.247C128.214 166.352 135.046 163.842 135.608 163.476C136.635 162.978 137.57 162.292 138.363 161.414Z" fill="#3FFDA1"/>
<path d="M123.686 145.967C123.686 145.967 130.476 142.634 137.512 142.272C137.512 142.272 137.479 143.378 133.973 144.431C132.228 144.955 137.603 144.309 137.603 144.309C137.603 144.309 136.382 148.595 126.356 151.068C116.329 153.54 123.686 145.967 123.686 145.967Z" fill="#0B120F"/>
<path d="M119.879 147.088C119.879 147.088 127.737 146.166 123.333 155.524C121.726 158.94 129.098 162.575 127.657 166.455C126.899 168.499 125.821 169.229 125.821 169.229C125.821 169.229 126.198 167.85 122.923 165.467C119.649 163.085 116.295 160.009 116.176 154.955C116.055 149.902 119.879 147.088 119.879 147.088Z" fill="#0B120F"/>
<path d="M123.058 163.032C123.681 164.388 124.028 165.54 124.201 166.509C123.852 166.187 123.436 165.841 122.924 165.468C119.65 163.085 116.295 160.009 116.175 154.956C116.175 154.908 116.179 154.864 116.178 154.817L130.956 145.645C130.956 145.645 118.859 153.877 123.058 163.032Z" fill="#0B120F"/>
<path d="M136.95 139.531C136.95 139.531 123.47 153.792 114.921 159.935C114.63 160.145 114.256 159.815 114.422 159.497L114.894 158.596C115.143 158.119 115.13 157.549 114.854 157.086C113.456 154.737 109.793 147.032 117.6 141.077C120.321 139.001 124.657 137.299 129.929 140.562C130.979 141.212 132.334 141.083 133.285 140.293C134.965 138.897 137.363 137.037 137.871 137.336C138.669 137.807 136.95 139.531 136.95 139.531Z" fill="#1EFF92"/>
<path d="M124.38 149.703C119.009 152.204 115.435 149.032 113.482 146.233C111.638 150.86 113.839 155.382 114.854 157.087C115.129 157.55 115.143 158.119 114.893 158.596L114.422 159.497C114.255 159.815 114.629 160.146 114.92 159.936C119.303 156.787 124.978 151.506 129.472 147.105C128.272 147.799 126.632 148.655 124.38 149.703Z" fill="#19FF90"/>
<path d="M124.905 154.973C124.905 154.973 121.62 154.115 121.449 156.184C121.278 158.255 123.634 160.233 125.174 159.588" fill="#3FFDA1"/>
<path d="M124.905 154.973C124.905 154.973 121.62 154.115 121.449 156.184C121.278 158.255 123.634 160.233 125.174 159.588" fill="#ABFBD5"/>
<path d="M124.905 154.973C124.905 154.973 121.62 154.115 121.449 156.184C121.278 158.255 123.634 160.233 125.174 159.588" fill="#3FFDA1"/>
<path d="M140.531 166.566C136.535 168.237 132.16 169.35 127.364 169.455C127.364 169.455 124.993 170.126 124.682 173.084C124.372 176.04 117.875 200.661 116.403 212.468C116.403 212.468 128.223 220.38 147.416 210.666L147.603 182.623C147.603 182.623 148.407 175.779 147.559 173.473C144.805 165.982 140.531 166.566 140.531 166.566Z" fill="#51A87E"/>
<path d="M147.603 182.623L147.415 210.666C147.415 210.666 130.972 220.484 116.403 212.467C116.403 212.467 142.357 209.194 147.603 182.623Z" fill="#00BE62" fill-opacity="0.19"/>
<path d="M139.882 184.288C140.925 184.825 142.217 184.453 142.809 183.425L169.522 136.989C170.13 135.931 169.767 134.581 168.709 133.971C167.658 133.364 166.299 133.727 165.69 134.785L138.976 181.22C138.367 182.278 138.732 183.629 139.79 184.238C139.82 184.256 139.851 184.272 139.882 184.288Z" fill="#0B120F"/>
<path d="M165.691 134.785C166.171 133.952 167.115 133.559 168.007 133.722C167.927 133.818 167.85 133.918 167.785 134.03L141.071 180.465C140.463 181.524 140.827 182.874 141.885 183.484C141.915 183.501 141.947 183.518 141.977 183.533C142.174 183.635 142.381 183.694 142.59 183.732C141.937 184.519 140.813 184.768 139.882 184.289C139.852 184.273 139.821 184.256 139.791 184.239C138.733 183.629 138.369 182.279 138.977 181.22L165.691 134.785Z" fill="#0B120F"/>
<path d="M156.422 129.422L178.521 142.136C179.222 142.54 180.118 142.296 180.52 141.594L183.767 135.908C184.167 135.208 183.926 134.316 183.228 133.915L180.458 132.322L161.127 121.2C160.426 120.797 159.53 121.04 159.128 121.744L155.88 127.43C155.48 128.129 155.724 129.019 156.422 129.422Z" fill="#1EFF92"/>
<path d="M183.363 137.814L184.211 136.287C184.776 135.27 184.411 133.988 183.395 133.42L161.807 121.351C160.291 120.569 159.548 121.09 158.905 122.037L158.098 123.223C157.72 123.781 157.978 124.589 158.634 124.742C158.934 124.812 159.253 124.731 159.529 124.319C160.32 123.14 161.732 123.754 160.667 125.546C158.717 128.822 159.332 130.505 161.001 129.988C162.668 129.472 164.824 125.643 164.736 126.878C164.649 128.114 163.289 129.991 165.267 130.803C166.38 131.259 168.414 127.553 167.963 128.784C167.511 130.015 167.281 131.055 168.175 131.332C169.069 131.61 169.337 130.678 169.849 131.219C170.701 132.12 169.021 135.106 170.714 135.984C173.348 137.349 174.323 132.182 175.134 133.331C175.944 134.481 175.856 136.044 177.4 136.389C178.997 136.746 180.846 133.265 181.71 135.303C182.243 136.564 181.655 139.922 183.363 137.814Z" fill="#ABE7CA"/>
<path d="M166.793 177.767C159.4 175.627 150.601 172.768 143.544 166.572C138.893 164.907 131.486 176.936 138.655 184.677L139.186 185.135C139.186 185.135 145.919 189.519 158.131 190.166C164.42 191.44 171.534 182.342 166.793 177.767Z" fill="#51A87E"/>
<path d="M168.146 180.02C159.263 179.481 149.977 176.76 145.171 168.758L145.802 168.416C152.419 173.366 160.173 175.85 166.794 177.766C168.105 178.985 167.977 179.427 168.146 180.02Z" fill="#00BE62" fill-opacity="0.18"/>
<path d="M160.643 144.597C159.782 143.958 158.578 144.604 158.568 145.676C158.555 147.098 158.139 148.821 156.505 149.976C153.279 152.255 154.987 152.653 157.377 155.431C157.377 155.431 159.071 169.491 155.787 178.623C153.099 185.57 166.469 194.456 167.803 186.159C168.427 178.627 167.719 169.108 163.982 157.757C163.497 156.285 162.912 154.829 162.056 153.536C161.772 153.107 161.588 152.464 161.98 151.603C163.319 148.673 163.215 146.504 160.643 144.597Z" fill="#51A87E"/>
<path d="M157.376 155.43C157.376 155.43 160.529 171.271 156.7 184.508C156.323 183.858 154.599 180.833 155.789 178.623C159.072 169.49 157.376 155.43 157.376 155.43Z" fill="#00BE62" fill-opacity="0.18"/>
<path d="M157.375 155.431C154.985 152.652 153.279 152.254 156.504 149.975C158.137 148.822 158.555 147.097 158.569 145.677C158.579 144.604 159.782 143.958 160.643 144.597C163.215 146.505 163.318 148.672 161.98 151.603C161.587 152.463 161.773 153.107 162.057 153.535C162.913 154.827 163.497 156.285 163.981 157.756C164.794 160.226 165.448 162.598 165.992 164.892C162.296 165.69 159.518 165.484 157.8 165.149C157.894 159.747 157.375 155.431 157.375 155.431Z" fill="#ABFBD5"/>
<path d="M240.543 218.375C246.483 218.375 249.973 215.035 249.973 209.235V198.595H243.553V209.035C243.553 211.995 242.423 213.095 240.603 213.095C238.773 213.095 237.643 211.995 237.643 209.035V198.595H231.123V209.235C231.123 215.035 234.603 218.375 240.543 218.375Z" fill="#4C8569"/>
<path d="M265.516 198.595V207.375L258.166 198.595H252.806V217.935H259.156V209.145L266.506 217.935H271.866V198.595H265.516Z" fill="#4C8569"/>
<path d="M281.387 212.855V203.675H284.117C286.857 203.675 288.737 205.305 288.737 208.265C288.737 211.215 286.857 212.855 284.117 212.855H281.387ZM274.867 217.935H284.397C290.867 217.935 295.307 214.255 295.307 208.265C295.307 202.265 290.867 198.595 284.397 198.595H274.867V217.935Z" fill="#4C8569"/>
<path d="M303.943 213.015V210.475H312.123V205.775H303.943V203.505H313.253V198.595H297.533V217.935H313.613V213.015H303.943Z" fill="#4C8569"/>
<path d="M327.55 205.885C327.55 207.295 326.69 208.155 324.89 208.155H322.52V203.625H324.89C326.69 203.625 327.55 204.475 327.55 205.885ZM327.57 217.935H334.54L330.48 211.965C332.8 210.775 334.12 208.675 334.12 205.885C334.12 201.405 330.7 198.595 325.31 198.595H316V217.935H322.52V213.075H324.29L327.57 217.935Z" fill="#4C8569"/>
<path d="M241.293 242.895C245.073 242.895 248.063 241.515 249.973 239.025L245.853 235.355C244.723 236.795 243.363 237.615 241.623 237.615C238.913 237.615 237.093 235.735 237.093 232.785C237.093 229.825 238.913 227.945 241.623 227.945C243.363 227.945 244.723 228.775 245.853 230.215L249.973 226.535C248.063 224.055 245.073 222.665 241.293 222.665C235.073 222.665 230.513 226.845 230.513 232.785C230.513 238.725 235.073 242.895 241.293 242.895Z" fill="#4C8569"/>
<path d="M261.436 237.615C259.026 237.615 257.096 235.795 257.096 232.785C257.096 229.775 259.026 227.945 261.436 227.945C263.836 227.945 265.776 229.775 265.776 232.785C265.776 235.795 263.836 237.615 261.436 237.615ZM261.436 242.895C267.736 242.895 272.346 238.645 272.346 232.785C272.346 226.925 267.736 222.665 261.436 222.665C255.136 222.665 250.516 226.925 250.516 232.785C250.516 238.645 255.136 242.895 261.436 242.895Z" fill="#4C8569"/>
<path d="M287.276 223.115V231.895L279.926 223.115H274.566V242.455H280.916V233.665L288.266 242.455H293.626V223.115H287.276Z" fill="#4C8569"/>
<path d="M303.837 242.895C309.827 242.895 312.847 239.915 312.847 236.375C312.847 229.245 302.147 231.185 302.147 228.855C302.147 228.195 302.757 227.645 304.667 227.645C306.347 227.645 308.147 228.115 310.057 229.075L312.017 224.355C309.997 223.225 307.317 222.665 304.717 222.665C298.727 222.665 295.707 225.595 295.707 229.195C295.707 236.405 306.407 234.445 306.407 236.875C306.407 237.535 305.737 237.925 303.887 237.925C301.767 237.925 299.327 237.235 297.507 236.155L295.407 240.905C297.337 242.095 300.597 242.895 303.837 242.895Z" fill="#4C8569"/>
<path d="M318.855 242.455H325.375V228.165H331.035V223.115H313.185V228.165H318.855V242.455Z" fill="#4C8569"/>
<path d="M344.425 230.405C344.425 231.815 343.565 232.675 341.765 232.675H339.395V228.145H341.765C343.565 228.145 344.425 228.995 344.425 230.405ZM344.445 242.455H351.415L347.355 236.485C349.675 235.295 350.995 233.195 350.995 230.405C350.995 225.925 347.575 223.115 342.185 223.115H332.875V242.455H339.395V237.595H341.165L344.445 242.455Z" fill="#4C8569"/>
<path d="M362.568 242.895C368.508 242.895 371.998 239.555 371.998 233.755V223.115H365.578V233.555C365.578 236.515 364.448 237.615 362.628 237.615C360.798 237.615 359.668 236.515 359.668 233.555V223.115H353.148V233.755C353.148 239.555 356.628 242.895 362.568 242.895Z" fill="#4C8569"/>
<path d="M384.831 242.895C388.611 242.895 391.601 241.515 393.511 239.025L389.391 235.355C388.261 236.795 386.901 237.615 385.161 237.615C382.451 237.615 380.631 235.735 380.631 232.785C380.631 229.825 382.451 227.945 385.161 227.945C386.901 227.945 388.261 228.775 389.391 230.215L393.511 226.535C391.601 224.055 388.611 222.665 384.831 222.665C378.611 222.665 374.051 226.845 374.051 232.785C374.051 238.725 378.611 242.895 384.831 242.895Z" fill="#4C8569"/>
<path d="M399.035 242.455H405.555V228.165H411.215V223.115H393.365V228.165H399.035V242.455Z" fill="#4C8569"/>
<path d="M413.055 242.455H419.575V223.115H413.055V242.455Z" fill="#4C8569"/>
<path d="M432.799 237.615C430.389 237.615 428.459 235.795 428.459 232.785C428.459 229.775 430.389 227.945 432.799 227.945C435.199 227.945 437.139 229.775 437.139 232.785C437.139 235.795 435.199 237.615 432.799 237.615ZM432.799 242.895C439.099 242.895 443.709 238.645 443.709 232.785C443.709 226.925 439.099 222.665 432.799 222.665C426.499 222.665 421.879 226.925 421.879 232.785C421.879 238.645 426.499 242.895 432.799 242.895Z" fill="#4C8569"/>
<path d="M458.638 223.115V231.895L451.288 223.115H445.928V242.455H452.278V233.665L459.628 242.455H464.988V223.115H458.638Z" fill="#4C8569"/>
<path d="M258.403 266.015C259.503 266.015 260.443 265.635 261.083 264.915L260.433 264.275C259.893 264.855 259.233 265.125 258.453 265.125C256.873 265.125 255.693 263.975 255.693 262.425C255.693 260.865 256.873 259.725 258.453 259.725C259.233 259.725 259.893 259.985 260.433 260.555L261.083 259.925C260.443 259.205 259.503 258.835 258.413 258.835C256.283 258.835 254.693 260.345 254.693 262.425C254.693 264.505 256.283 266.015 258.403 266.015Z" fill="white"/>
<path d="M264.454 265.155C263.434 265.155 262.654 264.415 262.654 263.275C262.654 262.145 263.434 261.415 264.454 261.415C265.474 261.415 266.244 262.145 266.244 263.275C266.244 264.415 265.474 265.155 264.454 265.155ZM264.454 265.995C266.044 265.995 267.214 264.865 267.214 263.275C267.214 261.695 266.044 260.565 264.454 260.565C262.854 260.565 261.684 261.695 261.684 263.275C261.684 264.865 262.854 265.995 264.454 265.995Z" fill="white"/>
<path d="M271.339 260.565C270.499 260.565 269.819 260.875 269.429 261.425V260.615H268.499V265.935H269.469V263.195C269.469 262.045 270.129 261.435 271.149 261.435C272.059 261.435 272.589 261.945 272.589 262.985V265.935H273.549V262.875C273.549 261.315 272.639 260.565 271.339 260.565Z" fill="white"/>
<path d="M277.972 264.935C277.772 265.095 277.502 265.185 277.222 265.185C276.692 265.185 276.392 264.865 276.392 264.295V261.415H277.912V260.615H276.392V259.455H275.422V260.615H274.522V261.415H275.422V264.335C275.422 265.405 276.042 265.995 277.112 265.995C277.542 265.995 277.982 265.875 278.272 265.625L277.972 264.935Z" fill="white"/>
<path d="M280.996 265.255C280.266 265.255 279.816 264.925 279.816 264.395C279.816 263.935 280.096 263.565 281.046 263.565H282.526V264.315C282.286 264.925 281.716 265.255 280.996 265.255ZM281.216 260.565C280.366 260.565 279.566 260.805 279.016 261.255L279.416 261.975C279.826 261.625 280.476 261.405 281.106 261.405C282.056 261.405 282.526 261.875 282.526 262.685V262.875H281.006C279.416 262.875 278.866 263.575 278.866 264.435C278.866 265.355 279.626 265.995 280.836 265.995C281.666 265.995 282.256 265.715 282.576 265.235V265.935H283.496V262.725C283.496 261.275 282.666 260.565 281.216 260.565Z" fill="white"/>
<path d="M287.552 265.995C288.502 265.995 289.302 265.595 289.722 264.855L288.982 264.395C288.642 264.915 288.122 265.155 287.542 265.155C286.502 265.155 285.712 264.435 285.712 263.275C285.712 262.145 286.502 261.415 287.542 261.415C288.122 261.415 288.642 261.655 288.982 262.175L289.722 261.705C289.302 260.955 288.502 260.565 287.552 260.565C285.912 260.565 284.742 261.695 284.742 263.275C284.742 264.865 285.912 265.995 287.552 265.995Z" fill="white"/>
<path d="M293.529 264.935C293.329 265.095 293.059 265.185 292.779 265.185C292.249 265.185 291.949 264.865 291.949 264.295V261.415H293.469V260.615H291.949V259.455H290.979V260.615H290.079V261.415H290.979V264.335C290.979 265.405 291.599 265.995 292.669 265.995C293.099 265.995 293.539 265.875 293.829 265.625L293.529 264.935Z" fill="white"/>
<path d="M300.562 266.015C302.422 266.015 303.532 264.945 303.532 262.905V258.915H302.562V262.865C302.562 264.425 301.842 265.125 300.572 265.125C299.312 265.125 298.602 264.425 298.602 262.865V258.915H297.592V262.905C297.592 264.945 298.722 266.015 300.562 266.015Z" fill="white"/>
<path d="M306.921 265.995C308.331 265.995 309.211 265.385 309.211 264.425C309.211 262.355 305.841 263.375 305.841 262.125C305.841 261.705 306.261 261.395 307.101 261.395C307.621 261.395 308.151 261.505 308.631 261.815L309.041 261.055C308.581 260.745 307.801 260.565 307.111 260.565C305.741 260.565 304.891 261.215 304.891 262.165C304.891 264.275 308.251 263.245 308.251 264.445C308.251 264.895 307.881 265.165 306.991 265.165C306.301 265.165 305.571 264.935 305.121 264.615L304.721 265.375C305.161 265.725 306.031 265.995 306.921 265.995Z" fill="white"/>
</g>
</g>
<defs>
<clipPath id="clip0_330_5458">
<rect width="500" height="500" fill="white" transform="translate(0.212646 0.434937)"/>
</clipPath>
</defs>
</svg>
