<svg xmlns="http://www.w3.org/2000/svg" xmlns:xlink="http://www.w3.org/1999/xlink" width="512" zoomAndPan="magnify" viewBox="0 0 384 95.999999" height="128" preserveAspectRatio="xMidYMid meet" version="1.0"><defs><g/><clipPath id="06d142768c"><path d="M 0 9.089844 L 79.5 9.089844 L 79.5 88.589844 L 0 88.589844 Z M 0 9.089844 " clip-rule="nonzero"/></clipPath></defs><g clip-path="url(#06d142768c)"><path fill="#00bf63" d="M 10.417969 80.441406 L 11.523438 81.539062 L 11.636719 81.648438 C 15.082031 85.21875 15.046875 90.96875 11.523438 94.492188 C 8.003906 98.011719 2.253906 98.050781 -1.316406 94.601562 L -1.429688 94.492188 L -2.535156 93.394531 L -5.554688 90.367188 C -9.113281 86.808594 -9.113281 80.984375 -5.554688 77.414062 C -1.996094 73.855469 3.839844 73.855469 7.398438 77.414062 Z M 71.511719 30.328125 L 72.585938 29.257812 L 73.816406 28.027344 L 85.105469 16.734375 C 88.664062 13.175781 88.664062 7.351562 85.105469 3.78125 C 81.535156 0.222656 75.710938 0.222656 72.152344 3.78125 L 60.863281 15.074219 L 59.632812 16.304688 L 58.558594 17.375 L 52.082031 23.851562 C 48.523438 27.410156 48.523438 33.234375 52.082031 36.804688 L 58.558594 43.28125 L 59.71875 44.425781 L 72.238281 56.949219 C 75.796875 60.507812 81.621094 60.507812 85.191406 56.949219 C 88.75 53.390625 88.75 47.554688 85.191406 43.996094 L 72.671875 31.472656 Z M -5.035156 3.867188 L -5.035156 3.855469 C -1.476562 0.296875 4.359375 0.296875 7.917969 3.855469 L 85.019531 80.972656 C 88.589844 84.53125 88.589844 90.367188 85.019531 93.925781 C 81.460938 97.484375 75.636719 97.484375 72.066406 93.925781 L -5.035156 16.808594 C -8.59375 13.25 -8.59375 7.425781 -5.035156 3.867188 Z M -5.148438 40.78125 C -1.589844 37.222656 4.234375 37.222656 7.804688 40.78125 L 48.105469 81.082031 C 51.664062 84.640625 51.664062 90.476562 48.105469 94.035156 C 44.535156 97.59375 38.710938 97.59375 35.152344 94.035156 L -5.148438 53.734375 C -8.707031 50.175781 -8.707031 44.339844 -5.148438 40.78125 Z M -5.148438 40.78125 " fill-opacity="1" fill-rule="evenodd"/></g><g fill="#000000" fill-opacity="1"><g transform="translate(89.44277, 46.63157)"><g><path d="M 11.203125 0 L 1.328125 -37.328125 L 8.640625 -37.328125 L 15.359375 -7.625 L 23.25 -37.328125 L 30.765625 -37.328125 L 38.453125 -7.625 L 45.171875 -37.328125 L 52.53125 -37.328125 L 42.390625 0 L 34.296875 0 L 26.875 -27.671875 L 19.25 0 Z M 11.203125 0 "/></g></g></g><g fill="#000000" fill-opacity="1"><g transform="translate(151.553901, 46.63157)"><g><path d="M 3.625 0 L 3.625 -37.328125 L 28 -37.328125 L 28 -31.84375 L 10.453125 -31.84375 L 10.453125 -21.59375 L 26.390625 -21.59375 L 26.390625 -16.265625 L 10.453125 -16.265625 L 10.453125 -5.5 L 28 -5.5 L 28 0 Z M 3.625 0 "/></g></g></g><g fill="#000000" fill-opacity="1"><g transform="translate(190.634694, 46.63157)"><g><path d="M 3.625 0 L 3.625 -37.328125 L 18.609375 -37.328125 C 22.484375 -37.328125 25.441406 -36.425781 27.484375 -34.625 C 29.535156 -32.832031 30.5625 -30.535156 30.5625 -27.734375 C 30.5625 -25.378906 29.925781 -23.5 28.65625 -22.09375 C 27.394531 -20.695312 25.859375 -19.75 24.046875 -19.25 C 26.179688 -18.820312 27.941406 -17.765625 29.328125 -16.078125 C 30.710938 -14.390625 31.40625 -12.425781 31.40625 -10.1875 C 31.40625 -7.238281 30.335938 -4.800781 28.203125 -2.875 C 26.078125 -0.957031 23.054688 0 19.140625 0 Z M 10.453125 -21.65625 L 17.59375 -21.65625 C 19.519531 -21.65625 21 -22.097656 22.03125 -22.984375 C 23.0625 -23.867188 23.578125 -25.128906 23.578125 -26.765625 C 23.578125 -28.328125 23.066406 -29.5625 22.046875 -30.46875 C 21.035156 -31.382812 19.515625 -31.84375 17.484375 -31.84375 L 10.453125 -31.84375 Z M 10.453125 -5.546875 L 18.078125 -5.546875 C 20.109375 -5.546875 21.679688 -6.015625 22.796875 -6.953125 C 23.921875 -7.898438 24.484375 -9.226562 24.484375 -10.9375 C 24.484375 -12.675781 23.894531 -14.039062 22.71875 -15.03125 C 21.539062 -16.03125 19.957031 -16.53125 17.96875 -16.53125 L 10.453125 -16.53125 Z M 10.453125 -5.546875 "/></g></g></g><g fill="#000000" fill-opacity="1"><g transform="translate(89.44277, 88.335578)"><g><path d="M 13.265625 0.53125 C 10.972656 0.53125 8.976562 0.113281 7.28125 -0.71875 C 5.582031 -1.550781 4.269531 -2.707031 3.34375 -4.1875 C 2.425781 -5.675781 1.96875 -7.40625 1.96875 -9.375 L 5.890625 -9.375 C 5.890625 -8.15625 6.171875 -7.03125 6.734375 -6 C 7.304688 -4.976562 8.132812 -4.160156 9.21875 -3.546875 C 10.300781 -2.941406 11.648438 -2.640625 13.265625 -2.640625 C 15.367188 -2.640625 17 -3.144531 18.15625 -4.15625 C 19.320312 -5.164062 19.90625 -6.429688 19.90625 -7.953125 C 19.90625 -9.203125 19.632812 -10.203125 19.09375 -10.953125 C 18.5625 -11.710938 17.84375 -12.332031 16.9375 -12.8125 C 16.03125 -13.289062 14.988281 -13.707031 13.8125 -14.0625 C 12.632812 -14.414062 11.410156 -14.816406 10.140625 -15.265625 C 7.722656 -16.097656 5.929688 -17.128906 4.765625 -18.359375 C 3.609375 -19.597656 3.03125 -21.21875 3.03125 -23.21875 C 3 -24.882812 3.382812 -26.363281 4.1875 -27.65625 C 5 -28.945312 6.140625 -29.957031 7.609375 -30.6875 C 9.085938 -31.414062 10.835938 -31.78125 12.859375 -31.78125 C 14.847656 -31.78125 16.578125 -31.40625 18.046875 -30.65625 C 19.523438 -29.914062 20.671875 -28.890625 21.484375 -27.578125 C 22.304688 -26.273438 22.734375 -24.789062 22.765625 -23.125 L 18.84375 -23.125 C 18.84375 -23.988281 18.617188 -24.84375 18.171875 -25.6875 C 17.722656 -26.539062 17.046875 -27.234375 16.140625 -27.765625 C 15.234375 -28.296875 14.09375 -28.5625 12.71875 -28.5625 C 11.019531 -28.59375 9.628906 -28.160156 8.546875 -27.265625 C 7.460938 -26.378906 6.921875 -25.144531 6.921875 -23.5625 C 6.921875 -22.226562 7.300781 -21.203125 8.0625 -20.484375 C 8.820312 -19.773438 9.882812 -19.1875 11.25 -18.71875 C 12.613281 -18.257812 14.191406 -17.734375 15.984375 -17.140625 C 17.472656 -16.609375 18.8125 -15.984375 20 -15.265625 C 21.1875 -14.554688 22.113281 -13.632812 22.78125 -12.5 C 23.457031 -11.363281 23.796875 -9.921875 23.796875 -8.171875 C 23.796875 -6.679688 23.40625 -5.273438 22.625 -3.953125 C 21.851562 -2.628906 20.6875 -1.550781 19.125 -0.71875 C 17.5625 0.113281 15.609375 0.53125 13.265625 0.53125 Z M 13.265625 0.53125 "/></g></g></g><g fill="#000000" fill-opacity="1"><g transform="translate(122.162942, 88.335578)"><g><path d="M 17.5 0.53125 C 14.4375 0.53125 11.75 -0.144531 9.4375 -1.5 C 7.132812 -2.851562 5.332031 -4.75 4.03125 -7.1875 C 2.738281 -9.625 2.09375 -12.4375 2.09375 -15.625 C 2.09375 -18.8125 2.738281 -21.613281 4.03125 -24.03125 C 5.332031 -26.457031 7.132812 -28.351562 9.4375 -29.71875 C 11.75 -31.09375 14.4375 -31.78125 17.5 -31.78125 C 20.59375 -31.78125 23.289062 -31.09375 25.59375 -29.71875 C 27.90625 -28.351562 29.703125 -26.457031 30.984375 -24.03125 C 32.265625 -21.613281 32.90625 -18.8125 32.90625 -15.625 C 32.90625 -12.4375 32.265625 -9.625 30.984375 -7.1875 C 29.703125 -4.75 27.90625 -2.851562 25.59375 -1.5 C 23.289062 -0.144531 20.59375 0.53125 17.5 0.53125 Z M 17.5 -2.765625 C 19.789062 -2.765625 21.804688 -3.273438 23.546875 -4.296875 C 25.285156 -5.328125 26.640625 -6.800781 27.609375 -8.71875 C 28.578125 -10.644531 29.0625 -12.945312 29.0625 -15.625 C 29.0625 -18.300781 28.578125 -20.59375 27.609375 -22.5 C 26.640625 -24.40625 25.285156 -25.867188 23.546875 -26.890625 C 21.804688 -27.921875 19.789062 -28.4375 17.5 -28.4375 C 15.207031 -28.4375 13.191406 -27.921875 11.453125 -26.890625 C 9.710938 -25.867188 8.359375 -24.40625 7.390625 -22.5 C 6.421875 -20.59375 5.9375 -18.300781 5.9375 -15.625 C 5.9375 -12.945312 6.421875 -10.644531 7.390625 -8.71875 C 8.359375 -6.800781 9.710938 -5.328125 11.453125 -4.296875 C 13.191406 -3.273438 15.207031 -2.765625 17.5 -2.765625 Z M 17.5 -2.765625 "/></g></g></g><g fill="#000000" fill-opacity="1"><g transform="translate(164.078209, 88.335578)"><g><path d="M 3.296875 0 L 3.296875 -31.25 L 7.046875 -31.25 L 7.046875 -2.984375 L 21.609375 -2.984375 L 21.609375 0 Z M 3.296875 0 "/></g></g></g><g fill="#000000" fill-opacity="1"><g transform="translate(194.432659, 88.335578)"><g><path d="M 14.59375 0.53125 C 12.457031 0.53125 10.515625 0.109375 8.765625 -0.734375 C 7.023438 -1.585938 5.632812 -2.90625 4.59375 -4.6875 C 3.550781 -6.46875 3.03125 -8.742188 3.03125 -11.515625 L 3.03125 -31.25 L 6.78125 -31.25 L 6.78125 -11.46875 C 6.78125 -8.4375 7.507812 -6.234375 8.96875 -4.859375 C 10.425781 -3.492188 12.332031 -2.8125 14.6875 -2.8125 C 17.039062 -2.8125 18.929688 -3.492188 20.359375 -4.859375 C 21.785156 -6.234375 22.5 -8.4375 22.5 -11.46875 L 22.5 -31.25 L 26.25 -31.25 L 26.25 -11.515625 C 26.25 -8.742188 25.726562 -6.46875 24.6875 -4.6875 C 23.644531 -2.90625 22.242188 -1.585938 20.484375 -0.734375 C 18.734375 0.109375 16.769531 0.53125 14.59375 0.53125 Z M 14.59375 0.53125 "/></g></g></g><g fill="#000000" fill-opacity="1"><g transform="translate(230.634473, 88.335578)"><g><path d="M 10.625 0 L 10.625 -28.171875 L 1.296875 -28.171875 L 1.296875 -31.25 L 23.703125 -31.25 L 23.703125 -28.171875 L 14.375 -28.171875 L 14.375 0 Z M 10.625 0 "/></g></g></g><g fill="#000000" fill-opacity="1"><g transform="translate(262.551197, 88.335578)"><g><path d="M 3.296875 0 L 3.296875 -31.25 L 7.046875 -31.25 L 7.046875 0 Z M 3.296875 0 "/></g></g></g><g fill="#000000" fill-opacity="1"><g transform="translate(279.827198, 88.335578)"><g><path d="M 17.5 0.53125 C 14.4375 0.53125 11.75 -0.144531 9.4375 -1.5 C 7.132812 -2.851562 5.332031 -4.75 4.03125 -7.1875 C 2.738281 -9.625 2.09375 -12.4375 2.09375 -15.625 C 2.09375 -18.8125 2.738281 -21.613281 4.03125 -24.03125 C 5.332031 -26.457031 7.132812 -28.351562 9.4375 -29.71875 C 11.75 -31.09375 14.4375 -31.78125 17.5 -31.78125 C 20.59375 -31.78125 23.289062 -31.09375 25.59375 -29.71875 C 27.90625 -28.351562 29.703125 -26.457031 30.984375 -24.03125 C 32.265625 -21.613281 32.90625 -18.8125 32.90625 -15.625 C 32.90625 -12.4375 32.265625 -9.625 30.984375 -7.1875 C 29.703125 -4.75 27.90625 -2.851562 25.59375 -1.5 C 23.289062 -0.144531 20.59375 0.53125 17.5 0.53125 Z M 17.5 -2.765625 C 19.789062 -2.765625 21.804688 -3.273438 23.546875 -4.296875 C 25.285156 -5.328125 26.640625 -6.800781 27.609375 -8.71875 C 28.578125 -10.644531 29.0625 -12.945312 29.0625 -15.625 C 29.0625 -18.300781 28.578125 -20.59375 27.609375 -22.5 C 26.640625 -24.40625 25.285156 -25.867188 23.546875 -26.890625 C 21.804688 -27.921875 19.789062 -28.4375 17.5 -28.4375 C 15.207031 -28.4375 13.191406 -27.921875 11.453125 -26.890625 C 9.710938 -25.867188 8.359375 -24.40625 7.390625 -22.5 C 6.421875 -20.59375 5.9375 -18.300781 5.9375 -15.625 C 5.9375 -12.945312 6.421875 -10.644531 7.390625 -8.71875 C 8.359375 -6.800781 9.710938 -5.328125 11.453125 -4.296875 C 13.191406 -3.273438 15.207031 -2.765625 17.5 -2.765625 Z M 17.5 -2.765625 "/></g></g></g><g fill="#000000" fill-opacity="1"><g transform="translate(321.742474, 88.335578)"><g><path d="M 3.296875 0 L 3.296875 -31.25 L 7.046875 -31.25 L 23.703125 -6.203125 L 23.703125 -31.25 L 27.453125 -31.25 L 27.453125 0 L 23.703125 0 L 7.046875 -25.046875 L 7.046875 0 Z M 3.296875 0 "/></g></g></g><g fill="#000000" fill-opacity="1"><g transform="translate(359.417296, 88.335578)"><g><path d="M 13.265625 0.53125 C 10.972656 0.53125 8.976562 0.113281 7.28125 -0.71875 C 5.582031 -1.550781 4.269531 -2.707031 3.34375 -4.1875 C 2.425781 -5.675781 1.96875 -7.40625 1.96875 -9.375 L 5.890625 -9.375 C 5.890625 -8.15625 6.171875 -7.03125 6.734375 -6 C 7.304688 -4.976562 8.132812 -4.160156 9.21875 -3.546875 C 10.300781 -2.941406 11.648438 -2.640625 13.265625 -2.640625 C 15.367188 -2.640625 17 -3.144531 18.15625 -4.15625 C 19.320312 -5.164062 19.90625 -6.429688 19.90625 -7.953125 C 19.90625 -9.203125 19.632812 -10.203125 19.09375 -10.953125 C 18.5625 -11.710938 17.84375 -12.332031 16.9375 -12.8125 C 16.03125 -13.289062 14.988281 -13.707031 13.8125 -14.0625 C 12.632812 -14.414062 11.410156 -14.816406 10.140625 -15.265625 C 7.722656 -16.097656 5.929688 -17.128906 4.765625 -18.359375 C 3.609375 -19.597656 3.03125 -21.21875 3.03125 -23.21875 C 3 -24.882812 3.382812 -26.363281 4.1875 -27.65625 C 5 -28.945312 6.140625 -29.957031 7.609375 -30.6875 C 9.085938 -31.414062 10.835938 -31.78125 12.859375 -31.78125 C 14.847656 -31.78125 16.578125 -31.40625 18.046875 -30.65625 C 19.523438 -29.914062 20.671875 -28.890625 21.484375 -27.578125 C 22.304688 -26.273438 22.734375 -24.789062 22.765625 -23.125 L 18.84375 -23.125 C 18.84375 -23.988281 18.617188 -24.84375 18.171875 -25.6875 C 17.722656 -26.539062 17.046875 -27.234375 16.140625 -27.765625 C 15.234375 -28.296875 14.09375 -28.5625 12.71875 -28.5625 C 11.019531 -28.59375 9.628906 -28.160156 8.546875 -27.265625 C 7.460938 -26.378906 6.921875 -25.144531 6.921875 -23.5625 C 6.921875 -22.226562 7.300781 -21.203125 8.0625 -20.484375 C 8.820312 -19.773438 9.882812 -19.1875 11.25 -18.71875 C 12.613281 -18.257812 14.191406 -17.734375 15.984375 -17.140625 C 17.472656 -16.609375 18.8125 -15.984375 20 -15.265625 C 21.1875 -14.554688 22.113281 -13.632812 22.78125 -12.5 C 23.457031 -11.363281 23.796875 -9.921875 23.796875 -8.171875 C 23.796875 -6.679688 23.40625 -5.273438 22.625 -3.953125 C 21.851562 -2.628906 20.6875 -1.550781 19.125 -0.71875 C 17.5625 0.113281 15.609375 0.53125 13.265625 0.53125 Z M 13.265625 0.53125 "/></g></g></g></svg>