<svg xmlns="http://www.w3.org/2000/svg" xmlns:xlink="http://www.w3.org/1999/xlink" width="500" zoomAndPan="magnify" viewBox="0 0 375 374.999991" height="500" preserveAspectRatio="xMidYMid meet" version="1.0"><path fill="#00bf63" d="M 49.027344 334.71875 L 54.117188 339.753906 L 54.628906 340.261719 C 70.46875 356.671875 70.300781 383.09375 54.117188 399.273438 C 37.9375 415.457031 11.515625 415.625 -4.894531 399.785156 L -5.402344 399.273438 L -10.496094 394.238281 L -24.355469 380.320312 C -40.707031 363.96875 -40.707031 337.207031 -24.355469 320.800781 C -8.003906 304.449219 18.8125 304.449219 35.164062 320.800781 Z M 329.769531 104.441406 L 334.695312 99.519531 L 340.351562 93.863281 L 392.234375 41.976562 C 408.585938 25.628906 408.585938 -1.132812 392.234375 -17.542969 C 375.828125 -33.894531 349.066406 -33.894531 332.714844 -17.542969 L 270.25 44.921875 L 240.488281 74.679688 C 224.136719 91.03125 224.136719 117.792969 240.488281 134.203125 L 270.25 163.960938 L 275.570312 169.222656 L 333.109375 226.765625 C 349.460938 243.117188 376.222656 243.117188 392.628906 226.765625 C 408.980469 210.414062 408.980469 183.59375 392.628906 167.246094 L 335.089844 109.703125 Z M -21.980469 -17.144531 L -21.980469 -17.203125 C -5.628906 -33.554688 21.191406 -33.554688 37.542969 -17.203125 L 391.839844 337.152344 C 408.246094 353.503906 408.246094 380.320312 391.839844 396.671875 C 375.488281 413.023438 348.726562 413.023438 332.316406 396.671875 L -21.980469 42.316406 C -38.332031 25.964844 -38.332031 -0.796875 -21.980469 -17.144531 Z M -22.488281 152.476562 C -6.136719 136.125 20.625 136.125 37.03125 152.476562 L 222.214844 337.660156 C 238.566406 354.011719 238.566406 380.828125 222.214844 397.179688 C 205.808594 413.53125 179.046875 413.53125 162.695312 397.179688 L 105.152344 339.640625 L -22.488281 212 C -38.839844 195.648438 -38.839844 168.828125 -22.488281 152.476562 Z M -22.488281 152.476562 " fill-opacity="1" fill-rule="evenodd"/></svg>