<svg xmlns="http://www.w3.org/2000/svg" xmlns:xlink="http://www.w3.org/1999/xlink" width="512" zoomAndPan="magnify" viewBox="0 0 384 95.999999" height="128" preserveAspectRatio="xMidYMid meet" version="1.0"><defs><g/><clipPath id="96e16bd496"><path d="M 0 9.121094 L 79.5 9.121094 L 79.5 88.621094 L 0 88.621094 Z M 0 9.121094 " clip-rule="nonzero"/></clipPath></defs><g clip-path="url(#96e16bd496)"><path fill="#00bf63" d="M 10.421875 80.464844 L 11.53125 81.5625 L 11.644531 81.671875 C 15.09375 85.246094 15.054688 91 11.53125 94.523438 C 8.007812 98.050781 2.253906 98.085938 -1.320312 94.636719 L -1.429688 94.523438 L -2.539062 93.429688 L -5.558594 90.398438 C -9.117188 86.835938 -9.117188 81.007812 -5.558594 77.433594 C -1.996094 73.875 3.84375 73.875 7.40625 77.433594 Z M 71.5625 30.316406 L 85.167969 16.710938 C 88.726562 13.152344 88.726562 7.324219 85.167969 3.75 C 81.59375 0.1875 75.765625 0.1875 72.203125 3.75 L 60.90625 15.050781 L 59.671875 16.28125 L 58.601562 17.351562 L 52.121094 23.835938 C 48.558594 27.394531 48.558594 33.222656 52.121094 36.796875 L 58.601562 43.277344 L 59.761719 44.425781 L 72.292969 56.957031 C 75.851562 60.515625 81.679688 60.515625 85.253906 56.957031 C 88.816406 53.394531 88.816406 47.554688 85.253906 43.992188 L 72.722656 31.460938 Z M -5.039062 3.835938 L -5.039062 3.824219 C -1.480469 0.261719 4.359375 0.261719 7.921875 3.824219 L 85.082031 80.996094 C 88.65625 84.554688 88.65625 90.398438 85.082031 93.957031 C 81.519531 97.519531 75.691406 97.519531 72.117188 93.957031 L -5.039062 16.785156 C -8.601562 13.226562 -8.601562 7.398438 -5.039062 3.835938 Z M -5.152344 40.777344 C -1.589844 37.214844 4.238281 37.214844 7.8125 40.777344 L 48.140625 81.105469 C 51.703125 84.667969 51.703125 90.507812 48.140625 94.070312 C 44.566406 97.628906 38.738281 97.628906 35.179688 94.070312 L -5.152344 53.738281 C -8.710938 50.179688 -8.710938 44.339844 -5.152344 40.777344 Z M -5.152344 40.777344 " fill-opacity="1" fill-rule="evenodd"/></g><g fill="#ffffff" fill-opacity="1"><g transform="translate(89.510359, 46.630535)"><g><path d="M 11.203125 0 L 1.328125 -37.359375 L 8.640625 -37.359375 L 15.375 -7.625 L 23.265625 -37.359375 L 30.796875 -37.359375 L 38.484375 -7.625 L 45.203125 -37.359375 L 52.578125 -37.359375 L 42.4375 0 L 34.3125 0 L 26.90625 -27.703125 L 19.265625 0 Z M 11.203125 0 "/></g></g></g><g fill="#ffffff" fill-opacity="1"><g transform="translate(151.668423, 46.630535)"><g><path d="M 3.625 0 L 3.625 -37.359375 L 28.015625 -37.359375 L 28.015625 -31.859375 L 10.46875 -31.859375 L 10.46875 -21.609375 L 26.421875 -21.609375 L 26.421875 -16.28125 L 10.46875 -16.28125 L 10.46875 -5.5 L 28.015625 -5.5 L 28.015625 0 Z M 3.625 0 "/></g></g></g><g fill="#ffffff" fill-opacity="1"><g transform="translate(190.778746, 46.630535)"><g><path d="M 3.625 0 L 3.625 -37.359375 L 18.625 -37.359375 C 22.507812 -37.359375 25.472656 -36.457031 27.515625 -34.65625 C 29.554688 -32.863281 30.578125 -30.5625 30.578125 -27.75 C 30.578125 -25.40625 29.945312 -23.53125 28.6875 -22.125 C 27.425781 -20.71875 25.890625 -19.765625 24.078125 -19.265625 C 26.210938 -18.835938 27.972656 -17.78125 29.359375 -16.09375 C 30.742188 -14.40625 31.4375 -12.4375 31.4375 -10.1875 C 31.4375 -7.238281 30.367188 -4.800781 28.234375 -2.875 C 26.097656 -0.957031 23.070312 0 19.15625 0 Z M 10.46875 -21.671875 L 17.609375 -21.671875 C 19.535156 -21.671875 21.015625 -22.113281 22.046875 -23 C 23.078125 -23.894531 23.59375 -25.160156 23.59375 -26.796875 C 23.59375 -28.359375 23.082031 -29.59375 22.0625 -30.5 C 21.050781 -31.40625 19.53125 -31.859375 17.5 -31.859375 L 10.46875 -31.859375 Z M 10.46875 -5.546875 L 18.09375 -5.546875 C 20.125 -5.546875 21.695312 -6.015625 22.8125 -6.953125 C 23.9375 -7.898438 24.5 -9.226562 24.5 -10.9375 C 24.5 -12.6875 23.910156 -14.054688 22.734375 -15.046875 C 21.554688 -16.046875 19.972656 -16.546875 17.984375 -16.546875 L 10.46875 -16.546875 Z M 10.46875 -5.546875 "/></g></g></g><g fill="#ffffff" fill-opacity="1"><g transform="translate(89.510359, 88.366055)"><g><path d="M 13.265625 0.53125 C 10.972656 0.53125 8.976562 0.113281 7.28125 -0.71875 C 5.582031 -1.550781 4.269531 -2.710938 3.34375 -4.203125 C 2.425781 -5.691406 1.96875 -7.414062 1.96875 -9.375 L 5.890625 -9.375 C 5.890625 -8.15625 6.171875 -7.03125 6.734375 -6 C 7.304688 -4.976562 8.132812 -4.160156 9.21875 -3.546875 C 10.3125 -2.941406 11.660156 -2.640625 13.265625 -2.640625 C 15.378906 -2.640625 17.015625 -3.144531 18.171875 -4.15625 C 19.335938 -5.164062 19.921875 -6.429688 19.921875 -7.953125 C 19.921875 -9.203125 19.648438 -10.207031 19.109375 -10.96875 C 18.578125 -11.726562 17.859375 -12.34375 16.953125 -12.8125 C 16.046875 -13.289062 15.003906 -13.707031 13.828125 -14.0625 C 12.648438 -14.425781 11.421875 -14.832031 10.140625 -15.28125 C 7.722656 -16.113281 5.929688 -17.144531 4.765625 -18.375 C 3.609375 -19.613281 3.03125 -21.234375 3.03125 -23.234375 C 3.007812 -24.898438 3.398438 -26.378906 4.203125 -27.671875 C 5.003906 -28.972656 6.140625 -29.988281 7.609375 -30.71875 C 9.085938 -31.445312 10.835938 -31.8125 12.859375 -31.8125 C 14.859375 -31.8125 16.59375 -31.4375 18.0625 -30.6875 C 19.539062 -29.945312 20.6875 -28.921875 21.5 -27.609375 C 22.320312 -26.296875 22.75 -24.804688 22.78125 -23.140625 L 18.84375 -23.140625 C 18.84375 -24.003906 18.617188 -24.859375 18.171875 -25.703125 C 17.734375 -26.554688 17.054688 -27.25 16.140625 -27.78125 C 15.234375 -28.320312 14.097656 -28.59375 12.734375 -28.59375 C 11.035156 -28.625 9.640625 -28.191406 8.546875 -27.296875 C 7.460938 -26.398438 6.921875 -25.164062 6.921875 -23.59375 C 6.921875 -22.25 7.300781 -21.21875 8.0625 -20.5 C 8.820312 -19.789062 9.882812 -19.203125 11.25 -18.734375 C 12.625 -18.273438 14.207031 -17.75 16 -17.15625 C 17.476562 -16.613281 18.8125 -15.984375 20 -15.265625 C 21.195312 -14.554688 22.128906 -13.632812 22.796875 -12.5 C 23.472656 -11.375 23.8125 -9.929688 23.8125 -8.171875 C 23.8125 -6.679688 23.421875 -5.273438 22.640625 -3.953125 C 21.867188 -2.628906 20.703125 -1.550781 19.140625 -0.71875 C 17.578125 0.113281 15.617188 0.53125 13.265625 0.53125 Z M 13.265625 0.53125 "/></g></g></g><g fill="#ffffff" fill-opacity="1"><g transform="translate(122.255255, 88.366055)"><g><path d="M 17.515625 0.53125 C 14.441406 0.53125 11.75 -0.144531 9.4375 -1.5 C 7.132812 -2.851562 5.332031 -4.75 4.03125 -7.1875 C 2.738281 -9.632812 2.09375 -12.453125 2.09375 -15.640625 C 2.09375 -18.828125 2.738281 -21.632812 4.03125 -24.0625 C 5.332031 -26.488281 7.132812 -28.382812 9.4375 -29.75 C 11.75 -31.125 14.441406 -31.8125 17.515625 -31.8125 C 20.609375 -31.8125 23.304688 -31.125 25.609375 -29.75 C 27.921875 -28.382812 29.71875 -26.488281 31 -24.0625 C 32.28125 -21.632812 32.921875 -18.828125 32.921875 -15.640625 C 32.921875 -12.453125 32.28125 -9.632812 31 -7.1875 C 29.71875 -4.75 27.921875 -2.851562 25.609375 -1.5 C 23.304688 -0.144531 20.609375 0.53125 17.515625 0.53125 Z M 17.515625 -2.765625 C 19.804688 -2.765625 21.820312 -3.28125 23.5625 -4.3125 C 25.300781 -5.34375 26.65625 -6.816406 27.625 -8.734375 C 28.59375 -10.648438 29.078125 -12.953125 29.078125 -15.640625 C 29.078125 -18.316406 28.59375 -20.609375 27.625 -22.515625 C 26.65625 -24.421875 25.300781 -25.882812 23.5625 -26.90625 C 21.820312 -27.9375 19.804688 -28.453125 17.515625 -28.453125 C 15.222656 -28.453125 13.203125 -27.9375 11.453125 -26.90625 C 9.710938 -25.882812 8.359375 -24.421875 7.390625 -22.515625 C 6.421875 -20.609375 5.9375 -18.316406 5.9375 -15.640625 C 5.9375 -12.953125 6.421875 -10.648438 7.390625 -8.734375 C 8.359375 -6.816406 9.710938 -5.34375 11.453125 -4.3125 C 13.203125 -3.28125 15.222656 -2.765625 17.515625 -2.765625 Z M 17.515625 -2.765625 "/></g></g></g><g fill="#ffffff" fill-opacity="1"><g transform="translate(164.202194, 88.366055)"><g><path d="M 3.3125 0 L 3.3125 -31.265625 L 7.0625 -31.265625 L 7.0625 -3 L 21.625 -3 L 21.625 0 Z M 3.3125 0 "/></g></g></g><g fill="#ffffff" fill-opacity="1"><g transform="translate(194.57958, 88.366055)"><g><path d="M 14.609375 0.53125 C 12.460938 0.53125 10.519531 0.109375 8.78125 -0.734375 C 7.039062 -1.585938 5.644531 -2.90625 4.59375 -4.6875 C 3.550781 -6.476562 3.03125 -8.757812 3.03125 -11.53125 L 3.03125 -31.265625 L 6.796875 -31.265625 L 6.796875 -11.484375 C 6.796875 -8.441406 7.523438 -6.234375 8.984375 -4.859375 C 10.441406 -3.492188 12.347656 -2.8125 14.703125 -2.8125 C 17.046875 -2.8125 18.929688 -3.492188 20.359375 -4.859375 C 21.796875 -6.234375 22.515625 -8.441406 22.515625 -11.484375 L 22.515625 -31.265625 L 26.265625 -31.265625 L 26.265625 -11.53125 C 26.265625 -8.757812 25.742188 -6.476562 24.703125 -4.6875 C 23.660156 -2.90625 22.257812 -1.585938 20.5 -0.734375 C 18.75 0.109375 16.785156 0.53125 14.609375 0.53125 Z M 14.609375 0.53125 "/></g></g></g><g fill="#ffffff" fill-opacity="1"><g transform="translate(230.808749, 88.366055)"><g><path d="M 10.625 0 L 10.625 -28.1875 L 1.296875 -28.1875 L 1.296875 -31.265625 L 23.71875 -31.265625 L 23.71875 -28.1875 L 14.390625 -28.1875 L 14.390625 0 Z M 10.625 0 "/></g></g></g><g fill="#ffffff" fill-opacity="1"><g transform="translate(262.749591, 88.366055)"><g><path d="M 3.3125 0 L 3.3125 -31.265625 L 7.0625 -31.265625 L 7.0625 0 Z M 3.3125 0 "/></g></g></g><g fill="#ffffff" fill-opacity="1"><g transform="translate(280.038646, 88.366055)"><g><path d="M 17.515625 0.53125 C 14.441406 0.53125 11.75 -0.144531 9.4375 -1.5 C 7.132812 -2.851562 5.332031 -4.75 4.03125 -7.1875 C 2.738281 -9.632812 2.09375 -12.453125 2.09375 -15.640625 C 2.09375 -18.828125 2.738281 -21.632812 4.03125 -24.0625 C 5.332031 -26.488281 7.132812 -28.382812 9.4375 -29.75 C 11.75 -31.125 14.441406 -31.8125 17.515625 -31.8125 C 20.609375 -31.8125 23.304688 -31.125 25.609375 -29.75 C 27.921875 -28.382812 29.71875 -26.488281 31 -24.0625 C 32.28125 -21.632812 32.921875 -18.828125 32.921875 -15.640625 C 32.921875 -12.453125 32.28125 -9.632812 31 -7.1875 C 29.71875 -4.75 27.921875 -2.851562 25.609375 -1.5 C 23.304688 -0.144531 20.609375 0.53125 17.515625 0.53125 Z M 17.515625 -2.765625 C 19.804688 -2.765625 21.820312 -3.28125 23.5625 -4.3125 C 25.300781 -5.34375 26.65625 -6.816406 27.625 -8.734375 C 28.59375 -10.648438 29.078125 -12.953125 29.078125 -15.640625 C 29.078125 -18.316406 28.59375 -20.609375 27.625 -22.515625 C 26.65625 -24.421875 25.300781 -25.882812 23.5625 -26.90625 C 21.820312 -27.9375 19.804688 -28.453125 17.515625 -28.453125 C 15.222656 -28.453125 13.203125 -27.9375 11.453125 -26.90625 C 9.710938 -25.882812 8.359375 -24.421875 7.390625 -22.515625 C 6.421875 -20.609375 5.9375 -18.316406 5.9375 -15.640625 C 5.9375 -12.953125 6.421875 -10.648438 7.390625 -8.734375 C 8.359375 -6.816406 9.710938 -5.34375 11.453125 -4.3125 C 13.203125 -3.28125 15.222656 -2.765625 17.515625 -2.765625 Z M 17.515625 -2.765625 "/></g></g></g><g fill="#ffffff" fill-opacity="1"><g transform="translate(321.985594, 88.366055)"><g><path d="M 3.3125 0 L 3.3125 -31.265625 L 7.0625 -31.265625 L 23.71875 -6.203125 L 23.71875 -31.265625 L 27.46875 -31.265625 L 27.46875 0 L 23.71875 0 L 7.0625 -25.0625 L 7.0625 0 Z M 3.3125 0 "/></g></g></g><g fill="#ffffff" fill-opacity="1"><g transform="translate(359.688884, 88.366055)"><g><path d="M 13.265625 0.53125 C 10.972656 0.53125 8.976562 0.113281 7.28125 -0.71875 C 5.582031 -1.550781 4.269531 -2.710938 3.34375 -4.203125 C 2.425781 -5.691406 1.96875 -7.414062 1.96875 -9.375 L 5.890625 -9.375 C 5.890625 -8.15625 6.171875 -7.03125 6.734375 -6 C 7.304688 -4.976562 8.132812 -4.160156 9.21875 -3.546875 C 10.3125 -2.941406 11.660156 -2.640625 13.265625 -2.640625 C 15.378906 -2.640625 17.015625 -3.144531 18.171875 -4.15625 C 19.335938 -5.164062 19.921875 -6.429688 19.921875 -7.953125 C 19.921875 -9.203125 19.648438 -10.207031 19.109375 -10.96875 C 18.578125 -11.726562 17.859375 -12.34375 16.953125 -12.8125 C 16.046875 -13.289062 15.003906 -13.707031 13.828125 -14.0625 C 12.648438 -14.425781 11.421875 -14.832031 10.140625 -15.28125 C 7.722656 -16.113281 5.929688 -17.144531 4.765625 -18.375 C 3.609375 -19.613281 3.03125 -21.234375 3.03125 -23.234375 C 3.007812 -24.898438 3.398438 -26.378906 4.203125 -27.671875 C 5.003906 -28.972656 6.140625 -29.988281 7.609375 -30.71875 C 9.085938 -31.445312 10.835938 -31.8125 12.859375 -31.8125 C 14.859375 -31.8125 16.59375 -31.4375 18.0625 -30.6875 C 19.539062 -29.945312 20.6875 -28.921875 21.5 -27.609375 C 22.320312 -26.296875 22.75 -24.804688 22.78125 -23.140625 L 18.84375 -23.140625 C 18.84375 -24.003906 18.617188 -24.859375 18.171875 -25.703125 C 17.734375 -26.554688 17.054688 -27.25 16.140625 -27.78125 C 15.234375 -28.320312 14.097656 -28.59375 12.734375 -28.59375 C 11.035156 -28.625 9.640625 -28.191406 8.546875 -27.296875 C 7.460938 -26.398438 6.921875 -25.164062 6.921875 -23.59375 C 6.921875 -22.25 7.300781 -21.21875 8.0625 -20.5 C 8.820312 -19.789062 9.882812 -19.203125 11.25 -18.734375 C 12.625 -18.273438 14.207031 -17.75 16 -17.15625 C 17.476562 -16.613281 18.8125 -15.984375 20 -15.265625 C 21.195312 -14.554688 22.128906 -13.632812 22.796875 -12.5 C 23.472656 -11.375 23.8125 -9.929688 23.8125 -8.171875 C 23.8125 -6.679688 23.421875 -5.273438 22.640625 -3.953125 C 21.867188 -2.628906 20.703125 -1.550781 19.140625 -0.71875 C 17.578125 0.113281 15.617188 0.53125 13.265625 0.53125 Z M 13.265625 0.53125 "/></g></g></g></svg>