<svg xmlns="http://www.w3.org/2000/svg" xmlns:xlink="http://www.w3.org/1999/xlink" width="500" zoomAndPan="magnify" viewBox="0 0 375 374.999991" height="500" preserveAspectRatio="xMidYMid meet" version="1.0"><defs><g/><clipPath id="365e31f740"><path d="M 82.0625 165.109375 L 127.8125 165.109375 L 127.8125 210.859375 L 82.0625 210.859375 Z M 82.0625 165.109375 " clip-rule="nonzero"/></clipPath></defs><g clip-path="url(#365e31f740)"><path fill="#00bf63" d="M 88.058594 206.171875 L 88.695312 206.800781 L 88.761719 206.863281 C 90.742188 208.917969 90.722656 212.230469 88.695312 214.253906 C 86.667969 216.28125 83.359375 216.304688 81.304688 214.320312 L 81.242188 214.253906 L 80.605469 213.625 L 78.867188 211.882812 C 76.820312 209.832031 76.820312 206.480469 78.867188 204.425781 C 80.914062 202.378906 84.273438 202.378906 86.324219 204.425781 Z M 123.21875 177.332031 L 131.042969 169.507812 C 133.089844 167.460938 133.089844 164.109375 131.042969 162.054688 C 128.984375 160.007812 125.632812 160.007812 123.585938 162.054688 L 112.035156 173.605469 C 109.988281 175.652344 109.988281 179.003906 112.035156 181.058594 L 115.765625 184.785156 L 116.429688 185.445312 L 123.636719 192.652344 C 125.683594 194.699219 129.035156 194.699219 131.089844 192.652344 C 133.136719 190.601562 133.136719 187.242188 131.089844 185.195312 L 123.882812 177.988281 Z M 79.164062 162.105469 L 79.164062 162.097656 C 81.214844 160.046875 84.570312 160.046875 86.621094 162.097656 L 130.992188 206.476562 C 133.046875 208.523438 133.046875 211.882812 130.992188 213.929688 C 128.945312 215.976562 125.59375 215.976562 123.539062 213.929688 L 79.164062 169.550781 C 77.117188 167.503906 77.117188 164.152344 79.164062 162.105469 Z M 79.101562 183.347656 C 81.148438 181.300781 84.5 181.300781 86.554688 183.347656 L 91.609375 188.398438 L 109.75 206.539062 C 111.796875 208.585938 111.796875 211.945312 109.75 213.992188 C 107.691406 216.039062 104.339844 216.039062 102.292969 213.992188 L 79.101562 190.800781 C 77.054688 188.753906 77.054688 185.394531 79.101562 183.347656 Z M 79.101562 183.347656 " fill-opacity="1" fill-rule="evenodd"/></g><g fill="#ffffff" fill-opacity="1"><g transform="translate(133.536017, 186.712473)"><g><path d="M 6.4375 0 L 0.765625 -21.484375 L 4.96875 -21.484375 L 8.84375 -4.390625 L 13.375 -21.484375 L 17.703125 -21.484375 L 22.125 -4.390625 L 26 -21.484375 L 30.234375 -21.484375 L 24.390625 0 L 19.734375 0 L 15.46875 -15.921875 L 11.078125 0 Z M 6.4375 0 "/></g></g></g><g fill="#ffffff" fill-opacity="1"><g transform="translate(169.279993, 186.712473)"><g><path d="M 2.09375 0 L 2.09375 -21.484375 L 16.109375 -21.484375 L 16.109375 -18.328125 L 6.015625 -18.328125 L 6.015625 -12.421875 L 15.1875 -12.421875 L 15.1875 -9.359375 L 6.015625 -9.359375 L 6.015625 -3.15625 L 16.109375 -3.15625 L 16.109375 0 Z M 2.09375 0 "/></g></g></g><g fill="#ffffff" fill-opacity="1"><g transform="translate(191.770373, 186.712473)"><g><path d="M 2.09375 0 L 2.09375 -21.484375 L 10.703125 -21.484375 C 12.941406 -21.484375 14.644531 -20.960938 15.8125 -19.921875 C 16.988281 -18.890625 17.578125 -17.566406 17.578125 -15.953125 C 17.578125 -14.609375 17.210938 -13.53125 16.484375 -12.71875 C 15.765625 -11.914062 14.882812 -11.367188 13.84375 -11.078125 C 15.070312 -10.828125 16.082031 -10.21875 16.875 -9.25 C 17.675781 -8.28125 18.078125 -7.148438 18.078125 -5.859375 C 18.078125 -4.160156 17.460938 -2.757812 16.234375 -1.65625 C 15.003906 -0.550781 13.265625 0 11.015625 0 Z M 6.015625 -12.453125 L 10.125 -12.453125 C 11.226562 -12.453125 12.078125 -12.707031 12.671875 -13.21875 C 13.265625 -13.738281 13.5625 -14.46875 13.5625 -15.40625 C 13.5625 -16.300781 13.269531 -17.007812 12.6875 -17.53125 C 12.101562 -18.0625 11.226562 -18.328125 10.0625 -18.328125 L 6.015625 -18.328125 Z M 6.015625 -3.1875 L 10.40625 -3.1875 C 11.570312 -3.1875 12.472656 -3.457031 13.109375 -4 C 13.753906 -4.539062 14.078125 -5.304688 14.078125 -6.296875 C 14.078125 -7.296875 13.738281 -8.082031 13.0625 -8.65625 C 12.394531 -9.226562 11.488281 -9.515625 10.34375 -9.515625 L 6.015625 -9.515625 Z M 6.015625 -3.1875 "/></g></g></g><g fill="#ffffff" fill-opacity="1"><g transform="translate(133.536017, 210.712472)"><g><path d="M 7.625 0.3125 C 6.3125 0.3125 5.164062 0.0703125 4.1875 -0.40625 C 3.207031 -0.882812 2.453125 -1.550781 1.921875 -2.40625 C 1.390625 -3.269531 1.125 -4.265625 1.125 -5.390625 L 3.390625 -5.390625 C 3.390625 -4.691406 3.550781 -4.046875 3.875 -3.453125 C 4.195312 -2.859375 4.671875 -2.382812 5.296875 -2.03125 C 5.921875 -1.6875 6.695312 -1.515625 7.625 -1.515625 C 8.84375 -1.515625 9.785156 -1.804688 10.453125 -2.390625 C 11.117188 -2.972656 11.453125 -3.703125 11.453125 -4.578125 C 11.453125 -5.296875 11.296875 -5.875 10.984375 -6.3125 C 10.679688 -6.75 10.269531 -7.101562 9.75 -7.375 C 9.226562 -7.644531 8.628906 -7.882812 7.953125 -8.09375 C 7.273438 -8.300781 6.566406 -8.53125 5.828125 -8.78125 C 4.441406 -9.257812 3.414062 -9.851562 2.75 -10.5625 C 2.082031 -11.28125 1.75 -12.210938 1.75 -13.359375 C 1.726562 -14.316406 1.945312 -15.164062 2.40625 -15.90625 C 2.875 -16.65625 3.53125 -17.238281 4.375 -17.65625 C 5.226562 -18.082031 6.234375 -18.296875 7.390625 -18.296875 C 8.546875 -18.296875 9.546875 -18.078125 10.390625 -17.640625 C 11.234375 -17.210938 11.890625 -16.625 12.359375 -15.875 C 12.835938 -15.125 13.082031 -14.269531 13.09375 -13.3125 L 10.84375 -13.3125 C 10.84375 -13.800781 10.710938 -14.289062 10.453125 -14.78125 C 10.191406 -15.269531 9.800781 -15.664062 9.28125 -15.96875 C 8.757812 -16.28125 8.109375 -16.4375 7.328125 -16.4375 C 6.347656 -16.457031 5.546875 -16.207031 4.921875 -15.6875 C 4.296875 -15.175781 3.984375 -14.46875 3.984375 -13.5625 C 3.984375 -12.789062 4.203125 -12.195312 4.640625 -11.78125 C 5.078125 -11.375 5.6875 -11.035156 6.46875 -10.765625 C 7.257812 -10.503906 8.171875 -10.203125 9.203125 -9.859375 C 10.054688 -9.554688 10.820312 -9.195312 11.5 -8.78125 C 12.1875 -8.375 12.722656 -7.84375 13.109375 -7.1875 C 13.492188 -6.539062 13.6875 -5.710938 13.6875 -4.703125 C 13.6875 -3.847656 13.460938 -3.035156 13.015625 -2.265625 C 12.578125 -1.503906 11.90625 -0.882812 11 -0.40625 C 10.101562 0.0703125 8.976562 0.3125 7.625 0.3125 Z M 7.625 0.3125 "/></g></g></g><g fill="#ffffff" fill-opacity="1"><g transform="translate(152.36596, 210.712472)"><g><path d="M 10.0625 0.3125 C 8.300781 0.3125 6.753906 -0.078125 5.421875 -0.859375 C 4.097656 -1.640625 3.0625 -2.726562 2.3125 -4.125 C 1.570312 -5.53125 1.203125 -7.148438 1.203125 -8.984375 C 1.203125 -10.816406 1.570312 -12.429688 2.3125 -13.828125 C 3.0625 -15.222656 4.097656 -16.316406 5.421875 -17.109375 C 6.753906 -17.898438 8.300781 -18.296875 10.0625 -18.296875 C 11.84375 -18.296875 13.394531 -17.898438 14.71875 -17.109375 C 16.050781 -16.316406 17.085938 -15.222656 17.828125 -13.828125 C 18.566406 -12.429688 18.9375 -10.816406 18.9375 -8.984375 C 18.9375 -7.148438 18.566406 -5.53125 17.828125 -4.125 C 17.085938 -2.726562 16.050781 -1.640625 14.71875 -0.859375 C 13.394531 -0.078125 11.84375 0.3125 10.0625 0.3125 Z M 10.0625 -1.59375 C 11.382812 -1.59375 12.546875 -1.882812 13.546875 -2.46875 C 14.546875 -3.0625 15.320312 -3.910156 15.875 -5.015625 C 16.4375 -6.117188 16.71875 -7.441406 16.71875 -8.984375 C 16.71875 -10.523438 16.4375 -11.84375 15.875 -12.9375 C 15.320312 -14.039062 14.546875 -14.882812 13.546875 -15.46875 C 12.546875 -16.0625 11.382812 -16.359375 10.0625 -16.359375 C 8.75 -16.359375 7.59375 -16.0625 6.59375 -15.46875 C 5.59375 -14.882812 4.8125 -14.039062 4.25 -12.9375 C 3.695312 -11.84375 3.421875 -10.523438 3.421875 -8.984375 C 3.421875 -7.441406 3.695312 -6.117188 4.25 -5.015625 C 4.8125 -3.910156 5.59375 -3.0625 6.59375 -2.46875 C 7.59375 -1.882812 8.75 -1.59375 10.0625 -1.59375 Z M 10.0625 -1.59375 "/></g></g></g><g fill="#ffffff" fill-opacity="1"><g transform="translate(176.487535, 210.712472)"><g><path d="M 1.90625 0 L 1.90625 -17.984375 L 4.0625 -17.984375 L 4.0625 -1.71875 L 12.4375 -1.71875 L 12.4375 0 Z M 1.90625 0 "/></g></g></g><g fill="#ffffff" fill-opacity="1"><g transform="translate(193.956042, 210.712472)"><g><path d="M 8.40625 0.3125 C 7.164062 0.3125 6.046875 0.0664062 5.046875 -0.421875 C 4.046875 -0.910156 3.242188 -1.664062 2.640625 -2.6875 C 2.046875 -3.71875 1.75 -5.03125 1.75 -6.625 L 1.75 -17.984375 L 3.90625 -17.984375 L 3.90625 -6.609375 C 3.90625 -4.859375 4.320312 -3.585938 5.15625 -2.796875 C 6 -2.015625 7.097656 -1.625 8.453125 -1.625 C 9.804688 -1.625 10.894531 -2.015625 11.71875 -2.796875 C 12.539062 -3.585938 12.953125 -4.859375 12.953125 -6.609375 L 12.953125 -17.984375 L 15.109375 -17.984375 L 15.109375 -6.625 C 15.109375 -5.03125 14.804688 -3.71875 14.203125 -2.6875 C 13.609375 -1.664062 12.804688 -0.910156 11.796875 -0.421875 C 10.785156 0.0664062 9.65625 0.3125 8.40625 0.3125 Z M 8.40625 0.3125 "/></g></g></g><g fill="#ffffff" fill-opacity="1"><g transform="translate(214.789615, 210.712472)"><g><path d="M 6.109375 0 L 6.109375 -16.203125 L 0.75 -16.203125 L 0.75 -17.984375 L 13.640625 -17.984375 L 13.640625 -16.203125 L 8.265625 -16.203125 L 8.265625 0 Z M 6.109375 0 "/></g></g></g><g fill="#ffffff" fill-opacity="1"><g transform="translate(233.157186, 210.712472)"><g><path d="M 1.90625 0 L 1.90625 -17.984375 L 4.0625 -17.984375 L 4.0625 0 Z M 1.90625 0 "/></g></g></g><g fill="#ffffff" fill-opacity="1"><g transform="translate(243.099252, 210.712472)"><g><path d="M 10.0625 0.3125 C 8.300781 0.3125 6.753906 -0.078125 5.421875 -0.859375 C 4.097656 -1.640625 3.0625 -2.726562 2.3125 -4.125 C 1.570312 -5.53125 1.203125 -7.148438 1.203125 -8.984375 C 1.203125 -10.816406 1.570312 -12.429688 2.3125 -13.828125 C 3.0625 -15.222656 4.097656 -16.316406 5.421875 -17.109375 C 6.753906 -17.898438 8.300781 -18.296875 10.0625 -18.296875 C 11.84375 -18.296875 13.394531 -17.898438 14.71875 -17.109375 C 16.050781 -16.316406 17.085938 -15.222656 17.828125 -13.828125 C 18.566406 -12.429688 18.9375 -10.816406 18.9375 -8.984375 C 18.9375 -7.148438 18.566406 -5.53125 17.828125 -4.125 C 17.085938 -2.726562 16.050781 -1.640625 14.71875 -0.859375 C 13.394531 -0.078125 11.84375 0.3125 10.0625 0.3125 Z M 10.0625 -1.59375 C 11.382812 -1.59375 12.546875 -1.882812 13.546875 -2.46875 C 14.546875 -3.0625 15.320312 -3.910156 15.875 -5.015625 C 16.4375 -6.117188 16.71875 -7.441406 16.71875 -8.984375 C 16.71875 -10.523438 16.4375 -11.84375 15.875 -12.9375 C 15.320312 -14.039062 14.546875 -14.882812 13.546875 -15.46875 C 12.546875 -16.0625 11.382812 -16.359375 10.0625 -16.359375 C 8.75 -16.359375 7.59375 -16.0625 6.59375 -15.46875 C 5.59375 -14.882812 4.8125 -14.039062 4.25 -12.9375 C 3.695312 -11.84375 3.421875 -10.523438 3.421875 -8.984375 C 3.421875 -7.441406 3.695312 -6.117188 4.25 -5.015625 C 4.8125 -3.910156 5.59375 -3.0625 6.59375 -2.46875 C 7.59375 -1.882812 8.75 -1.59375 10.0625 -1.59375 Z M 10.0625 -1.59375 "/></g></g></g><g fill="#ffffff" fill-opacity="1"><g transform="translate(267.220832, 210.712472)"><g><path d="M 1.90625 0 L 1.90625 -17.984375 L 4.0625 -17.984375 L 13.640625 -3.578125 L 13.640625 -17.984375 L 15.796875 -17.984375 L 15.796875 0 L 13.640625 0 L 4.0625 -14.40625 L 4.0625 0 Z M 1.90625 0 "/></g></g></g><g fill="#ffffff" fill-opacity="1"><g transform="translate(288.902098, 210.712472)"><g><path d="M 7.625 0.3125 C 6.3125 0.3125 5.164062 0.0703125 4.1875 -0.40625 C 3.207031 -0.882812 2.453125 -1.550781 1.921875 -2.40625 C 1.390625 -3.269531 1.125 -4.265625 1.125 -5.390625 L 3.390625 -5.390625 C 3.390625 -4.691406 3.550781 -4.046875 3.875 -3.453125 C 4.195312 -2.859375 4.671875 -2.382812 5.296875 -2.03125 C 5.921875 -1.6875 6.695312 -1.515625 7.625 -1.515625 C 8.84375 -1.515625 9.785156 -1.804688 10.453125 -2.390625 C 11.117188 -2.972656 11.453125 -3.703125 11.453125 -4.578125 C 11.453125 -5.296875 11.296875 -5.875 10.984375 -6.3125 C 10.679688 -6.75 10.269531 -7.101562 9.75 -7.375 C 9.226562 -7.644531 8.628906 -7.882812 7.953125 -8.09375 C 7.273438 -8.300781 6.566406 -8.53125 5.828125 -8.78125 C 4.441406 -9.257812 3.414062 -9.851562 2.75 -10.5625 C 2.082031 -11.28125 1.75 -12.210938 1.75 -13.359375 C 1.726562 -14.316406 1.945312 -15.164062 2.40625 -15.90625 C 2.875 -16.65625 3.53125 -17.238281 4.375 -17.65625 C 5.226562 -18.082031 6.234375 -18.296875 7.390625 -18.296875 C 8.546875 -18.296875 9.546875 -18.078125 10.390625 -17.640625 C 11.234375 -17.210938 11.890625 -16.625 12.359375 -15.875 C 12.835938 -15.125 13.082031 -14.269531 13.09375 -13.3125 L 10.84375 -13.3125 C 10.84375 -13.800781 10.710938 -14.289062 10.453125 -14.78125 C 10.191406 -15.269531 9.800781 -15.664062 9.28125 -15.96875 C 8.757812 -16.28125 8.109375 -16.4375 7.328125 -16.4375 C 6.347656 -16.457031 5.546875 -16.207031 4.921875 -15.6875 C 4.296875 -15.175781 3.984375 -14.46875 3.984375 -13.5625 C 3.984375 -12.789062 4.203125 -12.195312 4.640625 -11.78125 C 5.078125 -11.375 5.6875 -11.035156 6.46875 -10.765625 C 7.257812 -10.503906 8.171875 -10.203125 9.203125 -9.859375 C 10.054688 -9.554688 10.820312 -9.195312 11.5 -8.78125 C 12.1875 -8.375 12.722656 -7.84375 13.109375 -7.1875 C 13.492188 -6.539062 13.6875 -5.710938 13.6875 -4.703125 C 13.6875 -3.847656 13.460938 -3.035156 13.015625 -2.265625 C 12.578125 -1.503906 11.90625 -0.882812 11 -0.40625 C 10.101562 0.0703125 8.976562 0.3125 7.625 0.3125 Z M 7.625 0.3125 "/></g></g></g></svg>